<svg id="SvgjsSvg1031" xmlns="http://www.w3.org/2000/svg" version="1.1" xmlns:xlink="http://www.w3.org/1999/xlink" xmlns:svgjs="http://svgjs.com/svgjs" width="47" height="47" viewBox="0 0 47 47"><title>Icon Check mark</title><desc>Created with Avocode.</desc><defs id="SvgjsDefs1032"><clipPath id="SvgjsClipPath1035"><path id="SvgjsPath1034" d="M755 4620.5C755 4607.52131 765.52131 4597 778.5 4597L778.5 4597C791.47869 4597 802 4607.52131 802 4620.5L802 4620.5C802 4633.47869 791.47869 4644 778.5 4644L778.5 4644C765.52131 4644 755 4633.47869 755 4620.5Z " fill="#ffffff"></path></clipPath></defs><path id="SvgjsPath1033" d="M755 4620.5C755 4607.52131 765.52131 4597 778.5 4597L778.5 4597C791.47869 4597 802 4607.52131 802 4620.5L802 4620.5C802 4633.47869 791.47869 4644 778.5 4644L778.5 4644C765.52131 4644 755 4633.47869 755 4620.5Z " fill-opacity="0" fill="#ffffff" stroke-dasharray="0" stroke-linejoin="miter" stroke-linecap="butt" stroke-opacity="1" stroke="#ffa000" stroke-miterlimit="50" stroke-width="4" clip-path="url(&quot;#SvgjsClipPath1035&quot;)" transform="matrix(1,0,0,1,-755,-4597)"></path><path id="SvgjsPath1036" d="M778.21 4628.39C777.95 4628.650000000001 777.5500000000001 4628.820000000001 777.12 4628.820000000001C776.68 4628.820000000001 776.33 4628.650000000001 776.03 4628.39L769.4399999999999 4621.75C769.17 4621.5 768.9999999999999 4621.11 768.9999999999999 4620.68C768.9999999999999 4619.820000000001 769.6999999999999 4619.13 770.5299999999999 4619.13C770.9599999999998 4619.13 771.3099999999998 4619.3 771.6199999999999 4619.56L777.1199999999999 4625.110000000001L787.7199999999999 4614.43C787.9799999999999 4614.17 788.3799999999999 4614 788.81 4614C789.64 4614 790.3399999999999 4614.69 790.3399999999999 4615.55C790.3 4615.9800000000005 790.1199999999999 4616.37 789.8599999999999 4616.63Z " fill="#ffa000" fill-opacity="1" transform="matrix(1,0,0,1,-755,-4597)"></path></svg>