<svg id="SvgjsSvg1037" xmlns="http://www.w3.org/2000/svg" version="1.1" xmlns:xlink="http://www.w3.org/1999/xlink" xmlns:svgjs="http://svgjs.com/svgjs" width="50" height="38" viewBox="0 0 50 38"><title>Icon Purse</title><desc>Created with Avocode.</desc><defs id="SvgjsDefs1038"></defs><path id="SvgjsPath1039" d="M1123.14 4613.75L1123.14 4606.56C1123.14 4604.1 1121.3600000000001 4602.09 1119.17 4602.09L1079.97 4602C1077.78 4602 1076 4604 1076 4606.46L1076 4635.26C1076 4637.72 1077.78 4639.72 1079.97 4639.72L1119.17 4639.72C1121.3600000000001 4639.72 1123.14 4637.72 1123.14 4635.26L1123.14 4628.06L1125.5700000000002 4628.06L1125.5700000000002 4613.75ZM1114 4613.66C1110.49 4613.66 1107.69 4616.849999999999 1107.69 4620.86C1107.69 4624.87 1110.49 4628.0599999999995 1114 4628.0599999999995L1121.11 4628.0599999999995L1121.11 4632.61L1077.7199999999998 4632.61L1077.7199999999998 4609.2L1121.11 4609.2L1121.11 4613.66ZM1121.11 4635.35C1121.11 4636.81 1120.07 4638.08 1118.7199999999998 4638.08L1080.0399999999997 4638.08C1078.7599999999998 4638.08 1077.6399999999996 4636.9 1077.6399999999996 4635.35L1077.6399999999996 4634.4400000000005L1121.0299999999997 4634.4400000000005L1121.0299999999997 4635.35ZM1114.14 4626.33C1111.46 4626.33 1109.3400000000001 4623.87 1109.3400000000001 4620.95C1109.3400000000001 4617.95 1111.5400000000002 4615.58 1114.14 4615.58L1123.74 4615.58L1123.74 4626.33ZM1116.31 4624.51C1118.23 4624.51 1119.87 4622.87 1119.87 4620.95C1119.87 4618.95 1118.2299999999998 4617.4 1116.31 4617.4C1114.3999999999999 4617.4 1112.76 4618.95 1112.76 4620.95C1112.76 4622.96 1114.4 4624.51 1116.31 4624.51ZM1118.23 4620.95C1118.23 4621.95 1117.41 4622.7699999999995 1116.4 4622.7699999999995C1115.4 4622.7699999999995 1114.5800000000002 4621.95 1114.5800000000002 4620.95C1114.5800000000002 4619.95 1115.4 4619.13 1116.4 4619.13C1117.41 4619.13 1118.23 4619.95 1118.23 4620.95ZM1077.72 4607.47L1077.72 4606.56C1077.72 4605.1 1078.76 4603.820000000001 1080.1200000000001 4603.820000000001L1118.8000000000002 4603.820000000001C1120.0700000000002 4603.820000000001 1121.1900000000003 4605.01 1121.1900000000003 4606.56L1121.1900000000003 4607.47Z " fill="#ffa000" fill-opacity="1" transform="matrix(1,0,0,1,-1076,-4602)"></path></svg>