<svg id="SvgjsSvg1017" xmlns="http://www.w3.org/2000/svg" version="1.1" xmlns:xlink="http://www.w3.org/1999/xlink" xmlns:svgjs="http://svgjs.com/svgjs" width="31" height="52" viewBox="0 0 31 52"><title>Icon Mobile</title><desc>Created with Avocode.</desc><defs id="SvgjsDefs1018"></defs><path id="SvgjsPath1019" d="M471.48 4599.25C471.48 4597.46 470.02000000000004 4596 468.22 4596L444.27000000000004 4596C442.46000000000004 4596 441.00000000000006 4597.46 441.00000000000006 4599.25L441.00000000000006 4644.75C441.00000000000006 4646.54 442.46000000000004 4648 444.27000000000004 4648L468.22 4648C470.02000000000004 4648 471.48 4646.54 471.48 4644.75ZM443.18 4637.17L443.18 4606.83L469.31 4606.83L469.31 4637.17ZM444.27 4598.17L468.21999999999997 4598.17C468.82 4598.17 469.30999999999995 4598.65 469.30999999999995 4599.25L469.30999999999995 4604.67L443.17999999999995 4604.67L443.17999999999995 4599.25C443.17999999999995 4598.65 443.65999999999997 4598.17 444.2699999999999 4598.17ZM468.22 4645.83L444.27000000000004 4645.83C443.66 4645.83 443.18000000000006 4645.35 443.18000000000006 4644.75L443.18000000000006 4639.33L469.31000000000006 4639.33L469.31000000000006 4644.75C469.31000000000006 4645.35 468.82000000000005 4645.83 468.2200000000001 4645.83ZM454.06 4642.58C454.06 4643.78 455.04 4644.75 456.24 4644.75C457.44 4644.75 458.42 4643.78 458.42 4642.58C458.42 4641.39 457.44 4640.42 456.24 4640.42C455.04 4640.42 454.06 4641.39 454.06 4642.58ZM458.42 4602.5L454.06 4602.5C453.46 4602.5 452.98 4602.01 452.98 4601.42C452.98 4600.82 453.46000000000004 4600.33 454.06 4600.33L458.42 4600.33C459.02000000000004 4600.33 459.51 4600.82 459.51 4601.42C459.51 4602.01 459.02 4602.5 458.42 4602.5Z " fill="#ffa000" fill-opacity="1" transform="matrix(1,0,0,1,-441,-4596)"></path><path id="SvgjsPath1020" d="M449.79 4615.17L448.09000000000003 4615.17C447.49 4615.17 447.00000000000006 4614.68 447.00000000000006 4614.08C447.00000000000006 4613.49 447.49000000000007 4613 448.09000000000003 4613L449.79 4613C450.39000000000004 4613 450.88 4613.49 450.88 4614.08C450.88 4614.68 450.39 4615.17 449.79 4615.17Z " fill="#ffa000" fill-opacity="1" transform="matrix(1,0,0,1,-441,-4596)"></path><path id="SvgjsPath1021" d="M449.79 4620.17L448.09000000000003 4620.17C447.49 4620.17 447.00000000000006 4619.68 447.00000000000006 4619.08C447.00000000000006 4618.49 447.49000000000007 4618 448.09000000000003 4618L449.79 4618C450.39000000000004 4618 450.88 4618.49 450.88 4619.08C450.88 4619.68 450.39 4620.17 449.79 4620.17Z " fill="#ffa000" fill-opacity="1" transform="matrix(1,0,0,1,-441,-4596)"></path><path id="SvgjsPath1022" d="M449.79 4625.17L448.09000000000003 4625.17C447.49 4625.17 447.00000000000006 4624.68 447.00000000000006 4624.08C447.00000000000006 4623.49 447.49000000000007 4623 448.09000000000003 4623L449.79 4623C450.39000000000004 4623 450.88 4623.49 450.88 4624.08C450.88 4624.68 450.39 4625.17 449.79 4625.17Z " fill="#ffa000" fill-opacity="1" transform="matrix(1,0,0,1,-441,-4596)"></path><path id="SvgjsPath1023" d="M449.79 4631.17L448.09000000000003 4631.17C447.49 4631.17 447.00000000000006 4630.68 447.00000000000006 4630.08C447.00000000000006 4629.49 447.49000000000007 4629 448.09000000000003 4629L449.79 4629C450.39000000000004 4629 450.88 4629.49 450.88 4630.08C450.88 4630.68 450.39 4631.17 449.79 4631.17Z " fill="#ffa000" fill-opacity="1" transform="matrix(1,0,0,1,-441,-4596)"></path><path id="SvgjsPath1024" d="M456.79 4615.17L455.09000000000003 4615.17C454.49 4615.17 454.00000000000006 4614.68 454.00000000000006 4614.08C454.00000000000006 4613.49 454.49000000000007 4613 455.09000000000003 4613L456.79 4613C457.39000000000004 4613 457.88 4613.49 457.88 4614.08C457.88 4614.68 457.39 4615.17 456.79 4615.17Z " fill="#ffa000" fill-opacity="1" transform="matrix(1,0,0,1,-441,-4596)"></path><path id="SvgjsPath1025" d="M456.79 4620.17L455.09000000000003 4620.17C454.49 4620.17 454.00000000000006 4619.68 454.00000000000006 4619.08C454.00000000000006 4618.49 454.49000000000007 4618 455.09000000000003 4618L456.79 4618C457.39000000000004 4618 457.88 4618.49 457.88 4619.08C457.88 4619.68 457.39 4620.17 456.79 4620.17Z " fill="#ffa000" fill-opacity="1" transform="matrix(1,0,0,1,-441,-4596)"></path><path id="SvgjsPath1026" d="M456.79 4625.17L455.09000000000003 4625.17C454.49 4625.17 454.00000000000006 4624.68 454.00000000000006 4624.08C454.00000000000006 4623.49 454.49000000000007 4623 455.09000000000003 4623L456.79 4623C457.39000000000004 4623 457.88 4623.49 457.88 4624.08C457.88 4624.68 457.39 4625.17 456.79 4625.17Z " fill="#ffa000" fill-opacity="1" transform="matrix(1,0,0,1,-441,-4596)"></path><path id="SvgjsPath1027" d="M463.79 4615.17L462.09000000000003 4615.17C461.49 4615.17 461.00000000000006 4614.68 461.00000000000006 4614.08C461.00000000000006 4613.49 461.49000000000007 4613 462.09000000000003 4613L463.79 4613C464.39000000000004 4613 464.88 4613.49 464.88 4614.08C464.88 4614.68 464.39 4615.17 463.79 4615.17Z " fill="#ffa000" fill-opacity="1" transform="matrix(1,0,0,1,-441,-4596)"></path><path id="SvgjsPath1028" d="M463.79 4620.17L462.09000000000003 4620.17C461.49 4620.17 461.00000000000006 4619.68 461.00000000000006 4619.08C461.00000000000006 4618.49 461.49000000000007 4618 462.09000000000003 4618L463.79 4618C464.39000000000004 4618 464.88 4618.49 464.88 4619.08C464.88 4619.68 464.39 4620.17 463.79 4620.17Z " fill="#ffa000" fill-opacity="1" transform="matrix(1,0,0,1,-441,-4596)"></path><path id="SvgjsPath1029" d="M463.79 4625.17L462.09000000000003 4625.17C461.49 4625.17 461.00000000000006 4624.68 461.00000000000006 4624.08C461.00000000000006 4623.49 461.49000000000007 4623 462.09000000000003 4623L463.79 4623C464.39000000000004 4623 464.88 4623.49 464.88 4624.08C464.88 4624.68 464.39 4625.17 463.79 4625.17Z " fill="#ffa000" fill-opacity="1" transform="matrix(1,0,0,1,-441,-4596)"></path><path id="SvgjsPath1030" d="M463.79 4631.17L462.09000000000003 4631.17C461.49 4631.17 461.00000000000006 4630.68 461.00000000000006 4630.08C461.00000000000006 4629.49 461.49000000000007 4629 462.09000000000003 4629L463.79 4629C464.39000000000004 4629 464.88 4629.49 464.88 4630.08C464.88 4630.68 464.39 4631.17 463.79 4631.17Z " fill="#ffa000" fill-opacity="1" transform="matrix(1,0,0,1,-441,-4596)"></path></svg>