<?xml version="1.0" encoding="UTF-8"?>
<svg width="47px" height="37px" viewBox="0 0 47 37" version="1.1" xmlns="http://www.w3.org/2000/svg" xmlns:xlink="http://www.w3.org/1999/xlink">
    <!-- Generator: sketchtool 41.2 (35397) - http://www.bohemiancoding.com/sketch -->
    <title>16FF974B-2D81-49B6-861D-89FACD32BE83</title>
    <desc>Created with sketchtool.</desc>
    <defs></defs>
    <g id="Page-1" stroke="none" stroke-width="1" fill="none" fill-rule="evenodd">
        <g id="6.5.1-Список-инвестиций_пустая" transform="translate(-697.000000, -439.000000)" fill="#FFA000">
            <g id="Group-3" transform="translate(293.000000, 407.000000)">
                <g id="Group" transform="translate(377.000000, 0.000000)">
                    <path d="M72.3447326,32.0331162 C72.4278087,32.0110804 72.5141843,31.9997679 72.6016205,32.0000036 L72.6029167,32.0000036 C73.0220682,32.0012998 73.3798259,32.2629013 73.5229997,32.6316179 C73.5849827,32.7640684 73.6197451,32.91172 73.6200986,33.0676204 L73.6200986,33.0689166 C73.6203343,33.1530533 73.6100823,33.2361294 73.5901676,33.3163774 L73.6191559,67.4655015 C73.6191559,67.4655015 73.6193916,67.5814546 73.6198629,67.746782 C73.6206878,68.0456205 73.5022601,68.3324393 73.2909757,68.5437238 C73.0795734,68.7550082 72.7927545,68.873318 72.4939161,68.8724932 C72.3285887,68.8720218 72.2126356,68.8716683 72.2126356,68.8716683 L28.2753749,68.8397341 C28.1921809,68.8617699 28.1058053,68.8730824 28.0183691,68.8727288 L28.0171907,68.8727288 C27.5979214,68.8716683 27.2401637,68.609949 27.0969899,68.2412324 C27.0351247,68.1087819 27.0003624,67.9611303 27.0000088,67.8053478 L27.0000088,67.8039337 C26.9996553,67.719797 27.0099073,67.6367209 27.029822,67.5564729 L27.0009516,33.4073487 C27.0009516,33.4073487 27.000598,33.2913957 27.0001267,33.1260683 C26.9994196,32.8272298 27.1177295,32.5404109 27.3291318,32.3291265 C27.5404162,32.1178421 27.8272351,31.9995323 28.1260735,32.000475 C28.2915187,32.0009463 28.407354,32.001182 28.407354,32.001182 L72.3447326,32.0331162 Z M49.9653172,59.2038448 L55.7478878,66.8060773 L71.6341665,66.8171542 L71.6314562,63.3977167 C71.6248572,63.3911178 71.6182583,63.384401 71.6117771,63.3775664 C68.8679078,60.4636561 59.1873577,50.1834259 59.1873577,50.1834259 L49.9653172,59.2038448 Z M28.9985497,49.7304547 L29.0124546,66.787341 L53.1681675,66.8043098 L34.6367681,42.4318919 L28.9985497,49.7304547 Z M28.9960751,46.6684215 L33.9249058,40.4688205 C33.9249058,40.4688205 34.0159949,40.3971747 34.1459708,40.2950087 C34.3809407,40.1103558 34.6797792,40.0269261 34.9763786,40.0632204 C35.2729781,40.0996325 35.5429461,40.2527047 35.7263028,40.4886173 C35.8277618,40.6191824 35.8989362,40.7107429 35.8989362,40.7107429 L48.754998,57.6125537 L58.2465352,48.3192209 C58.2465352,48.3192209 58.3285508,48.2373232 58.4454466,48.1203095 C58.6566131,47.9089073 58.943432,47.7904796 59.2422705,47.7911866 C59.5411089,47.7918937 59.8273386,47.9117354 60.0375625,48.1241982 C60.153869,48.2416832 60.2354133,48.3240523 60.2354133,48.3240523 L71.6289816,60.4060331 L71.607535,34.0855093 L28.9858231,34.0556961 L28.9960751,46.6684215 Z M65.2972836,45.1763505 C62.7130855,45.1736402 60.6196846,43.0750544 60.6206273,40.4876746 C60.6214522,37.9002948 62.7162671,35.8031232 65.3005831,35.8021804 C67.8847813,35.8013556 69.9810102,37.8971132 69.9836027,40.484493 C69.9810102,43.0745831 67.8844278,45.1736402 65.2972836,45.1763505 L65.2972836,45.1763505 Z M65.2989334,43.6489279 C63.5568091,43.6471603 62.1455753,42.2323914 62.1461645,40.488146 C62.1467537,38.7440184 63.5589302,37.3301922 65.3010545,37.329603 C67.0431787,37.3290138 68.4561801,38.7418973 68.4580655,40.4860249 C68.456298,42.2321557 67.0429431,43.6471603 65.2989334,43.6489279 L65.2989334,43.6489279 Z" id="Page-1"></path>
                </g>
            </g>
        </g>
    </g>
</svg>