<svg id="SvgjsSvg1000" xmlns="http://www.w3.org/2000/svg" version="1.1" xmlns:xlink="http://www.w3.org/1999/xlink" xmlns:svgjs="http://svgjs.com/svgjs" width="220" height="231" viewBox="0 0 220 231">
  <title>Fill-3</title>
  <desc>Created with Avocode.</desc>
  <defs id="SvgjsDefs1001"></defs>
  <path id="SvgjsPath1007" d="M173.43 950.92C169.26000000000002 948.4399999999999 164.55 946.6899999999999 160.45000000000002 945.3499999999999C151.01000000000002 942.3 141.87 941.5899999999999 131.22000000000003 939.7699999999999C122.57000000000002 938.2899999999998 115.73000000000003 934.7399999999999 108.40000000000003 929.7699999999999C104.58000000000004 927.1599999999999 101.45000000000003 923.5799999999998 98.84000000000003 919.7899999999998C98.35000000000004 919.0299999999999 95.91000000000003 916.0599999999998 96.16000000000003 915.0399999999998C96.16000000000003 915.0399999999998 94.45000000000003 921.8399999999998 97.82000000000002 931.3799999999999C66.85000000000002 929.9999999999999 39.700000000000024 912.8499999999999 27.26000000000002 892.0599999999998C4.370000000000019 853.8099999999998 12.440000000000019 807.4499999999998 42.96000000000002 786.9699999999998C73.47000000000003 766.4899999999998 120.00000000000003 780.9399999999998 144.91000000000003 817.9099999999999C160.55 841.1099999999999 164.55 868.0999999999999 157.85000000000002 890.0599999999998C157.8 890.2299999999998 157.74 890.3899999999999 157.69000000000003 890.5599999999998C144.45000000000002 880.9499999999998 132.36 885.8499999999998 132.36 885.8499999999998C145.63000000000002 884.4799999999998 156.11 895.0199999999998 156.11 895.0199999999998C157.65 896.3899999999998 159.14000000000001 897.8999999999997 160.48000000000002 899.5799999999997C160.78000000000003 899.9899999999997 161.09000000000003 900.4099999999997 161.39000000000001 900.8499999999997C164.87 905.5599999999997 167.03 910.7899999999997 167.95000000000002 916.0999999999997C194.29000000000002 882.7499999999997 198.64000000000001 836.5499999999997 175.33 800.6699999999996C145.65 754.9299999999996 82.36000000000001 743.2599999999996 34.01000000000002 774.5499999999996C-14.359999999999978 805.8699999999997 -29.48999999999998 868.2899999999996 0.21000000000002217 914.0099999999996C24.600000000000023 951.6399999999996 81.82000000000002 963.1099999999997 114.63000000000002 952.7399999999997C127.03000000000003 948.8499999999997 169.49 945.1399999999996 199.05 980.0099999999996C199.05 980.0099999999996 201.61 982.9199999999996 203 986.2399999999997C203 986.2399999999997 203.4 987.4099999999996 204.5 986.8499999999997C204.79 986.6899999999997 205.61 985.7499999999997 202.81 980.1199999999997C196.55 967.4099999999996 185.45 958.0799999999997 173.43 950.9199999999996ZM141.85 918.33C141.78 918.33 141.73 918.3100000000001 141.69 918.2900000000001C141.60999999999999 918.2600000000001 141.55 918.2300000000001 141.48 918.21C141.44 918.21 141.38 918.21 141.35999999999999 918.19C141.24999999999997 918.1600000000001 141.14999999999998 918.1300000000001 141.02999999999997 918.09C139.65999999999997 917.85 138.29999999999998 918.0600000000001 137.16999999999996 918.7900000000001C134.59999999999997 920.5300000000001 134.20999999999995 924.47 136.30999999999995 927.6C137.28999999999994 929.02 138.59999999999994 930.01 140.01999999999995 930.5500000000001C140.03999999999996 930.5500000000001 140.06999999999996 930.5500000000001 140.12999999999997 930.58C140.16999999999996 930.59 140.22999999999996 930.63 140.26999999999995 930.63C140.33999999999995 930.66 140.40999999999994 930.66 140.46999999999994 930.68C140.52999999999994 930.68 140.54999999999995 930.7099999999999 140.59999999999994 930.7199999999999C140.70999999999995 930.7499999999999 140.79999999999993 930.79 140.90999999999994 930.8C142.27999999999994 931.0699999999999 143.63999999999993 930.87 144.77999999999994 930.1099999999999C147.36999999999995 928.3699999999999 147.75999999999993 924.4499999999999 145.64999999999995 921.3199999999999C144.67999999999995 919.89 143.35999999999996 918.8799999999999 141.93999999999994 918.3799999999999C141.90999999999994 918.3599999999999 141.87999999999994 918.3599999999999 141.84999999999994 918.3299999999999ZM159.09 911.16C161.31 912.02 162.59 915.55 162.96 917.24C163.83 921.14 162.47 922.75 161.32000000000002 922.05C160.12000000000003 921.4599999999999 158.48000000000002 918.4799999999999 157.27 914.5699999999999C156.73000000000002 912.91 156.92000000000002 910.3499999999999 159.09 911.16Z " fill="#ffa000" fill-opacity="0.3" transform="matrix(1,0,0,1,15,-757)"></path>
</svg>