<svg id="SvgjsSvg1009" xmlns="http://www.w3.org/2000/svg" version="1.1" xmlns:xlink="http://www.w3.org/1999/xlink" xmlns:svgjs="http://svgjs.com/svgjs" width="280" height="8" viewBox="0 0 280 8"><title>Group 7</title><desc>Created with Avocode.</desc><defs id="SvgjsDefs1010"></defs><path id="SvgjsPath1011" d="M707 2493C707 2490.79086 708.79086 2489 711 2489L983 2489C985.20914 2489 987 2490.79086 987 2493L987 2493C987 2495.20914 985.20914 2497 983 2497L711 2497C708.79086 2497 707 2495.20914 707 2493Z " fill="#e6e6e6" fill-opacity="1" transform="matrix(1,0,0,1,-707,-2489)"></path><path id="SvgjsPath1012" d="M707 2493C707 2490.79086 708.79086 2489 711 2489L951 2489C953.20914 2489 955 2490.79086 955 2493L955 2493C955 2495.20914 953.20914 2497 951 2497L711 2497C708.79086 2497 707 2495.20914 707 2493Z " fill="#ffa000" fill-opacity="1" transform="matrix(1,0,0,1,-707,-2489)"></path></svg>