<svg id="SvgjsSvg1000" xmlns="http://www.w3.org/2000/svg" version="1.1" xmlns:xlink="http://www.w3.org/1999/xlink" xmlns:svgjs="http://svgjs.com/svgjs" width="102" height="43" viewBox="0 0 102 43"><title>Fill-1</title><desc>Created with Avocode.</desc><defs id="SvgjsDefs1001"></defs><path id="SvgjsPath1007" d="M231.08 1618.41C231.37 1618.41 231.59 1618.41 231.59 1618.74C231.59 1618.84 231.57 1618.95 231.52 1619.2L226.83 1635.82C226.70000000000002 1636.23 226.62 1636.32 226.27 1636.32H225.01000000000002C224.76000000000002 1636.3 224.68 1636.23 224.56000000000003 1635.84L220.91000000000003 1625.01L217.50000000000003 1635.82C217.37000000000003 1636.2 217.32000000000002 1636.28 217.07000000000002 1636.3C216.99 1636.32 216.3 1636.32 215.93000000000004 1636.32C215.47000000000003 1636.32 215.33000000000004 1636.25 215.21000000000004 1635.84L210.44000000000003 1619.1999999999998C210.36 1618.9199999999998 210.36 1618.8899999999999 210.36 1618.7899999999997C210.36 1618.4899999999998 210.60000000000002 1618.4099999999996 210.85000000000002 1618.4099999999996H213.24C213.67000000000002 1618.4099999999996 213.78 1618.4299999999996 213.91 1618.9699999999996L216.84 1630.5399999999995L220.41 1618.9199999999996C220.53 1618.5599999999997 220.57999999999998 1618.4099999999996 220.85999999999999 1618.4099999999996H221.83999999999997C222.00999999999996 1618.4699999999996 222.02999999999997 1618.5099999999995 222.18999999999997 1618.9899999999996L225.80999999999997 1630.5399999999995L228.75999999999996 1618.9199999999996C228.85999999999996 1618.5099999999995 228.99999999999997 1618.4099999999996 229.34999999999997 1618.4099999999996ZM192.1 1634.63C193.35 1634.63 194.73 1633.96 195.64 1632.3700000000001C196.51 1630.8200000000002 196.66 1628.68 196.64 1627.19C196.64 1625.97 196.48 1623.72 195.42 1622.06C194.26999999999998 1620.29 192.70999999999998 1620.1399999999999 192.13 1620.1399999999999C190.9 1620.1399999999999 189.57999999999998 1620.8 188.71 1622.1399999999999C187.82000000000002 1623.57 187.59 1625.59 187.59 1627.29C187.59 1628.86 187.8 1630.97 188.71 1632.52C189.99 1634.6299999999999 191.77 1634.6299999999999 192.1 1634.6299999999999ZM200.1 1640.77C200.73999999999998 1640.92 201.12 1641.02 201.12 1641.58C201.12 1641.86 200.94 1642.32 200.23000000000002 1642.32C199.72000000000003 1642.32 193.04000000000002 1641.55 190.96 1636.6499999999999C185.91 1635.84 184 1631.61 184 1627.4899999999998C184 1621.1999999999998 187.72 1617.9999999999998 192.15 1617.9999999999998C196.96 1617.9999999999998 200.23000000000002 1621.8099999999997 200.23000000000002 1627.2899999999997C200.23000000000002 1630.3099999999997 199.13000000000002 1634.6999999999998 194.58 1636.3999999999996C195.42000000000002 1639.2699999999995 198.57000000000002 1640.3599999999997 200.10000000000002 1640.7699999999995ZM206.55 1618.41C206.93 1618.41 207.08 1618.49 207.08 1618.95V1635.76C207.08 1636.25 206.86 1636.32 206.53 1636.32H204.15C203.8 1636.3 203.6 1636.23 203.6 1635.76V1618.95C203.62 1618.5900000000001 203.67 1618.41 204.13 1618.41ZM235.43 1618.41C234.97 1618.41 234.92000000000002 1618.5900000000001 234.9 1618.95V1635.76C234.9 1636.23 235.1 1636.3 235.46 1636.32H237.83C238.16000000000003 1636.32 238.39000000000001 1636.25 238.39000000000001 1635.76V1618.95C238.39000000000001 1618.49 238.23000000000002 1618.41 237.86 1618.41Z " fill="#0023a0" fill-opacity="1" transform="matrix(1,0,0,1,-137,-1608)"></path><path id="SvgjsPath1008" d="M173.1 1644.02C172.32 1643.56 171.44 1643.24 170.68 1642.99C168.92000000000002 1642.42 167.22 1642.29 165.24 1641.95C163.62 1641.68 162.35000000000002 1641.02 160.98000000000002 1640.0900000000001C160.27 1639.6100000000001 159.69000000000003 1638.94 159.20000000000002 1638.2400000000002C159.11 1638.1000000000001 158.66000000000003 1637.5500000000002 158.70000000000002 1637.3600000000001C158.70000000000002 1637.3600000000001 158.39000000000001 1638.6200000000001 159.01000000000002 1640.39C153.25000000000003 1640.14 148.19000000000003 1636.95 145.87 1633.0900000000001C141.61 1625.9800000000002 143.11 1617.3700000000001 148.8 1613.5700000000002C154.48000000000002 1609.7600000000002 163.15 1612.4500000000003 167.78 1619.3100000000002C170.7 1623.6200000000001 171.44 1628.64 170.19 1632.7200000000003C170.19 1632.7500000000002 170.17 1632.7800000000002 170.16 1632.8100000000002C167.7 1631.0200000000002 165.45 1631.93 165.45 1631.93C167.92 1631.68 169.86999999999998 1633.64 169.86999999999998 1633.64C170.15999999999997 1633.89 170.42999999999998 1634.17 170.67999999999998 1634.49C170.73999999999998 1634.56 170.79999999999998 1634.64 170.84999999999997 1634.72C171.49999999999997 1635.6000000000001 171.89999999999998 1636.57 172.07999999999996 1637.55C176.97999999999996 1631.36 177.78999999999996 1622.78 173.44999999999996 1616.11C167.91999999999996 1607.62 156.12999999999997 1605.4499999999998 147.12999999999997 1611.26C138.11999999999998 1617.08 135.29999999999995 1628.67 140.82999999999996 1637.17C145.37999999999997 1644.15 156.02999999999994 1646.29 162.13999999999996 1644.3600000000001C164.44999999999996 1643.64 172.35999999999996 1642.95 177.86999999999995 1649.42C177.86999999999995 1649.42 178.33999999999995 1649.97 178.59999999999994 1650.5800000000002C178.59999999999994 1650.5800000000002 178.67999999999995 1650.8000000000002 178.87999999999994 1650.69C178.93999999999994 1650.67 179.08999999999995 1650.49 178.56999999999994 1649.45C177.39999999999995 1647.0800000000002 175.33999999999995 1645.3500000000001 173.09999999999994 1644.02ZM167.21 1637.97C167.20000000000002 1637.97 167.19 1637.96 167.18 1637.96C167.17000000000002 1637.95 167.16 1637.95 167.15 1637.95C167.14000000000001 1637.95 167.13 1637.95 167.12 1637.94C167.1 1637.94 167.08 1637.93 167.06 1637.92C166.81 1637.88 166.55 1637.92 166.34 1638.0500000000002C165.86 1638.38 165.79 1639.1100000000001 166.18 1639.6900000000003C166.37 1639.9500000000003 166.61 1640.1400000000003 166.87 1640.2400000000002C166.88 1640.2400000000002 166.88 1640.2400000000002 166.89000000000001 1640.2400000000002C166.9 1640.2500000000002 166.91000000000003 1640.2500000000002 166.92000000000002 1640.2500000000002C166.93 1640.2600000000002 166.95000000000002 1640.2600000000002 166.96 1640.2600000000002C166.97 1640.2600000000002 166.97 1640.2700000000002 166.98000000000002 1640.2700000000002C167.00000000000003 1640.2700000000002 167.02 1640.2800000000002 167.04000000000002 1640.2800000000002C167.29000000000002 1640.3300000000002 167.55 1640.3000000000002 167.76000000000002 1640.1600000000003C168.24 1639.8300000000004 168.31000000000003 1639.1000000000004 167.92000000000002 1638.5200000000002C167.74 1638.2600000000002 167.50000000000003 1638.0700000000002 167.23000000000002 1637.9800000000002C167.23000000000002 1637.9700000000003 167.22000000000003 1637.9700000000003 167.21 1637.9700000000003ZM170.43 1636.64C170.84 1636.7900000000002 171.08 1637.45 171.15 1637.7700000000002C171.31 1638.4900000000002 171.06 1638.7900000000002 170.84 1638.6600000000003C170.62 1638.5500000000004 170.31 1637.9900000000002 170.09 1637.2700000000002C169.99 1636.9600000000003 170.02 1636.4900000000002 170.43 1636.64Z " fill="#ffa000" fill-opacity="1" transform="matrix(1,0,0,1,-137,-1608)"></path></svg>