<svg id="SvgjsSvg1009" xmlns="http://www.w3.org/2000/svg" version="1.1" xmlns:xlink="http://www.w3.org/1999/xlink" xmlns:svgjs="http://svgjs.com/svgjs" width="85" height="14" viewBox="0 0 85 14"><title>Shape</title><desc>Created with Avocode.</desc><defs id="SvgjsDefs1010"></defs><path id="SvgjsPath1011" d="M215.74 324.48L215.73000000000002 322.27000000000004C212.45000000000002 322.25000000000006 210.00000000000003 324.1 210.00000000000003 324.1C210.00000000000003 324.1 210.39000000000001 320.02000000000004 215.74000000000004 319.01000000000005V317.00000000000006L219.88000000000002 320.74000000000007L217.87000000000003 322.56000000000006Z " fill="#ffffff" fill-opacity="1" transform="matrix(1,0,0,1,-210,-311)"></path><path id="SvgjsPath1012" d="M278.99 317.74C279.95 317.74 280.29 318.26 280.29 318.92V321.31C280.29 321.97 279.95000000000005 322.5 278.99 322.5C278.03000000000003 322.5 277.7 321.97 277.7 321.31V318.92C277.7 318.26 278.03 317.74 278.99 317.74ZM289.59 320L292.41999999999996 315.5H289.34999999999997L286.76 319.62V311.24L283.93 311.71000000000004V324.73H286.76V320.39000000000004L289.34999999999997 324.73H292.41999999999996ZM283.12 319.18C283.12 317.24 282.32 315.37 279 315.37C275.68 315.37 274.87 317.24 274.87 319.18V321.04C274.87 322.97 275.68 324.84000000000003 279 324.84000000000003C282.32 324.84000000000003 283.12 322.97 283.12 321.04ZM274.06 319.18C274.06 317.24 273.26 315.37 269.94 315.37C266.61 315.37 265.8 317.24 265.8 319.18V321.04C265.8 322.97 266.61 324.84000000000003 269.94 324.84000000000003C273.26 324.84000000000003 274.06 322.97 274.06 321.04ZM264.99 318.68C264.99 316.64 264.52 315.37 261.69 315.37C260.96999999999997 315.37 260.18 315.48 259.57 315.71V311.23999999999995L256.74 311.71V324.5C258.28000000000003 324.73 259.1 324.86 260.49 324.86C264.35 324.86 264.99 323.23 264.99 320.99ZM255.79 319.05C255.79 317.01 254.9 315.37 251.78 315.37C248.67 315.37 247.77 317.03000000000003 247.77 319.05V320.95C247.77 323.26 248.98000000000002 324.86 252.02 324.86C253.41 324.86 254.14000000000001 324.79 255.55 324.5V322.19C254.09 322.44 253.39000000000001 322.5 252.25 322.5C250.99 322.5 250.6 322.22 250.6 321.14V320.95H255.79ZM246.94 315.73C245.65 315.44 244.81 315.37 244.1 315.37C241.07 315.37 239.85999999999999 316.97 239.85999999999999 319.29V320.95000000000005C239.85999999999999 323.26000000000005 241.07 324.86000000000007 244.1 324.86000000000007C244.81 324.86000000000007 245.65 324.7900000000001 246.94 324.50000000000006V322.19000000000005C245.47 322.44000000000005 245.05 322.50000000000006 244.34 322.50000000000006C243.07 322.50000000000006 242.69 322.2200000000001 242.69 321.14000000000004V319.09000000000003C242.69 318.01000000000005 243.07 317.73 244.34 317.73C245.05 317.73 245.47 317.79 246.94 318.04ZM238.92 319.13C238.92 316.53 238.2 315.5 234.95999999999998 315.5H232.30999999999997L232.06999999999996 317.87H234.48999999999995C235.96999999999994 317.87 236.07999999999996 318.15 236.07999999999996 319.12V319.52H234.12999999999997C232.20999999999998 319.52 231.12999999999997 320.2 231.12999999999997 322.09C231.12999999999997 323.69 232.04999999999995 324.84999999999997 233.77999999999997 324.84999999999997C234.41999999999996 324.84999999999997 235.37999999999997 324.74999999999994 236.44999999999996 324.15L236.55999999999997 324.75H238.92ZM229.24 317.87H231.13L231.38 315.5H229.24L229.25 314.32C229.25 313.7 229.31 313.37 230.19 313.37H231.37V311H229.48000000000002C227.21 311 226.41000000000003 312.15 226.41000000000003 314.08V315.5H225.00000000000003V317.87H226.41000000000003V324.73H229.24000000000004ZM269.93 317.74C270.89 317.74 271.23 318.26 271.23 318.92V321.31C271.23 321.97 270.89000000000004 322.5 269.93 322.5C268.97 322.5 268.63 321.97 268.63 321.31V318.92C268.63 318.26 268.96999999999997 317.74 269.93 317.74ZM233.96 322.05C233.96 321.53000000000003 234.22 321.42 234.82000000000002 321.42H236.08V322.46000000000004C235.66000000000003 322.65000000000003 235.32000000000002 322.84000000000003 234.74 322.84000000000003C234.21 322.84000000000003 233.96 322.57000000000005 233.96 322.05ZM251.78 317.5C252.74 317.5 252.96 318.03 252.96 318.68V319.05H250.6V318.68C250.6 318.03000000000003 250.82 317.5 251.78 317.5ZM260.98 317.74C261.94 317.74 262.16 318.26 262.16 318.92V321.01C262.16 321.9 261.97 322.53 260.59000000000003 322.53C260.20000000000005 322.53 259.97 322.53 259.57000000000005 322.48999999999995V318.11999999999995C259.99000000000007 317.92999999999995 260.40000000000003 317.73999999999995 260.9800000000001 317.73999999999995Z " fill="#ffffff" fill-opacity="1" transform="matrix(1,0,0,1,-210,-311)"></path><path id="SvgjsPath1013" d="M293.7 323.84H293.81C293.94 323.84 294.05 323.79999999999995 294.05 323.67999999999995C294.05 323.59 293.99 323.50999999999993 293.81 323.50999999999993C293.76 323.50999999999993 293.73 323.50999999999993 293.7 323.50999999999993ZM293.7 324.39H293.55V323.40999999999997C293.63 323.4 293.71000000000004 323.39 293.82 323.39C293.96999999999997 323.39 294.07 323.41999999999996 294.12 323.46C294.18 323.5 294.21 323.57 294.21 323.65999999999997C294.21 323.78999999999996 294.13 323.86999999999995 294.02 323.9V323.90999999999997C294.10999999999996 323.91999999999996 294.16999999999996 323.99999999999994 294.19 324.14C294.21 324.3 294.23 324.34999999999997 294.25 324.39H294.09C294.06 324.34999999999997 294.03999999999996 324.27 294.02 324.14C294 324.01 293.93 323.96999999999997 293.81 323.96999999999997H293.7ZM293.86 323.14C293.48 323.14 293.17 323.46999999999997 293.17 323.88C293.17 324.29 293.48 324.62 293.87 324.62C294.26 324.62 294.57 324.29 294.57 323.88C294.57 323.46999999999997 294.26 323.14 293.87 323.14ZM293.87 323C294.35 323 294.72 323.39 294.72 323.88C294.72 324.37 294.35 324.76 293.86 324.76C293.39 324.76 293 324.37 293 323.88C293 323.39 293.39 323 293.86 323Z " fill="#ffffff" fill-opacity="1" transform="matrix(1,0,0,1,-210,-311)"></path></svg>