<svg id="SvgjsSvg1021" xmlns="http://www.w3.org/2000/svg" version="1.1" xmlns:xlink="http://www.w3.org/1999/xlink" xmlns:svgjs="http://svgjs.com/svgjs" width="280" height="8" viewBox="0 0 280 8"><title>Rectangle 44</title><desc>Created with Avocode.</desc><defs id="SvgjsDefs1022"></defs><path id="SvgjsPath1023" d="M854 9854C854 9851.79086 855.79086 9850 858 9850H1110C1112.20914 9850 1114 9851.79086 1114 9854V9854C1114 9856.20914 1112.20914 9858 1110 9858H858C855.79086 9858 854 9856.20914 854 9854Z " fill="#e6e6e6" fill-opacity="1" transform="matrix(1,0,0,1,-834,-9850)"></path><path id="SvgjsPath1024" d="M834 9854C834 9851.79086 835.79086 9850 838 9850H1070C1072.20914 9850 1074 9851.79086 1074 9854V9854C1074 9856.20914 1072.20914 9858 1070 9858H838C835.79086 9858 834 9856.20914 834 9854Z " fill="#ffa000" fill-opacity="1" transform="matrix(1,0,0,1,-834,-9850)"></path></svg>