<svg id="SvgjsSvg1017" xmlns="http://www.w3.org/2000/svg" version="1.1" xmlns:xlink="http://www.w3.org/1999/xlink" xmlns:svgjs="http://svgjs.com/svgjs" width="24.965714285714284" height="23.3125" viewBox="0 0 24.965714285714284 23.3125"><title>Fill 2 Copy 7</title><desc>Created with Avocode.</desc><defs id="SvgjsDefs1018"></defs><path id="SvgjsPath1019" d="M271.69 360.5L263.84 359.35L260.32 352.19C260.2 351.94 259.8 351.94 259.68 352.19L256.16 359.35L248.31000000000003 360.5C248.17000000000004 360.52 248.06000000000003 360.62 248.02000000000004 360.75C247.98000000000005 360.88 248.01000000000005 361.03 248.11000000000004 361.12L253.79000000000005 366.7L252.45000000000005 374.57C252.43000000000004 374.71 252.48000000000005 374.84999999999997 252.59000000000003 374.93C252.71000000000004 375.01 252.85000000000002 375.02 252.98000000000002 374.96L260 371.23999999999995L267.02 374.96C267.08 374.98999999999995 267.14 375 267.19 375C267.27 375 267.34 374.98 267.41 374.93C267.52000000000004 374.85 267.57000000000005 374.71 267.55 374.57L266.21000000000004 366.7L271.89000000000004 361.12C271.99000000000007 361.03000000000003 272.02000000000004 360.88 271.98 360.75C271.94 360.62 271.83000000000004 360.52 271.69 360.5Z " fill-opacity="1" fill="#FF9F00" stroke-dasharray="0" stroke-linejoin="miter" stroke-linecap="butt" stroke-opacity="1" stroke="#FF9F00" stroke-miterlimit="50" stroke-width="1" transform="matrix(1,0,0,1,-247.51714285714286,-351.84375)"></path></svg>