<svg id="SvgjsSvg1028" xmlns="http://www.w3.org/2000/svg" version="1.1" xmlns:xlink="http://www.w3.org/1999/xlink" xmlns:svgjs="http://svgjs.com/svgjs" width="31" height="31" viewBox="0 0 31 31"><title>base</title><desc>Created with Avocode.</desc><defs id="SvgjsDefs1029"></defs><path id="SvgjsPath1030" d="M158 700C158 691.71573 164.71573 685 173 685C181.28427 685 188 691.71573 188 700C188 708.28427 181.28427 715 173 715C164.71573 715 158 708.28427 158 700Z " fill-opacity="0" fill="#ffffff" stroke-dasharray="0" stroke-linejoin="miter" stroke-linecap="butt" stroke-opacity="1" stroke="#ffa000" stroke-miterlimit="50" stroke-width="1" transform="matrix(1,0,0,1,-157.5,-684.5)"></path><path id="SvgjsPath1031" d="M177.74 697.72C177.70000000000002 698.65 177.42000000000002 699.5600000000001 177 700.39C175.75 702.8 173.36 704.13 170.6 703.99C169.31 703.92 168.04999999999998 703.49 167 702.76C167.18 702.79 167.37 702.81 167.56 702.8199999999999C168.64000000000001 702.8699999999999 169.7 702.5799999999999 170.57 701.9699999999999C169.57 701.91 168.7 701.1999999999999 168.43 700.2499999999999C168.58 700.2799999999999 168.73000000000002 700.3099999999998 168.88 700.3099999999998C169.09 700.3199999999998 169.31 700.3099999999998 169.51999999999998 700.2599999999999C168.42 699.9799999999999 167.64 698.9899999999999 167.73 697.8899999999999V697.8599999999999C168.04999999999998 698.05 168.41 698.1699999999998 168.79999999999998 698.2099999999999C168.14999999999998 697.7299999999999 167.79 696.9899999999999 167.82999999999998 696.2199999999999C167.85999999999999 695.8 167.98 695.3999999999999 168.20999999999998 695.06C169.35999999999999 696.5699999999999 171.09999999999997 697.54 172.99999999999997 697.7399999999999C172.96999999999997 697.5699999999999 172.95999999999998 697.3899999999999 172.96999999999997 697.2099999999999C173.03999999999996 695.92 174.16999999999996 694.9399999999999 175.48999999999998 694.9999999999999C176.14 695.0399999999998 176.76 695.3299999999999 177.17999999999998 695.8299999999999C177.73 695.7499999999999 178.24999999999997 695.5899999999999 178.73 695.3499999999999C178.51999999999998 695.8599999999999 178.11999999999998 696.31 177.60999999999999 696.5699999999999C178.08999999999997 696.55 178.54999999999998 696.4399999999999 178.99999999999997 696.27C178.65999999999997 696.72 178.22999999999996 697.11 177.74999999999997 697.41C177.75999999999996 697.52 177.74999999999997 697.62 177.73999999999998 697.7199999999999Z " fill="#ffa000" fill-opacity="1" transform="matrix(1,0,0,1,-157.5,-684.5)"></path></svg>