<svg id="SvgjsSvg1024" xmlns="http://www.w3.org/2000/svg" version="1.1" xmlns:xlink="http://www.w3.org/1999/xlink" xmlns:svgjs="http://svgjs.com/svgjs" width="31" height="31" viewBox="0 0 31 31"><title>base</title><desc>Created with Avocode.</desc><defs id="SvgjsDefs1025"></defs><path id="SvgjsPath1026" d="M50 700C50 691.71573 56.71573 685 65 685C73.28426999999999 685 80 691.71573 80 700C80 708.28427 73.28427 715 65 715C56.71573 715 50 708.28427 50 700Z " fill-opacity="0" fill="#ffffff" stroke-dasharray="0" stroke-linejoin="miter" stroke-linecap="butt" stroke-opacity="1" stroke="#ffffff" stroke-miterlimit="50" stroke-width="1" transform="matrix(1,0,0,1,-49.5,-684.5)"></path><path id="SvgjsPath1027" d="M69 696.01L67.51 696.03C67.51 696.03 65.99000000000001 695.8199999999999 65.99000000000001 697.1999999999999C66.27000000000001 696.7599999999999 65.99000000000001 697.9999999999999 65.99000000000001 697.9999999999999H68.24000000000001V700.3999999999999H65.99000000000001V705.9999999999999H63.75000000000001V700.3999999999999H63.00000000000001V697.9999999999999H63.75000000000001C63.75000000000001 697.9999999999999 64.08000000000001 696.9499999999999 63.75000000000001 697.1999999999999C64.08000000000001 695.3399999999999 64.83000000000001 693.9999999999999 66.74000000000001 693.9999999999999C67.27000000000001 693.9999999999999 68.38000000000001 694.0299999999999 68.98 693.9999999999999C68.98 694.2399999999999 69 696.0099999999999 69 696.0099999999999Z " fill="#ffffff" fill-opacity="1" transform="matrix(1,0,0,1,-49.5,-684.5)"></path></svg>