<svg id="SvgjsSvg1017" xmlns="http://www.w3.org/2000/svg" version="1.1" xmlns:xlink="http://www.w3.org/1999/xlink" xmlns:svgjs="http://svgjs.com/svgjs" width="280" height="8" viewBox="0 0 280 8"><title>Rectangle 44</title><desc>Created with Avocode.</desc><defs id="SvgjsDefs1018"></defs><path id="SvgjsPath1019" d="M514 9854C514 9851.79086 515.79086 9850 518 9850H770C772.20914 9850 774 9851.79086 774 9854V9854C774 9856.20914 772.20914 9858 770 9858H518C515.79086 9858 514 9856.20914 514 9854Z " fill="#e6e6e6" fill-opacity="1" transform="matrix(1,0,0,1,-494,-9850)"></path><path id="SvgjsPath1020" d="M494 9854C494 9851.79086 495.79086 9850 498 9850H750C752.20914 9850 754 9851.79086 754 9854V9854C754 9856.20914 752.20914 9858 750 9858H498C495.79086 9858 494 9856.20914 494 9854Z " fill="#ffa000" fill-opacity="1" transform="matrix(1,0,0,1,-494,-9850)"></path></svg>