<svg id="SvgjsSvg1013" xmlns="http://www.w3.org/2000/svg" version="1.1" xmlns:xlink="http://www.w3.org/1999/xlink" xmlns:svgjs="http://svgjs.com/svgjs" width="280" height="8" viewBox="0 0 280 8"><title>Rectangle 44</title><desc>Created with Avocode.</desc><defs id="SvgjsDefs1014"></defs><path id="SvgjsPath1015" d="M174 9854C174 9851.79086 175.79086 9850 178 9850H430C432.20914 9850 434 9851.79086 434 9854V9854C434 9856.20914 432.20914 9858 430 9858H178C175.79086 9858 174 9856.20914 174 9854Z " fill="#e6e6e6" fill-opacity="1" transform="matrix(1,0,0,1,-154,-9850)"></path><path id="SvgjsPath1016" d="M154 9854C154 9851.79086 155.79086 9850 158 9850H270C272.20914 9850 274 9851.79086 274 9854V9854C274 9856.20914 272.20914 9858 270 9858H158C155.79086 9858 154 9856.20914 154 9854Z " fill="#ffa000" fill-opacity="1" transform="matrix(1,0,0,1,-154,-9850)"></path></svg>