<svg id="SvgjsSvg1000" xmlns="http://www.w3.org/2000/svg" version="1.1" xmlns:xlink="http://www.w3.org/1999/xlink" xmlns:svgjs="http://svgjs.com/svgjs" width="88" height="20" viewBox="0 0 88 20"><title>Shape</title><desc>Created with Avocode.</desc><defs id="SvgjsDefs1001"></defs><path id="SvgjsPath1007" d="M40.74 324.48L40.730000000000004 322.27000000000004C37.45 322.25000000000006 35 324.1 35 324.1C35 324.1 35.39 320.02000000000004 40.74 319.01000000000005V317.00000000000006L44.88 320.74000000000007L42.870000000000005 322.56000000000006Z " fill="#ffffff" fill-opacity="1" transform="matrix(1,0,0,1,-35,-311)"></path><path id="SvgjsPath1008" d="M83.41 320.37C83.34 322.6 82.34 323.51 81.59 323.37C80.69 323.2 80.4 322.02 80.54 319.88C80.67 317.95 81.37 316.9 82.15 316.9C83.38000000000001 316.89 83.54 319.03999999999996 83.41000000000001 320.37ZM56.62 311.57C56.519999999999996 311.25 55.57 311 55.279999999999994 311C53.379999999999995 311 50.99999999999999 314.11 50.99999999999999 316.57C50.99999999999999 317.62 51.839999999999996 318.68 52.68999999999999 319.03C53.029999999999994 319.16999999999996 53.26999999999999 319.16999999999996 53.35999999999999 319.04999999999995C53.43999999999999 318.93999999999994 53.39999999999999 318.71999999999997 53.18999999999999 318.41999999999996C52.82999999999999 317.89 52.69999999999999 316.9 52.68999999999999 316.33C52.65999999999999 315.13 53.49999999999999 313 54.43999999999999 312.28999999999996C54.51999999999999 312.21999999999997 54.66999999999999 312.11999999999995 54.66999999999999 312.31999999999994C54.66999999999999 315.8999999999999 54.66999999999999 319.4699999999999 54.66999999999999 323.04999999999995C54.66999999999999 323.60999999999996 54.52999999999999 324.43999999999994 54.41999999999999 325.06999999999994C54.37999999999999 325.2699999999999 53.95999999999999 326.31999999999994 54.29999999999999 326.31999999999994C54.60999999999999 326.31999999999994 55.26999999999999 325.86999999999995 55.49999999999999 325.62999999999994C55.959999999999994 325.1499999999999 56.279999999999994 324.50999999999993 56.459999999999994 323.85999999999996C56.56999999999999 323.46 56.61999999999999 322.53999999999996 56.61999999999999 322.15ZM118.67 319.04C118.67 319.62 118.66 320.21000000000004 118.7 320.79C118.74000000000001 321.48 118.81 322.16 118.96000000000001 322.67C119.03 322.92 119.12 323.14000000000004 119.22000000000001 323.34000000000003C119.57000000000001 324.01000000000005 120.19000000000001 324.53000000000003 120.99000000000001 324.53000000000003C121.94000000000001 324.53000000000003 122.54 323.82000000000005 122.78000000000002 322.99C122.84000000000002 322.79 122.90000000000002 322.6 122.93000000000002 322.39C122.97000000000003 322.16999999999996 123.07000000000002 321.49 122.90000000000002 321.34C122.74000000000002 321.19 122.46000000000002 321.22999999999996 122.40000000000002 321.46999999999997C122.33000000000003 321.71999999999997 122.24000000000002 322.14 122.15000000000002 322.41999999999996C122.00000000000001 322.91999999999996 121.77000000000002 323.39 121.37000000000002 323.39C120.65000000000002 323.39 120.48000000000002 322.01 120.45000000000002 321.57C120.41000000000001 321.01 120.40000000000002 320.39 120.39000000000001 319.9C120.39000000000001 319.01 120.39000000000001 318.15 120.46000000000001 317.26C120.48 317.03999999999996 120.51 316.87 120.45 316.65C120.41 316.46999999999997 120.29 316.31 120.15 316.2C119.83000000000001 315.96 118.99000000000001 315.67 118.67 315.67C118.49 315.67 118.33 315.74 118.21000000000001 315.86C118.08000000000001 315.98 117.99000000000001 316.21000000000004 117.92 316.37C117.76 316.76 117.61 317.12 117.49 317.45C117.33999999999999 317.87 117.14 318.53 116.97 319.17C116.86 319.61 116.78 320.01 116.71 320.45C116.69999999999999 320.51 116.69999999999999 320.53 116.69 320.59L116.67999999999999 320.65C116.66 320.69 116.61999999999999 320.67999999999995 116.61 320.64C116.6 320.59 116.6 320.53999999999996 116.59 320.49C116.5 319.47 116.41 318.41 116.44 317.38C116.44 317.12 116.45 316.81 116.39999999999999 316.61C116.35999999999999 316.45 116.27 316.3 116.16 316.18C115.89 315.89 115.42999999999999 315.75 115.06 315.7C114.88 315.68 114.66 315.64 114.49000000000001 315.72999999999996C114.34 315.81999999999994 114.21000000000001 316.06999999999994 114.14000000000001 316.21C113.67000000000002 317.14 113.29000000000002 318.39 112.95000000000002 319.41999999999996L112.96000000000002 316.42999999999995C112.96000000000002 316.36999999999995 112.96000000000002 316.24999999999994 112.95000000000002 316.17999999999995C112.92000000000002 316.09999999999997 112.87000000000002 316.0199999999999 112.80000000000001 315.96999999999997C112.78000000000002 315.95 112.69000000000001 315.90999999999997 112.62 315.89C112.31 315.8 112.02000000000001 315.74 111.7 315.7C111.63000000000001 315.69 111.52 315.67 111.45 315.67C111.33 315.67 111.24000000000001 315.74 111.19 315.83000000000004C111.09 316.02000000000004 111.1 319.40000000000003 111.11 320.79C111.06 321.17 110.99 321.66 110.85 322.13C110.72 322.52 110.32 323.33 109.83999999999999 323.43C109.32999999999998 323.53000000000003 109.03999999999999 323.01 108.91999999999999 322.2C108.77999999999999 320.88 108.83999999999999 318.4 108.91999999999999 317.01C108.96 316.33 109.08999999999999 316.07 108.36999999999999 315.89C107.86999999999999 315.77 107.57999999999998 315.75 107.38 315.78C107.17 315.80999999999995 107.07 316.05999999999995 107.1 316.5C106.47999999999999 315.55 105.58 315.42 104.94999999999999 315.49C103.46999999999998 315.64 102.41999999999999 317.78000000000003 102.24 319.40000000000003C102.13 320.39000000000004 102.22 321.29 102.33999999999999 322.04C102.30999999999999 322.54 102.22999999999999 323.44 101.32 323.39000000000004C100.57 323.35 100.13999999999999 322.13000000000005 100.27 320.50000000000006C100.36 319.46000000000004 100.7 318.00000000000006 100.8 317.51000000000005C101.02 316.45000000000005 100.39 316.24000000000007 99.50999999999999 316.36000000000007C99.03999999999999 316.4200000000001 98.39999999999999 316.55000000000007 97.69999999999999 316.6700000000001C97.83999999999999 316.13000000000005 97.78999999999999 315.56000000000006 97.36999999999999 315.36000000000007C96.97999999999999 315.18000000000006 96.32 315.2200000000001 95.94999999999999 315.63000000000005C95.40999999999998 316.20000000000005 95.26999999999998 317.24000000000007 96.07999999999998 317.76000000000005C95.97999999999999 318.57000000000005 95.05999999999999 320.76000000000005 93.87999999999998 322.29C93.89999999999998 321.41 93.98999999999998 317.45000000000005 93.94999999999997 316.40000000000003C93.92999999999998 316.01000000000005 93.58999999999997 315.87000000000006 93.27999999999997 315.8C93.22999999999998 315.79 92.81999999999998 315.75 92.81999999999998 315.75C92.60999999999999 315.73 92.40999999999998 315.76 92.26999999999998 315.87C92.07999999999998 316.02 92.08999999999997 316.18 92.11999999999998 316.51C91.44999999999997 315.49 90.50999999999998 315.40999999999997 89.83999999999997 315.53999999999996C88.43999999999997 315.81999999999994 87.44999999999997 317.79999999999995 87.26999999999998 319.4C87.19999999999999 320.03999999999996 87.18999999999998 320.67999999999995 87.22999999999998 321.25C87.24999999999997 321.48 87.26999999999998 321.69 87.29999999999997 321.9C87.07999999999997 322.7 86.69999999999997 323.32 86.21999999999997 323.42999999999995C85.71999999999997 323.53 85.41999999999997 323.00999999999993 85.30999999999997 322.19999999999993C85.15999999999997 320.87999999999994 85.21999999999997 318.3999999999999 85.30999999999997 317.00999999999993C85.33999999999997 316.3299999999999 85.46999999999997 316.06999999999994 84.74999999999997 315.88999999999993C84.25999999999998 315.7699999999999 83.95999999999997 315.74999999999994 83.75999999999998 315.7799999999999C83.54999999999998 315.8099999999999 83.44999999999997 316.0599999999999 83.48999999999998 316.49999999999994C82.85999999999999 315.54999999999995 81.95999999999998 315.41999999999996 81.32999999999998 315.48999999999995C79.85999999999999 315.63999999999993 78.79999999999998 317.78 78.61999999999999 319.4C78.55999999999999 319.96999999999997 78.55999999999999 320.51 78.6 321.01C78.49 321.36 78.30999999999999 321.78999999999996 78.16999999999999 322.05C77.27999999999999 323.72 76.27999999999999 323.52000000000004 76.12999999999998 321.5C76.07999999999998 320.87 76.06999999999998 320.22 76.06999999999998 319.59C76.11999999999998 318.15 76.16999999999997 316.71 76.21999999999998 315.27C77.01999999999998 315.27 77.82999999999998 315.27 78.67999999999998 315.24C79.01999999999998 315.23 79.23999999999998 314.13 78.91999999999997 314.11C78.02999999999997 314.05 77.14999999999998 313.99 76.25999999999998 313.94L76.34999999999998 311.63L76.33999999999997 311.6C76.28999999999998 311.44 76.16999999999997 311.37 76.01999999999998 311.32000000000005C75.83999999999997 311.26000000000005 75.54999999999998 311.1700000000001 75.26999999999998 311.1C74.87999999999998 311.01000000000005 74.33999999999997 310.87 74.29999999999998 311.47C74.26999999999998 311.91 74.22999999999999 312.82000000000005 74.20999999999998 313.83000000000004C73.58999999999997 313.80000000000007 72.96999999999998 313.78000000000003 72.33999999999997 313.75000000000006C71.97999999999998 313.74000000000007 71.54999999999997 315.1700000000001 72.12999999999998 315.18000000000006C72.81999999999998 315.20000000000005 73.49999999999999 315.2200000000001 74.16999999999999 315.2300000000001C74.14999999999999 316.19000000000005 74.07 318.2700000000001 74.07 320.06000000000006C73.72 320.95000000000005 73.24 321.81000000000006 72.64999999999999 322.27000000000004C72.80999999999999 321.69000000000005 72.74999999999999 320.56000000000006 71.44999999999999 319.56000000000006C70.99 319.21000000000004 70.43999999999998 318.7900000000001 69.65999999999998 318.2200000000001C70.14999999999998 317.6300000000001 70.66999999999999 316.80000000000007 70.67999999999998 316.1700000000001C70.68999999999998 315.7700000000001 70.37999999999998 315.4000000000001 69.69999999999997 315.4000000000001C68.46999999999997 315.4100000000001 67.63999999999997 316.55000000000007 67.63999999999997 317.49000000000007C67.64999999999998 318.08000000000004 68.02999999999997 318.50000000000006 68.18999999999997 318.7200000000001C66.19999999999997 322.4100000000001 65.75999999999996 322.86000000000007 65.37999999999997 322.86000000000007C65.12999999999997 322.86000000000007 65.00999999999996 322.32000000000005 65.02999999999997 320.6700000000001C65.04999999999997 319.20000000000005 65.14999999999998 318.20000000000005 65.15999999999997 317.01000000000005C65.15999999999997 316.51000000000005 64.83999999999997 316.22 64.50999999999996 316.04C64.32999999999996 315.93 63.54999999999996 315.65000000000003 63.30999999999996 315.64000000000004C62.969999999999956 315.63000000000005 62.47999999999996 315.94000000000005 62.06999999999996 316.39000000000004C61.10999999999996 317.45000000000005 60.579999999999956 319.06000000000006 60.12999999999996 320.40000000000003L60.13999999999996 316.43C60.13999999999996 316.37 60.149999999999956 316.25 60.12999999999996 316.18C60.08999999999996 316.01 59.95999999999996 315.93 59.79999999999996 315.89C59.499999999999964 315.81 58.94999999999996 315.66999999999996 58.62999999999996 315.66999999999996C58.51999999999996 315.66999999999996 58.43999999999996 315.74999999999994 58.39999999999996 315.84999999999997C58.36999999999996 315.92999999999995 58.389999999999965 317.80999999999995 58.37999999999996 319.77C58.37999999999996 321.06 58.36999999999996 322.31 58.38999999999996 323.12C58.41999999999996 323.98 58.42999999999996 324.53000000000003 59.549999999999955 324.53000000000003C60.06999999999996 324.54 60.17999999999996 324.55 60.259999999999955 324.12C60.509999999999955 322.65 61.329999999999956 319.08 63.119999999999955 317.18C63.17999999999996 317.13 63.28999999999996 317.16 63.27999999999995 317.28000000000003C63.159999999999954 319.18 63.01999999999995 321.44000000000005 63.26999999999995 323.29C63.34999999999995 323.81 63.659999999999954 324.61 64.30999999999996 324.61C65.17999999999996 324.61 65.80999999999996 324.42 67.46999999999996 321.78000000000003C67.87999999999995 321.14000000000004 68.33999999999996 320.36 68.88999999999996 319.40000000000003C69.22999999999996 319.71000000000004 69.57999999999996 320.01000000000005 69.90999999999995 320.32000000000005C70.51999999999995 320.89000000000004 70.85999999999996 321.49000000000007 70.87999999999995 322.0400000000001C70.88999999999996 322.7200000000001 70.53999999999995 323.2900000000001 69.97999999999995 323.2900000000001C69.19999999999995 323.2800000000001 68.80999999999995 322.5400000000001 68.33999999999995 322.5400000000001C67.84999999999995 322.5400000000001 67.44999999999995 323.4000000000001 67.44999999999995 323.7700000000001C67.45999999999995 324.1900000000001 68.57999999999994 324.6800000000001 70.01999999999994 324.6700000000001C71.10999999999994 324.6700000000001 71.96999999999994 324.26000000000005 72.70999999999994 323.6000000000001C73.28999999999994 323.0900000000001 73.87999999999994 322.0900000000001 74.20999999999994 321.2700000000001C74.26999999999994 322.6900000000001 75.04999999999994 324.5300000000001 76.39999999999993 324.5300000000001C77.02999999999993 324.5300000000001 77.64999999999993 324.11000000000007 78.12999999999994 323.5100000000001C78.44999999999993 323.1100000000001 78.63999999999994 322.7900000000001 78.82999999999994 322.3200000000001C78.94999999999995 322.7200000000001 79.11999999999995 323.1600000000001 79.25999999999995 323.3600000000001C79.65999999999995 323.97000000000014 80.18999999999996 324.5100000000001 80.98999999999995 324.5600000000001C81.88999999999996 324.6200000000001 82.49999999999996 324.29000000000013 82.96999999999996 323.85000000000014C83.32999999999996 323.5000000000001 83.52999999999996 323.21000000000015 83.78999999999995 322.76000000000016C83.88999999999994 323.6800000000002 84.76999999999995 324.57000000000016 85.82999999999996 324.5500000000002C86.81999999999995 324.5300000000002 87.29999999999995 323.7700000000002 87.56999999999995 322.9000000000002C87.66999999999994 323.1100000000002 87.78999999999995 323.3300000000002 87.93999999999996 323.5300000000002C89.09999999999995 325.0900000000002 90.98999999999995 324.7900000000002 92.18999999999996 323.2300000000002C92.18999999999996 323.5900000000002 92.19999999999996 323.94000000000017 92.19999999999996 324.0400000000002C91.14999999999996 325.0400000000002 89.94999999999996 325.9600000000002 89.06999999999996 327.0600000000002C88.50999999999996 327.76000000000016 88.27999999999996 328.5300000000002 88.31999999999996 329.09000000000015C88.37999999999997 330.22000000000014 89.61999999999996 331.00000000000017 90.72999999999996 331.00000000000017C92.89999999999996 331.00000000000017 93.58999999999996 329.39000000000016 93.90999999999997 327.14000000000016C94.08999999999997 325.9300000000002 93.94999999999997 324.70000000000016 93.97999999999996 323.60000000000014C95.29999999999995 322.09000000000015 96.89999999999996 319.67000000000013 97.36999999999996 317.76000000000016L98.65999999999997 317.7300000000002C98.71999999999997 317.7200000000002 98.79999999999997 317.7300000000002 98.84999999999997 317.7800000000002C98.87999999999997 317.8100000000002 98.84999999999997 317.9200000000002 98.81999999999996 318.0500000000002C98.47999999999996 319.7400000000002 98.01999999999997 321.7100000000002 98.87999999999997 323.2700000000002C99.28999999999996 324.0100000000002 99.92999999999996 324.5400000000002 100.81999999999996 324.56000000000023C101.64999999999996 324.5700000000002 102.38999999999996 323.8800000000002 102.77999999999996 323.2100000000002C103.18999999999996 323.87000000000023 103.73999999999995 324.5000000000002 104.59999999999995 324.56000000000023C105.50999999999995 324.62000000000023 106.10999999999996 324.29000000000025 106.57999999999996 323.85000000000025C106.93999999999996 323.5000000000002 107.14999999999995 323.21000000000026 107.40999999999995 322.7600000000003C107.45999999999995 322.9400000000003 107.50999999999995 323.22000000000025 107.58999999999996 323.3700000000003C107.94999999999996 324.0400000000003 108.60999999999996 324.5300000000003 109.22999999999996 324.5600000000003C110.49999999999996 324.6100000000003 110.80999999999996 323.77000000000027 111.11999999999996 323.15000000000026C111.11999999999996 323.41000000000025 111.15999999999997 323.93000000000023 111.19999999999996 324.1200000000003C111.21999999999996 324.2200000000003 111.28999999999996 324.2800000000003 111.36999999999996 324.33000000000027C111.68999999999996 324.48000000000025 112.11999999999996 324.54000000000025 112.50999999999996 324.53000000000026C112.74999999999996 324.53000000000026 113.08999999999996 324.5700000000003 113.23999999999997 324.34000000000026C113.31999999999996 324.22000000000025 113.31999999999996 323.9400000000003 113.31999999999996 323.79000000000025C113.34999999999997 323.1900000000002 113.37999999999997 322.18000000000023 113.40999999999997 321.79000000000025C113.53999999999996 320.71000000000026 113.68999999999997 320.12000000000023 113.97999999999996 319.42000000000024C114.15999999999997 318.98000000000025 114.30999999999996 318.53000000000026 114.65999999999997 317.93000000000023C114.71999999999997 317.84000000000026 114.83999999999997 317.8800000000002 114.84999999999997 317.99000000000024C114.85999999999997 318.48000000000025 114.86999999999996 318.93000000000023 114.88999999999997 319.35000000000025C114.94999999999997 320.5100000000003 115.03999999999998 321.4500000000003 115.21999999999997 322.46000000000026C115.25999999999998 322.65000000000026 115.28999999999996 322.86000000000024 115.34999999999997 323.04000000000025C115.51999999999997 323.54000000000025 115.98999999999997 323.89000000000027 116.53999999999996 323.89000000000027C116.70999999999997 323.89000000000027 116.86999999999996 323.8600000000003 117.00999999999996 323.8000000000003C117.05999999999996 323.7800000000003 117.09999999999997 323.7600000000003 117.13999999999996 323.7400000000003C117.20999999999995 323.6900000000003 117.24999999999996 323.64000000000027 117.26999999999995 323.5500000000003C117.28999999999995 323.4500000000003 117.27999999999996 323.3200000000003 117.28999999999995 323.2200000000003C117.31999999999995 322.3400000000003 117.39999999999995 321.6100000000003 117.57999999999996 320.8500000000003C117.86999999999996 319.6400000000003 118.22999999999996 318.51000000000033 118.61999999999996 317.82000000000033C118.62999999999997 317.80000000000035 118.63999999999996 317.7700000000003 118.67999999999996 317.7700000000003C118.73999999999997 317.7700000000003 118.72999999999996 317.8500000000003 118.71999999999997 317.8900000000003C118.67999999999996 318.2700000000003 118.66999999999997 318.6600000000003 118.66999999999997 319.0400000000003ZM92.06 320.37C91.99000000000001 322.6 90.99000000000001 323.51 90.24000000000001 323.37C89.34 323.2 89.04 322.02 89.19000000000001 319.88C89.37000000000002 317.1 91.05000000000001 316.15 91.82000000000001 317.46C92.14 318.02 92.10000000000001 318.97999999999996 92.06 320.37ZM107.03 320.37C106.96000000000001 322.6 105.96000000000001 323.51 105.21000000000001 323.37C104.30000000000001 323.2 104.01 322.02 104.15 319.88C104.28 317.95 104.99000000000001 316.9 105.77000000000001 316.9C107.00000000000001 316.89 107.15 319.03999999999996 107.03000000000002 320.37ZM92.29 325.29C92.31 326.43 92.4 329.42 91.22000000000001 330.04C90.38000000000001 330.49 89.44000000000001 329.78000000000003 89.76000000000002 328.68C90.07000000000002 327.64 91.53000000000002 326.15000000000003 92.29000000000002 325.29Z " fill="#ffffff" fill-opacity="1" transform="matrix(1,0,0,1,-35,-311)"></path></svg>