<svg id="SvgjsSvg1032" xmlns="http://www.w3.org/2000/svg" version="1.1" xmlns:xlink="http://www.w3.org/1999/xlink" xmlns:svgjs="http://svgjs.com/svgjs" width="31" height="31" viewBox="0 0 31 31"><title>Group 16</title><desc>Created with Avocode.</desc><defs id="SvgjsDefs1033"></defs><path id="SvgjsPath1034" d="M266 700C266 691.71573 272.71573 685 281 685C289.28427 685 296 691.71573 296 700C296 708.28427 289.28427 715 281 715C272.71573 715 266 708.28427 266 700Z " fill-opacity="0" fill="#ffffff" stroke-dasharray="0" stroke-linejoin="miter" stroke-linecap="butt" stroke-opacity="1" stroke="#ffffff" stroke-miterlimit="50" stroke-width="1" transform="matrix(1,0,0,1,-265.5,-684.5)"></path><path id="SvgjsPath1035" d="M281.41 704.22C281.41 704.22 281.66 704.19 281.78000000000003 704.0400000000001C281.89000000000004 703.9100000000001 281.89000000000004 703.6600000000001 281.89000000000004 703.6600000000001C281.89000000000004 703.6600000000001 281.88000000000005 702.5000000000001 282.38000000000005 702.33C282.87000000000006 702.1600000000001 283.51000000000005 703.45 284.18000000000006 703.95C284.69000000000005 704.32 285.08000000000004 704.24 285.08000000000004 704.24L286.88000000000005 704.22C286.88000000000005 704.22 287.83000000000004 704.15 287.38000000000005 703.36C287.34000000000003 703.29 287.12000000000006 702.77 286.0400000000001 701.7C284.9100000000001 700.57 285.06000000000006 700.76 286.4200000000001 698.8100000000001C287.25000000000006 697.6300000000001 287.5800000000001 696.9000000000001 287.4800000000001 696.59C287.38000000000005 696.3000000000001 286.7700000000001 696.38 286.7700000000001 696.38L284.7400000000001 696.39C284.7400000000001 696.39 284.59000000000015 696.37 284.48000000000013 696.4399999999999C284.3700000000001 696.51 284.3000000000001 696.67 284.3000000000001 696.67C284.3000000000001 696.67 283.98000000000013 697.5899999999999 283.5500000000001 698.37C282.65000000000015 700.01 282.28000000000014 700.1 282.1400000000001 700C281.7900000000001 699.76 281.8800000000001 699.04 281.8800000000001 698.53C281.8800000000001 696.9399999999999 282.10000000000014 696.27 281.4400000000001 696.1C281.2200000000001 696.0500000000001 281.0600000000001 696.01 280.4900000000001 696C279.7700000000001 695.99 279.15000000000015 696 278.8100000000001 696.19C278.5800000000001 696.3100000000001 278.4000000000001 696.58 278.5100000000001 696.59C278.6400000000001 696.61 278.9400000000001 696.6800000000001 279.1100000000001 696.9200000000001C279.3100000000001 697.22 279.3100000000001 697.9000000000001 279.3100000000001 697.9000000000001C279.3100000000001 697.9000000000001 279.4300000000001 699.7800000000001 279.03000000000014 700.0100000000001C278.75000000000017 700.1700000000001 278.38000000000017 699.8400000000001 277.57000000000016 698.3500000000001C277.16000000000014 697.5900000000001 276.85000000000014 696.7400000000001 276.85000000000014 696.7400000000001C276.85000000000014 696.7400000000001 276.79000000000013 696.5800000000002 276.6800000000001 696.5000000000001C276.5500000000001 696.4000000000001 276.3700000000001 696.3600000000001 276.3700000000001 696.3600000000001L274.4400000000001 696.3800000000001C274.4400000000001 696.3800000000001 274.1500000000001 696.3900000000001 274.04000000000013 696.5200000000001C273.95000000000016 696.6400000000001 274.04000000000013 696.8900000000001 274.04000000000013 696.8900000000001C274.04000000000013 696.8900000000001 275.5500000000001 700.6700000000001 277.26000000000016 702.5800000000002C278.82000000000016 704.3300000000002 280.6100000000002 704.2200000000001 280.6100000000002 704.2200000000001Z " fill="#ffffff" fill-opacity="1" transform="matrix(1,0,0,1,-265.5,-684.5)"></path></svg>