<svg id="SvgjsSvg1256" xmlns="http://www.w3.org/2000/svg" version="1.1" xmlns:xlink="http://www.w3.org/1999/xlink" xmlns:svgjs="http://svgjs.com/svgjs" width="40" height="40" viewBox="0 0 40 40"><title>Rectangle 8</title><desc>Created with Avocode.</desc><defs id="SvgjsDefs1257"></defs><path id="SvgjsPath1258" d="M1350 765C1350 753.95431 1358.95431 745 1370 745L1370 745C1381.04569 745 1390 753.95431 1390 765L1390 765C1390 776.04569 1381.04569 785 1370 785L1370 785C1358.95431 785 1350 776.04569 1350 765Z " fill="#ffffff" fill-opacity="1" transform="matrix(1,0,0,1,-1350,-745)"></path><path id="SvgjsPath1259" d="M1366 760.41L1371.73 766.14L1371.73 764.73L1366 770.46L1367.41 771.87L1373.14 766.14L1373.8500000000001 765.4399999999999L1373.14 764.7299999999999L1367.41 758.9999999999999Z " fill="#0023a0" fill-opacity="1" transform="matrix(1,0,0,1,-1350,-745)"></path></svg>