<svg id="SvgjsSvg1252" xmlns="http://www.w3.org/2000/svg" version="1.1" xmlns:xlink="http://www.w3.org/1999/xlink" xmlns:svgjs="http://svgjs.com/svgjs" width="40" height="40" viewBox="0 0 40 40"><title>Rectangle 8</title><desc>Created with Avocode.</desc><defs id="SvgjsDefs1253"></defs><path id="SvgjsPath1254" d="M1390 705C1390 693.95431 1381.04569 685 1370 685L1370 685C1358.95431 685 1350 693.95431 1350 705L1350 705C1350 716.04569 1358.95431 725 1370 725L1370 725C1381.04569 725 1390 716.04569 1390 705Z " fill="#ffffff" fill-opacity="1" transform="matrix(1,0,0,1,-1350,-685)"></path><path id="SvgjsPath1255" d="M1373.85 700.41L1368.12 706.14L1368.12 704.73L1373.85 710.46L1372.4399999999998 711.87L1366.7099999999998 706.14L1365.9999999999998 705.4399999999999L1366.7099999999998 704.7299999999999L1372.4399999999998 698.9999999999999Z " fill="#0023a0" fill-opacity="1" transform="matrix(1,0,0,1,-1350,-685)"></path></svg>