<svg id="SvgjsSvg1260" xmlns="http://www.w3.org/2000/svg" version="1.1" xmlns:xlink="http://www.w3.org/1999/xlink" xmlns:svgjs="http://svgjs.com/svgjs" width="40" height="40" viewBox="0 0 40 40"><title>Rectangle 8</title><desc>Created with Avocode.</desc><defs id="SvgjsDefs1261"></defs><path id="SvgjsPath1262" d="M1390 825C1390 813.95431 1381.04569 805 1370 805L1370 805C1358.95431 805 1350 813.95431 1350 825L1350 825C1350 836.04569 1358.95431 845 1370 845L1370 845C1381.04569 845 1390 836.04569 1390 825Z " fill="#ffa000" fill-opacity="1" transform="matrix(1,0,0,1,-1350,-805)"></path><path id="SvgjsPath1263" d="M1373.85 820.41L1368.12 826.14L1368.12 824.73L1373.85 830.46L1372.4399999999998 831.87L1366.7099999999998 826.14L1365.9999999999998 825.4399999999999L1366.7099999999998 824.7299999999999L1372.4399999999998 818.9999999999999Z " fill="#ffffff" fill-opacity="1" transform="matrix(1,0,0,1,-1350,-805)"></path></svg>