<?xml version="1.0" encoding="UTF-8"?>
<svg width="18px" height="12px" viewBox="0 0 18 12" version="1.1" xmlns="http://www.w3.org/2000/svg" xmlns:xlink="http://www.w3.org/1999/xlink">
    <!-- Generator: sketchtool 41.2 (35397) - http://www.bohemiancoding.com/sketch -->
    <title>72E80D0F-2F28-4721-BB82-DC6957ADAD83</title>
    <desc>Created with sketchtool.</desc>
    <defs></defs>
    <g id="Page-1" stroke="none" stroke-width="1" fill="none" fill-rule="evenodd">
        <g id="6.4.2-Карточка-проекта_список-инвесторов" transform="translate(-56.000000, -833.000000)" fill="#FFFFFF">
            <g id="Group-16-Copy-7" transform="translate(50.000000, 824.000000)">
                <g id="noun_139432_cc-copy" transform="translate(6.000000, 9.000000)">
                    <g id="Group">
                        <path d="M16.9388348,2.39568733 L16.9388348,2.39568733 L7.82820414,11.6183288 L7.82820414,11.6183288 C7.62347087,11.8210243 7.31637096,11.9561545 6.97514884,11.9561545 C6.63392672,11.9561545 6.36094902,11.8210243 6.12209354,11.6183288 L6.12209354,11.6183288 L0.969639525,6.41581312 L0.969639525,6.41581312 C0.764906253,6.2131177 0.628417405,5.90907457 0.628417405,5.57124888 C0.628417405,4.89559748 1.1743728,4.35507637 1.82269483,4.35507637 C2.16391695,4.35507637 2.43689464,4.49020665 2.67575013,4.69290207 L2.67575013,4.69290207 L6.97514884,9.05085355 L15.2668464,0.67277628 L15.2668464,0.67277628 C15.4715796,0.470080863 15.7786795,0.334950584 16.1199017,0.334950584 C16.7682237,0.334950584 17.3141791,0.875471698 17.3141791,1.55112309 C17.2800569,1.88894879 17.143568,2.19299191 16.9388348,2.39568733 L16.9388348,2.39568733 Z" id="Shape"></path>
                    </g>
                </g>
            </g>
        </g>
    </g>
</svg>