<svg xmlns="http://www.w3.org/2000/svg" width="29" height="28">
  <g fill="none" fill-rule="evenodd">
    <path fill="#FFF" d="M1.173 27.102s4.2-2.845 4.256-2.826c1.21.41 2.52.627 3.84.627 3.95 0 7.31-1.88 8.62-4.508C9.74 22.038 3.9 16.447 2.9 13 1.11 14.265 0 16.05 0 18.027c.058 1.575.828 3.125 2.176 4.337.062.056-1.003 4.738-1.003 4.738z"/>
    <path stroke="#FFF" stroke-width="1.8" d="M16.442 1C10.076 1 4.918 4.892 4.918 9.66c0 .55.065 1.07.195 1.59.066.323.196.615.294.94 1.47 3.502 5.844 6.096 11.035 6.096.62 0 1.273-.032 1.893-.13.36-.032.686-.097 1.045-.16.624-.125 1.248-.287 1.857-.487l.234-.08 4.68 2.22-1.08-4.25s.205-.18.304-.274c1.646-1.54 2.6-3.483 2.6-5.476 0-4.767-5.19-8.66-11.523-8.66z"/>
  </g>
</svg>