<?xml version="1.0" encoding="UTF-8"?>
<svg width="18px" height="23px" viewBox="0 0 18 23" version="1.1" xmlns="http://www.w3.org/2000/svg" xmlns:xlink="http://www.w3.org/1999/xlink">
    <!-- Generator: sketchtool 41.2 (35397) - http://www.bohemiancoding.com/sketch -->
    <title>9BD6FE95-57B6-494C-8211-BA527A4C8A16</title>
    <desc>Created with sketchtool.</desc>
    <defs></defs>
    <g id="Page-1" stroke="none" stroke-width="1" fill="none" fill-rule="evenodd">
        <g id="6.4.1-Карточка-проекта_список-новостей" transform="translate(-1356.000000, -238.000000)" fill="#FFA204">
            <g id="Group-4" transform="translate(1341.000000, 225.000000)">
                <g id="Group-Copy" transform="translate(15.000000, 13.000000)">
                    <path d="M17.9076923,3.58165323 C17.9076923,3.20953341 17.6076923,2.88392857 17.2153846,2.88392857 L16.5230769,2.88392857 L12.4384615,2.88392857 L12.4384615,1.51173675 C12.4384615,0.744239631 11.8153846,0.139544931 11.0769231,0.139544931 L6.94615385,0.139544931 C6.18461538,0.139544931 5.58461538,0.76749712 5.58461538,1.51173675 L5.58461538,2.88392857 L1.47692308,2.88392857 L0.784615385,2.88392857 C0.415384615,2.88392857 0.0923076923,3.18627592 0.0923076923,3.58165323 L0.0923076923,3.58165323 C0.0923076923,3.95377304 0.392307692,4.27937788 0.784615385,4.27937788 L1.47692308,4.27937788 L1.47692308,20.1642425 C1.47692308,21.3038594 2.4,22.234159 3.53076923,22.234159 L14.4923077,22.234159 C15.6230769,22.234159 16.5461538,21.3038594 16.5461538,20.1642425 L16.5461538,4.27937788 L17.2384615,4.27937788 C17.6076923,4.27937788 17.9076923,3.95377304 17.9076923,3.58165323 L17.9076923,3.58165323 L17.9076923,3.58165323 Z M6.94615385,1.51173675 L11.0769231,1.51173675 L11.0769231,2.88392857 L6.94615385,2.88392857 L6.94615385,1.51173675 L6.94615385,1.51173675 Z M15.1846154,20.140985 C15.1846154,20.5131048 14.8846154,20.8387097 14.4923077,20.8387097 L3.53076923,20.8387097 C3.16153846,20.8387097 2.83846154,20.5363623 2.83846154,20.140985 L2.83846154,4.27937788 L15.1615385,4.27937788 L15.1615385,20.140985 L15.1846154,20.140985 Z" id="Shape"></path>
                    <path d="M5.56153846,7.02376152 L5.56153846,7.02376152 C5.93076923,7.02376152 6.25384615,7.32610887 6.25384615,7.72148618 L6.25384615,18.0478111 C6.25384615,18.4199309 5.95384615,18.7455357 5.56153846,18.7455357 L5.56153846,18.7455357 C5.19230769,18.7455357 4.86923077,18.4431884 4.86923077,18.0478111 L4.86923077,7.72148618 C4.89230769,7.34936636 5.19230769,7.02376152 5.56153846,7.02376152 L5.56153846,7.02376152 Z" id="Shape"></path>
                    <path d="M9,7.02376152 L9,7.02376152 C9.36923077,7.02376152 9.69230769,7.32610887 9.69230769,7.72148618 L9.69230769,18.0478111 C9.69230769,18.4199309 9.39230769,18.7455357 9,18.7455357 L9,18.7455357 C8.63076923,18.7455357 8.30769231,18.4431884 8.30769231,18.0478111 L8.30769231,7.72148618 C8.33076923,7.34936636 8.63076923,7.02376152 9,7.02376152 L9,7.02376152 Z" id="Shape"></path>
                    <path d="M12.4615385,7.02376152 L12.4615385,7.02376152 C12.8307692,7.02376152 13.1538462,7.32610887 13.1538462,7.72148618 L13.1538462,18.0478111 C13.1538462,18.4199309 12.8538462,18.7455357 12.4615385,18.7455357 L12.4615385,18.7455357 C12.0923077,18.7455357 11.7692308,18.4431884 11.7692308,18.0478111 L11.7692308,7.72148618 C11.7692308,7.34936636 12.0692308,7.02376152 12.4615385,7.02376152 L12.4615385,7.02376152 Z" id="Shape"></path>
                </g>
            </g>
        </g>
    </g>
</svg>