<?xml version="1.0" encoding="utf-8"?>
<!-- Generator: Adobe Illustrator 19.2.1, SVG Export Plug-In . SVG Version: 6.00 Build 0)  -->
<svg version="1.1" id="SvgjsSvg1036" xmlns:svgjs="http://svgjs.com/svgjs"
	 xmlns="http://www.w3.org/2000/svg" xmlns:xlink="http://www.w3.org/1999/xlink" x="0px" y="0px" viewBox="0 0 63 51"
	 style="enable-background:new 0 0 63 51;" xml:space="preserve">
<style type="text/css">
	.st0{fill:#FFA000;}
</style>
<title>,, copy</title>
<desc>Created with Avocode.</desc>
<path id="SvgjsPath1038" class="st0" d="M50.2,28.8h3.5c2.7,0,4.9,1,6.7,2.9c1.8,2,2.7,4.4,2.7,7.3c0,3.4-1.2,6.2-3.5,8.4
	c-2.3,2.3-5.2,3.4-8.7,3.4c-4.2,0-7.5-1.6-10.1-4.9c-2.5-3.2-3.8-7.5-3.8-12.7c0-8.8,3.4-17.9,10.2-27.2c3-4,5.6-6.1,7.6-6.1
	c2.3,0,3.5,1.2,3.5,3.5c0,0.8-0.5,1.9-1.4,3.1c-6.5,8.6-9.7,15-9.7,19.3C47.2,27.8,48.2,28.8,50.2,28.8z M10.2,25.9
	c0-4.3,3.2-10.7,9.7-19.3c0.9-1.3,1.4-2.3,1.4-3.1c0-2.3-1.2-3.5-3.5-3.5c-2.1,0-4.6,2-7.6,6.1C3.4,15.4,0,24.5,0,33.3
	c0,5.2,1.3,9.4,3.8,12.7c2.5,3.2,5.9,4.9,10.1,4.9c3.5,0,6.4-1.1,8.7-3.4c2.3-2.3,3.5-5.1,3.5-8.4c0-2.9-0.9-5.3-2.7-7.3
	c-1.8-2-4-2.9-6.7-2.9h-3.5C11.2,28.8,10.2,27.8,10.2,25.9z"/>
</svg>
