<svg id="SvgjsSvg1008" xmlns="http://www.w3.org/2000/svg" version="1.1" xmlns:xlink="http://www.w3.org/1999/xlink" xmlns:svgjs="http://svgjs.com/svgjs" width="16" height="24" viewBox="0 0 16 24"><title>Page 1 Copy 3</title><desc>Created with Avocode.</desc><defs id="SvgjsDefs1009"></defs><path id="SvgjsPath1010" d="M1252.98 114.25V132.42000000000002C1252.98 132.96 1252.76 133.46 1252.3700000000001 133.81C1252.0500000000002 134.1 1251.64 134.26 1251.22 134.26C1251.14 134.26 1251.06 134.25 1250.98 134.23999999999998L1242.53 133.07C1241.66 132.94 1241 132.16 1241 131.25V114.01C1241 113.10000000000001 1241.66 112.32000000000001 1242.53 112.19000000000001L1250.98 111.02000000000001C1251.48 110.95000000000002 1251.99 111.10000000000001 1252.3700000000001 111.45000000000002C1252.7600000000002 111.80000000000001 1252.98 112.30000000000001 1252.98 112.84000000000002V113.18000000000002H1255.23C1256.2 113.18000000000002 1256.99 114.00000000000001 1256.99 115.00000000000001V131.35000000000002C1256.99 131.75000000000003 1256.88 132.04000000000002 1256.49 132.04000000000002C1256.1 132.04000000000002 1255.98 131.75000000000003 1255.98 131.35000000000002V115.00000000000003C1255.98 114.23000000000003 1255.23 114.25000000000003 1255.23 114.25000000000003ZM1251.17 133.21C1251.18 133.21 1252.02 133.33 1252.02 132.42000000000002V112.84000000000002C1252.02 112.06000000000002 1251.46 111.96000000000002 1251.07 112.02000000000002L1242.62 113.20000000000003C1242.1999999999998 113.25000000000003 1241.9599999999998 113.57000000000004 1241.9599999999998 114.01000000000003V131.25000000000003C1241.9599999999998 131.96000000000004 1242.7099999999998 132.03000000000003 1242.7199999999998 132.03000000000003ZM1250.16 123.29C1250.16 122.93 1249.88 122.63000000000001 1249.52 122.63000000000001C1249.17 122.63000000000001 1248.8799999999999 122.93 1248.8799999999999 123.29C1248.8799999999999 123.66000000000001 1249.1699999999998 123.95 1249.52 123.95C1249.8799999999999 123.95 1250.16 123.66 1250.16 123.29Z " fill="#ffa000" fill-opacity="1" transform="matrix(1,0,0,1,-1241,-111)"></path></svg>