<svg id="SvgjsSvg1000" xmlns="http://www.w3.org/2000/svg" version="1.1" xmlns:xlink="http://www.w3.org/1999/xlink" xmlns:svgjs="http://svgjs.com/svgjs" width="41" height="41" viewBox="0 0 41 41"><title>base</title><desc>Created with Avocode.</desc><defs id="SvgjsDefs1001"></defs><path id="SvgjsPath1007" d="M988 7251C988 7239.95431 996.95431 7231 1008 7231C1019.04569 7231 1028 7239.95431 1028 7251C1028 7262.04569 1019.04569 7271 1008 7271C996.95431 7271 988 7262.04569 988 7251Z " fill-opacity="0" fill="#ffffff" stroke-dasharray="0" stroke-linejoin="miter" stroke-linecap="butt" stroke-opacity="1" stroke="#0023a0" stroke-miterlimit="50" stroke-width="1" transform="matrix(1,0,0,1,-987.5,-7230.5)"></path><path id="SvgjsPath1008" d="M1013 7245.69L1011.02 7245.71C1011.02 7245.71 1008.99 7245.42 1008.99 7247.27C1009.36 7246.68 1008.99 7248.330000000001 1008.99 7248.330000000001L1011.98 7248.330000000001L1011.98 7251.530000000001L1008.99 7251.530000000001L1008.99 7259.000000000001L1006 7259.000000000001L1006 7251.530000000001L1005 7251.530000000001L1005 7248.330000000001L1006 7248.330000000001C1006 7248.330000000001 1006.44 7246.9400000000005 1006 7247.27C1006.44 7244.790000000001 1007.44 7243 1009.99 7243C1010.69 7243 1012.17 7243.04 1012.98 7243C1012.98 7243.32 1013 7245.69 1013 7245.69Z " fill="#0023a0" fill-opacity="1" transform="matrix(1,0,0,1,-987.5,-7230.5)"></path></svg>