<?xml version="1.0" encoding="UTF-8"?>
<svg width="17px" height="22px" viewBox="0 0 17 22" version="1.1" xmlns="http://www.w3.org/2000/svg" xmlns:xlink="http://www.w3.org/1999/xlink">
    <!-- Generator: sketchtool 41.2 (35397) - http://www.bohemiancoding.com/sketch -->
    <title>67857827-85B8-4D3B-A05D-90AAFCE9CFDD</title>
    <desc>Created with sketchtool.</desc>
    <defs>
        <path d="M16.9747608,4.21442503 C16.9747608,4.01842086 16.8992492,3.82241668 16.748123,3.67551376 L13.4992698,0.245741353 C13.3481436,0.0742878052 13.1215057,0.000736136996 12.8947649,0.000736136996 L1.30965756,0.000736136996 C0.604401864,-0.0237142813 0,0.564198031 0,1.27466305 L0,20.7016227 C0,21.4120877 0.604401864,22 1.33479375,22 L15.6652062,22 C16.3954951,22 17,21.4120877 17,20.7016227 L16.9747608,4.21442503 L16.9747608,4.21442503 Z M14.0785355,4.48388066 C13.2976651,4.48378046 12.6429909,3.8468671 12.6429909,3.08750124 L12.6429909,1.56456084 L1.95207277,1.56456084 C1.80094655,1.56456084 1.70019573,1.68701335 1.70019573,1.80946585 L1.70019573,20.2607135 C1.70019573,20.4077166 1.82618576,20.5057187 1.95207277,20.5057187 L15.184116,20.5838799 C15.310106,20.5837797 15.4108568,20.4613272 15.435993,20.3388747 L15.435993,4.56204184 L14.0785355,4.48388066 L14.0785355,4.48388066 Z" id="path-1"></path>
    </defs>
    <g id="Page-1" stroke="none" stroke-width="1" fill="none" fill-rule="evenodd">
        <g id="6.4.2-Карточка-проекта_список-инвесторов" transform="translate(-1289.000000, -539.000000)">
            <g id="Group-9" transform="translate(0.000000, 504.000000)">
                <g id="Group-2" transform="translate(1273.000000, 22.000000)">
                    <g id="Page-1" transform="translate(16.000000, 13.000000)">
                        <mask id="mask-2" fill="white">
                            <use xlink:href="#path-1"></use>
                        </mask>
                        <g id="Clip-2"></g>
                        <polygon id="Fill-1" fill="#FFA204" mask="url(#mask-2)" points="-8 27 22 27 22 -9 -8 -9"></polygon>
                    </g>
                </g>
            </g>
        </g>
    </g>
</svg>