<?xml version="1.0" encoding="UTF-8"?>
<svg width="20px" height="12px" viewBox="0 0 20 12" version="1.1" xmlns="http://www.w3.org/2000/svg" xmlns:xlink="http://www.w3.org/1999/xlink">
    <!-- Generator: sketchtool 41.2 (35397) - http://www.bohemiancoding.com/sketch -->
    <title>C619A44A-1B11-4BAD-A08A-437B7130BB0D</title>
    <desc>Created with sketchtool.</desc>
    <defs></defs>
    <g id="Page-1" stroke="none" stroke-width="1" fill="none" fill-rule="evenodd">
        <g id="6.4.1.2-Карточка_новости_комментарии" transform="translate(-396.000000, -1593.000000)" fill="#0023A0">
            <g id="Group-3" transform="translate(385.000000, 1579.000000)">
                <path d="M28.8125,19.1875 L28.8125,17 L27.25,17 L27.25,19.1875 L25,19.1875 L25,20.75 L27.25,20.75 L27.25,23 L28.8125,23 L28.8125,20.75 L31,20.75 L31,19.1875 L28.8125,19.1875 L28.8125,19.1875 Z M17.0843454,18.8118812 L17.0843454,21.1881188 C17.0843454,21.1881188 19.4219389,21.1850297 20.3737474,21.1850297 C19.858325,22.7254851 19.0568782,23.5643564 17.0843454,23.5643564 C15.088138,23.5643564 13.5301238,21.9685347 13.5301238,20 C13.5301238,18.0314653 15.088138,16.4356436 17.0843454,16.4356436 C18.1397685,16.4356436 18.8213959,16.8014653 19.4466377,17.3113465 C19.9471203,16.817802 19.905313,16.7474653 21.178628,15.5616634 C20.0977229,14.5914455 18.6610945,14 17.0843454,14 C13.7240398,14 11,16.6862772 11,20 C11,23.3136634 13.7240398,26 17.0843454,26 C22.1070629,26 23.3347152,21.6871287 22.9277267,18.8118812 L17.0843454,18.8118812 L17.0843454,18.8118812 Z" id="GooglePlus"></path>
            </g>
        </g>
    </g>
</svg>