<svg id="SvgjsSvg1017" xmlns="http://www.w3.org/2000/svg" version="1.1" xmlns:xlink="http://www.w3.org/1999/xlink" xmlns:svgjs="http://svgjs.com/svgjs" width="41" height="41" viewBox="0 0 41 41"><title>base</title><desc>Created with Avocode.</desc><defs id="SvgjsDefs1018"></defs><path id="SvgjsPath1019" d="M1153 7251C1153 7239.95431 1161.95431 7231 1173 7231C1184.04569 7231 1193 7239.95431 1193 7251C1193 7262.04569 1184.04569 7271 1173 7271C1161.95431 7271 1153 7262.04569 1153 7251Z " fill-opacity="0" fill="#ffffff" stroke-dasharray="0" stroke-linejoin="miter" stroke-linecap="butt" stroke-opacity="1" stroke="#0023a0" stroke-miterlimit="50" stroke-width="1" transform="matrix(1,0,0,1,-1152.5,-7230.5)"></path><path id="SvgjsPath1020" d="M1181.81 7248L1180.25 7248L1180.25 7250.19L1178 7250.19L1178 7251.75L1180.25 7251.75L1180.25 7254L1181.81 7254L1181.81 7251.75L1184 7251.75L1184 7250.19L1181.81 7250.19ZM1170.08 7249.81C1170.08 7249.81 1174.74 7249.81 1175.9299999999998 7249.81C1176.33 7252.6900000000005 1175.11 7257 1170.08 7257C1166.72 7257 1164 7254.31 1164 7251C1164 7247.69 1166.72 7245 1170.08 7245C1171.6599999999999 7245 1173.1 7245.59 1174.1799999999998 7246.56C1172.9099999999999 7247.75 1172.9499999999998 7247.820000000001 1172.4499999999998 7248.31C1171.8199999999997 7247.8 1171.1399999999999 7247.4400000000005 1170.08 7247.4400000000005C1168.09 7247.4400000000005 1166.53 7249.030000000001 1166.53 7251.000000000001C1166.53 7252.970000000001 1168.09 7254.560000000001 1170.08 7254.560000000001C1172.06 7254.560000000001 1172.86 7253.730000000001 1173.37 7252.190000000001C1172.4199999999998 7252.190000000001 1170.08 7252.190000000001 1170.08 7252.190000000001Z " fill="#0023a0" fill-opacity="1" transform="matrix(1,0,0,1,-1152.5,-7230.5)"></path></svg>