<svg id="SvgjsSvg1013" xmlns="http://www.w3.org/2000/svg" version="1.1" xmlns:xlink="http://www.w3.org/1999/xlink" xmlns:svgjs="http://svgjs.com/svgjs" width="280" height="8" viewBox="0 0 280 8"><title>Rectangle 44</title><desc>Created with Avocode.</desc><defs id="SvgjsDefs1014"></defs><path id="SvgjsPath1015" d="M50 3856C50 3853.79086 51.79086 3852 54 3852L326 3852C328.20914 3852 330 3853.79086 330 3856L330 3856C330 3858.20914 328.20914 3860 326 3860L54 3860C51.79086 3860 50 3858.20914 50 3856Z " fill="#e6e6e6" fill-opacity="1" transform="matrix(1,0,0,1,-50,-3852)"></path><path id="SvgjsPath1016" d="M50 3856C50 3853.79086 51.79086 3852 54 3852L294 3852C296.20914 3852 298 3853.79086 298 3856L298 3856C298 3858.20914 296.20914 3860 294 3860L54 3860C51.79086 3860 50 3858.20914 50 3856Z " fill="#ffa000" fill-opacity="1" transform="matrix(1,0,0,1,-50,-3852)"></path></svg>