<svg id="SvgjsSvg1013" xmlns="http://www.w3.org/2000/svg" version="1.1" xmlns:xlink="http://www.w3.org/1999/xlink" xmlns:svgjs="http://svgjs.com/svgjs" width="41" height="41" viewBox="0 0 41 41"><title>base</title><desc>Created with Avocode.</desc><defs id="SvgjsDefs1014"></defs><path id="SvgjsPath1015" d="M1098 7251C1098 7239.95431 1106.95431 7231 1118 7231C1129.04569 7231 1138 7239.95431 1138 7251C1138 7262.04569 1129.04569 7271 1118 7271C1106.95431 7271 1098 7262.04569 1098 7251Z " fill-opacity="0" fill="#ffffff" stroke-dasharray="0" stroke-linejoin="miter" stroke-linecap="butt" stroke-opacity="1" stroke="#FFA000" stroke-miterlimit="50" stroke-width="1" transform="matrix(1,0,0,1,-1097.5,-7230.5)"></path><path id="SvgjsPath1016" d="M1112.23 7244C1111.56 7244 1111 7244.56 1111 7245.23L1111 7248.66L1115.66 7248.66C1116.3600000000001 7248.16 1117.1000000000001 7247.72 1118 7247.72C1118.87 7247.72 1119.65 7248.16 1120.34 7248.66L1125 7248.66L1125 7245.23C1125 7244.5599999999995 1124.44 7244 1123.77 7244ZM1118 7249.14C1116.71 7249.14 1115.66 7250.17 1115.66 7251.46C1115.66 7252.75 1116.71 7253.8 1118 7253.8C1119.29 7253.8 1120.34 7252.75 1120.34 7251.46C1120.34 7250.17 1119.29 7249.14 1118 7249.14ZM1124.06 7247.25C1124.06 7247.51 1123.85 7247.74 1123.59 7247.74L1121.75 7247.74C1121.49 7247.74 1121.26 7247.51 1121.26 7247.25L1121.26 7245.41C1121.26 7245.15 1121.49 7244.94 1121.75 7244.94L1123.59 7244.94C1123.85 7244.94 1124.06 7245.15 1124.06 7245.41ZM1125 7250.54L1125 7256.7699999999995C1125 7257.44 1124.44 7257.999999999999 1123.77 7257.999999999999L1112.23 7257.999999999999C1111.56 7257.999999999999 1111 7257.439999999999 1111 7256.7699999999995L1111 7250.54L1114.43 7250.54C1114.3500000000001 7250.82 1114.3200000000002 7251.11 1114.3200000000002 7251.41C1114.3200000000002 7253.45 1115.9700000000003 7255.099999999999 1118.0000000000002 7255.099999999999C1120.0300000000002 7255.099999999999 1121.6800000000003 7253.45 1121.6800000000003 7251.41C1121.6800000000003 7251.11 1121.6500000000003 7250.82 1121.5700000000004 7250.54Z " fill="#FFA000" fill-opacity="1" transform="matrix(1,0,0,1,-1097.5,-7230.5)"></path></svg>