<svg id="SvgjsSvg1011" xmlns="http://www.w3.org/2000/svg" version="1.1" xmlns:xlink="http://www.w3.org/1999/xlink" xmlns:svgjs="http://svgjs.com/svgjs" width="280" height="8" viewBox="0 0 280 8"><title>Rectangle 44</title><desc>Created with Avocode.</desc><defs id="SvgjsDefs1012"></defs><path id="SvgjsPath1013" d="M1038 1936C1038 1933.79086 1039.79086 1932 1042 1932H1294C1296.20914 1932 1298 1933.79086 1298 1936V1936C1298 1938.20914 1296.20914 1940 1294 1940H1042C1039.79086 1940 1038 1938.20914 1038 1936Z " fill="#e6e6e6" fill-opacity="1" transform="matrix(1,0,0,1,-1018,-1932)"></path><path id="SvgjsPath1014" d="M1018 1936C1018 1933.79086 1019.79086 1932 1022 1932H1164C1166.20914 1932 1168 1933.79086 1168 1936V1936C1168 1938.20914 1166.20914 1940 1164 1940H1022C1019.79086 1940 1018 1938.20914 1018 1936Z " fill="#ffa000" fill-opacity="1" transform="matrix(1,0,0,1,-1018,-1932)"></path></svg>