<?xml version="1.0" encoding="UTF-8"?>
<svg width="16px" height="24px" viewBox="0 0 16 24" version="1.1" xmlns="http://www.w3.org/2000/svg" xmlns:xlink="http://www.w3.org/1999/xlink">
    <!-- Generator: sketchtool 41.2 (35397) - http://www.bohemiancoding.com/sketch -->
    <title>CC4D61C9-7C6E-4FFC-8853-1B1AA223A0DF</title>
    <desc>Created with sketchtool.</desc>
    <defs></defs>
    <g id="Page-1" stroke="none" stroke-width="1" fill="none" fill-rule="evenodd">
        <g id="6.4.1-Карточка-проекта_список-новостей" transform="translate(-1241.000000, -111.000000)" fill="#FFA000">
            <path d="M1252.9833,114.253921 L1252.9833,132.423603 C1252.9833,132.956464 1252.76129,133.463121 1252.37357,133.812011 C1252.05143,134.102782 1251.63979,134.260549 1251.21686,134.260549 C1251.13926,134.260549 1251.06035,134.254719 1250.98282,134.244562 L1242.53103,133.065488 C1241.65835,132.943362 1241,132.161199 1241,131.245251 L1241,114.014836 C1241,113.098948 1241.65835,112.316725 1242.53037,112.194599 L1250.98282,111.015525 C1251.47764,110.947911 1251.99151,111.102793 1252.37357,111.448076 C1252.76129,111.796966 1252.9833,112.302181 1252.9833,112.835763 L1252.9833,113.179604 L1255.22623,113.179604 C1256.19826,113.179604 1256.9892,113.995243 1256.9892,114.997678 L1256.9892,131.352832 C1256.9892,131.754852 1256.87699,132.037991 1256.48723,132.037991 C1256.09741,132.037991 1255.98418,131.754852 1255.98418,131.352832 L1255.98418,114.997678 C1255.98418,114.232825 1255.23032,114.253861 1255.22623,114.253921 L1252.9833,114.253921 Z M1251.17172,133.213458 C1251.18254,133.214961 1252.01969,133.328673 1252.01969,132.423603 L1252.01969,112.835763 C1252.01969,112.060632 1251.46483,111.955815 1251.06744,112.017419 L1242.61565,113.195771 C1242.20354,113.253349 1241.96247,113.566719 1241.96247,114.014836 L1241.96247,131.245251 C1241.96247,131.958116 1242.70532,132.032522 1242.71927,132.034385 L1251.17172,133.213458 Z M1249.52265,123.951858 C1249.87671,123.951858 1250.16369,123.655858 1250.16369,123.290741 C1250.16369,122.925683 1249.87671,122.629683 1249.52265,122.629683 C1249.16859,122.629683 1248.88161,122.925683 1248.88161,123.290741 C1248.88161,123.655858 1249.16859,123.951858 1249.52265,123.951858 L1249.52265,123.951858 Z" id="Page-1-Copy-3"></path>
        </g>
    </g>
</svg>