<svg id="SvgjsSvg1017" xmlns="http://www.w3.org/2000/svg" version="1.1" xmlns:xlink="http://www.w3.org/1999/xlink" xmlns:svgjs="http://svgjs.com/svgjs" width="102" height="43" viewBox="0 0 102 43"><title>logo</title><desc>Created with Avocode.</desc><defs id="SvgjsDefs1018"></defs><path id="SvgjsPath1019" d="M247.1 106.77C247.73999999999998 106.92 248.12 107.02 248.12 107.58C248.12 107.86 247.94 108.32 247.23000000000002 108.32C246.72000000000003 108.32 240.04000000000002 107.55 237.96 102.64999999999999C232.91 101.83999999999999 231 97.60999999999999 231 93.49C231 87.19999999999999 234.72 84 239.15 84C243.96 84 247.23000000000002 87.81 247.23000000000002 93.28999999999999C247.23000000000002 96.30999999999999 246.13000000000002 100.69999999999999 241.58 102.39999999999999C242.42000000000002 105.27 245.57000000000002 106.35999999999999 247.10000000000002 106.77ZM278.08 84.41C278.37 84.41 278.59 84.41 278.59 84.74C278.59 84.83999999999999 278.57 84.94999999999999 278.52 85.19999999999999L273.83 101.82C273.7 102.22999999999999 273.62 102.32 273.27 102.32L272.01 102.32C271.76 102.3 271.68 102.22999999999999 271.56 101.83999999999999L267.91 91.00999999999999L264.5 101.82C264.37 102.19999999999999 264.32 102.27999999999999 264.07 102.3C263.99 102.32 263.3 102.32 262.93 102.32C262.47 102.32 262.33 102.25 262.21 101.83999999999999L257.44 85.19999999999999C257.36 84.91999999999999 257.36 84.88999999999999 257.36 84.78999999999999C257.36 84.49 257.6 84.41 257.85 84.41L260.24 84.41C260.67 84.41 260.78000000000003 84.42999999999999 260.91 84.97L263.84000000000003 96.53999999999999L267.41 84.91999999999999C267.53000000000003 84.55999999999999 267.58000000000004 84.40999999999998 267.86 84.40999999999998L268.84000000000003 84.40999999999998C269.01000000000005 84.46999999999998 269.03000000000003 84.50999999999998 269.19000000000005 84.98999999999998L272.81000000000006 96.53999999999998L275.76000000000005 84.91999999999997C275.86000000000007 84.50999999999998 276.00000000000006 84.40999999999997 276.35 84.40999999999997ZM239.1 100.63C240.35 100.63 241.73 99.96 242.64 98.36999999999999C243.51 96.82 243.66 94.67999999999999 243.64 93.19C243.64 91.97 243.48 89.72 242.42 88.06C241.26999999999998 86.29 239.70999999999998 86.14 239.13 86.14C237.9 86.14 236.57999999999998 86.8 235.71 88.14C234.82000000000002 89.57000000000001 234.59 91.59 234.59 93.29C234.59 94.86 234.8 96.97000000000001 235.71 98.52000000000001C236.99 100.63000000000001 238.77 100.63000000000001 239.1 100.63000000000001ZM253.55 84.41C253.93 84.41 254.08 84.49 254.08 84.95L254.08 101.76C254.08 102.25 253.86 102.32000000000001 253.53 102.32000000000001L251.15 102.32000000000001C250.8 102.30000000000001 250.6 102.23 250.6 101.76L250.6 84.95C250.62 84.59 250.67 84.41 251.13 84.41ZM282.43 84.41C281.97 84.41 281.92 84.59 281.90000000000003 84.95L281.90000000000003 101.76C281.90000000000003 102.23 282.1 102.30000000000001 282.46000000000004 102.32000000000001L284.83000000000004 102.32000000000001C285.16 102.32000000000001 285.39000000000004 102.25000000000001 285.39000000000004 101.76L285.39000000000004 84.95C285.39000000000004 84.49000000000001 285.23 84.41 284.86000000000007 84.41Z " fill="#0023a0" fill-opacity="1" transform="matrix(1,0,0,1,-184,-74)"></path><path id="SvgjsPath1020" d="M220.1 110.02C219.32 109.56 218.44 109.24 217.68 108.99C215.92000000000002 108.42 214.22 108.28999999999999 212.24 107.94999999999999C210.62 107.67999999999999 209.35000000000002 107.01999999999998 207.98000000000002 106.08999999999999C207.27 105.60999999999999 206.69000000000003 104.93999999999998 206.20000000000002 104.24C206.11 104.1 205.66000000000003 103.55 205.70000000000002 103.36C205.70000000000002 103.36 205.39000000000001 104.62 206.01000000000002 106.39C200.25000000000003 106.14 195.19000000000003 102.95 192.87 99.09C188.61 91.98 190.11 83.37 195.8 79.57000000000001C201.48000000000002 75.76 210.15 78.45 214.78 85.31C217.7 89.62 218.44 94.64 217.19 98.72C217.19 98.75 217.17 98.78 217.16 98.81C214.7 97.02 212.45 97.93 212.45 97.93C214.92 97.68 216.86999999999998 99.64 216.86999999999998 99.64C217.15999999999997 99.89 217.42999999999998 100.17 217.67999999999998 100.49C217.73999999999998 100.55999999999999 217.79999999999998 100.64 217.84999999999997 100.72C218.49999999999997 101.6 218.89999999999998 102.57 219.07999999999996 103.55C223.97999999999996 97.36 224.78999999999996 88.78 220.44999999999996 82.11C214.91999999999996 73.62 203.12999999999997 71.45 194.12999999999997 77.26C185.11999999999998 83.08000000000001 182.29999999999995 94.67 187.82999999999996 103.17C192.37999999999997 110.15 203.02999999999994 112.29 209.13999999999996 110.36C211.44999999999996 109.64 219.35999999999996 108.95 224.86999999999995 115.42C224.86999999999995 115.42 225.33999999999995 115.97 225.59999999999994 116.58C225.59999999999994 116.58 225.67999999999995 116.8 225.87999999999994 116.69C225.93999999999994 116.67 226.08999999999995 116.49 225.56999999999994 115.45C224.39999999999995 113.08 222.33999999999995 111.35000000000001 220.09999999999994 110.02000000000001ZM214.21 103.97C214.20000000000002 103.97 214.19 103.96 214.18 103.96C214.17000000000002 103.94999999999999 214.16 103.94999999999999 214.15 103.94999999999999C214.14000000000001 103.94999999999999 214.13 103.94999999999999 214.12 103.93999999999998C214.1 103.93999999999998 214.08 103.92999999999998 214.06 103.91999999999999C213.81 103.87999999999998 213.55 103.91999999999999 213.34 104.04999999999998C212.86 104.37999999999998 212.79 105.10999999999999 213.18 105.68999999999998C213.37 105.94999999999999 213.61 106.13999999999999 213.87 106.23999999999998C213.88 106.23999999999998 213.88 106.23999999999998 213.89000000000001 106.23999999999998C213.9 106.24999999999999 213.91000000000003 106.24999999999999 213.92000000000002 106.24999999999999C213.93 106.25999999999999 213.95000000000002 106.25999999999999 213.96 106.25999999999999C213.97 106.25999999999999 213.97 106.27 213.98000000000002 106.27C214.00000000000003 106.27 214.02 106.28 214.04000000000002 106.28C214.29000000000002 106.33 214.55 106.3 214.76000000000002 106.16C215.24 105.83 215.31000000000003 105.1 214.92000000000002 104.52C214.74 104.25999999999999 214.50000000000003 104.07 214.23000000000002 103.97999999999999C214.23000000000002 103.96999999999998 214.22000000000003 103.96999999999998 214.21 103.96999999999998ZM217.43 102.64C217.84 102.79 218.08 103.45 218.15 103.77C218.31 104.49 218.06 104.78999999999999 217.84 104.66C217.62 104.55 217.31 103.99 217.09 103.27C216.99 102.96 217.02 102.49 217.43 102.64Z " fill="#ffa000" fill-opacity="1" transform="matrix(1,0,0,1,-184,-74)"></path></svg>