<svg id="SvgjsSvg1104" xmlns="http://www.w3.org/2000/svg" version="1.1" xmlns:xlink="http://www.w3.org/1999/xlink" xmlns:svgjs="http://svgjs.com/svgjs" width="59.11026802593801" height="51.860528436493496" viewBox="0 0 59.11026802593801 51.860528436493496"><title>Stroke 132</title><desc>Created with Avocode.</desc><defs id="SvgjsDefs1105"></defs><path id="SvgjsPath1106" d="M436.92 1510.02L410.38 1527.44C410.05 1527.66 409.61 1527.66 409.28 1527.43L383.44 1510.01C382.85 1509.61 382.85 1508.74 383.44 1508.35L409.28 1491.1699999999998C409.60999999999996 1490.9499999999998 410.03999999999996 1490.9399999999998 410.38 1491.1599999999999L436.90999999999997 1508.34C437.52 1508.74 437.52 1509.62 436.91999999999996 1510.02Z " fill-opacity="0" fill="#ffffff" stroke-dasharray="0" stroke-linejoin="miter" stroke-linecap="butt" stroke-opacity="1" stroke="#ffa000" stroke-miterlimit="50" stroke-width="2" transform="matrix(1,0,0,1,-379,-1489.7421917464658)"></path><path id="SvgjsPath1107" d="M426 1517L426 1532.77C426 1532.93 425.97 1533.08 425.9 1533.22C425.25 1534.49 421.39 1541 410 1541C398.61 1541 394.75 1534.49 394.1 1533.22C394.03000000000003 1533.08 394 1532.93 394 1532.77L394 1517 " fill-opacity="0" fill="#ffffff" stroke-dasharray="0" stroke-linejoin="miter" stroke-linecap="butt" stroke-opacity="1" stroke="#ffa000" stroke-miterlimit="50" stroke-width="2" transform="matrix(1,0,0,1,-379,-1489.7421917464658)"></path><path id="SvgjsPath1108" d="M417 1535.03C415.07 1535.62 412.75 1536 410 1536C397.37 1536 394 1528 394 1528 " fill-opacity="0" fill="#ffffff" stroke-dasharray="0" stroke-linejoin="miter" stroke-linecap="butt" stroke-opacity="1" stroke="#ffa000" stroke-miterlimit="50" stroke-width="2" transform="matrix(1,0,0,1,-379,-1489.7421917464658)"></path><path id="SvgjsPath1109" d="M426 1528C426 1528 424.77 1530.93 421 1533.24 " fill-opacity="0" fill="#ffffff" stroke-dasharray="0" stroke-linejoin="miter" stroke-linecap="butt" stroke-opacity="1" stroke="#ffa000" stroke-miterlimit="50" stroke-width="2" transform="matrix(1,0,0,1,-379,-1489.7421917464658)"></path><path id="SvgjsPath1110" d="M384 1511L384 1521 " fill-opacity="0" fill="#ffffff" stroke-dasharray="0" stroke-linejoin="miter" stroke-linecap="round" stroke-opacity="1" stroke="#ffa000" stroke-miterlimit="50" stroke-width="2" transform="matrix(1,0,0,1,-379,-1489.7421917464658)"></path><path id="SvgjsPath1111" d="M384.97 1523.7C384.67 1522.77 383.36 1522.77 383.06 1523.69C382.17 1526.49 380.96 1531.03 381 1535.01C381.06 1541.33 384 1540.01 384 1540.01C384 1540.01 387 1541.83 387 1535.01C387 1530.78 385.84 1526.41 384.97 1523.7Z " fill-opacity="0" fill="#ffffff" stroke-dasharray="0" stroke-linejoin="miter" stroke-linecap="round" stroke-opacity="1" stroke="#ffa000" stroke-miterlimit="50" stroke-width="2" transform="matrix(1,0,0,1,-379,-1489.7421917464658)"></path></svg>