<svg id="SvgjsSvg1055" xmlns="http://www.w3.org/2000/svg" version="1.1" xmlns:xlink="http://www.w3.org/1999/xlink" xmlns:svgjs="http://svgjs.com/svgjs" width="49" height="49" viewBox="0 0 49 49"><title>Fill 12</title><desc>Created with Avocode.</desc><defs id="SvgjsDefs1056"></defs><path id="SvgjsPath1057" d="M385 1210.5C385 1224.03 395.97 1235 409.5 1235C423.03 1235 434 1224.03 434 1210.5C434 1196.97 423.03 1186 409.5 1186C395.97 1186 385 1196.97 385 1210.5ZM432 1210.5C432 1222.91 421.91 1233 409.5 1233C397.09 1233 387 1222.91 387 1210.5C387 1198.09 397.09 1188 409.5 1188C421.91 1188 432 1198.09 432 1210.5Z " fill="#ffa000" fill-opacity="1" transform="matrix(1,0,0,1,-385,-1186)"></path><path id="SvgjsPath1058" d="M417.34 1192.92C423.65 1196.01 428 1202.5 428 1210C428 1220.49 419.49 1229 409 1229C398.51 1229 390 1220.49 390 1210C390 1199.51 398.51 1191 409 1191C409.94 1191 410.87 1191.07 411.78 1191.2 " fill-opacity="0" fill="#ffffff" stroke-dasharray="0" stroke-linejoin="round" stroke-linecap="butt" stroke-opacity="1" stroke="#ffa000" stroke-miterlimit="50" stroke-width="2" transform="matrix(1,0,0,1,-385,-1186)"></path><path id="SvgjsPath1059" d="M403 1199L403 1221L418.53 1209.35Z " fill-opacity="0" fill="#ffffff" stroke-dasharray="0" stroke-linejoin="round" stroke-linecap="butt" stroke-opacity="1" stroke="#ffa000" stroke-miterlimit="50" stroke-width="2" transform="matrix(1,0,0,1,-385,-1186)"></path></svg>