<svg id="SvgjsSvg1047" xmlns="http://www.w3.org/2000/svg" version="1.1" xmlns:xlink="http://www.w3.org/1999/xlink" xmlns:svgjs="http://svgjs.com/svgjs" width="60" height="32" viewBox="0 0 60 32"><title>Fill 6</title><desc>Created with Avocode.</desc><defs id="SvgjsDefs1048"></defs><path id="SvgjsPath1049" d="M540 1048C533.4 1048 528 1053.4 528 1060L528 1068C528 1074.6 533.4 1080 540 1080L576 1080C582.6 1080 588 1074.6 588 1068L588 1060C588 1053.4 582.6 1048 576 1048ZM586 1060L586 1068C586 1073.51 581.51 1078 576 1078L540 1078C534.49 1078 530 1073.51 530 1068L530 1060C530 1054.49 534.49 1050 540 1050L576 1050C581.51 1050 586 1054.49 586 1060Z " fill="#ffa000" fill-opacity="1" transform="matrix(1,0,0,1,-528,-1048)"></path><path id="SvgjsPath1050" d="M543 1051C542.45 1051 542 1051.45 542 1052L542 1076C542 1076.55 542.45 1077 543 1077L573 1077C573.55 1077 574 1076.55 574 1076L574 1052C574 1051.45 573.55 1051 573 1051ZM572 1075L544 1075L544 1053L572 1053Z " fill="#ffa000" fill-opacity="1" transform="matrix(1,0,0,1,-528,-1048)"></path><path id="SvgjsPath1051" d="M567 1055L569.08 1055C569.59 1055 570 1055.86 570 1056.39L570 1071.6200000000001C570 1072.14 569.59 1073.0000000000002 569.08 1073.0000000000002L546.9200000000001 1073.0000000000002C546.4100000000001 1073.0000000000002 546.0000000000001 1072.1400000000003 546.0000000000001 1071.6200000000001L546.0000000000001 1056.39C546.0000000000001 1055.8600000000001 546.4100000000001 1055 546.9200000000001 1055L562.0000000000001 1055 " fill-opacity="0" fill="#ffffff" stroke-dasharray="0" stroke-linejoin="round" stroke-linecap="round" stroke-opacity="1" stroke="#ffa000" stroke-miterlimit="50" stroke-width="2" transform="matrix(1,0,0,1,-528,-1048)"></path><path id="SvgjsPath1052" d="M576 1064C576 1066.21 577.79 1068 580 1068C582.21 1068 584 1066.21 584 1064C584 1061.79 582.21 1060 580 1060C577.79 1060 576 1061.79 576 1064ZM582 1064C582 1065.1 581.1 1066 580 1066C578.9 1066 578 1065.1 578 1064C578 1062.9 578.9 1062 580 1062C581.1 1062 582 1062.9 582 1064Z " fill="#ffa000" fill-opacity="1" transform="matrix(1,0,0,1,-528,-1048)"></path><path id="SvgjsPath1053" d="M533 1064L539 1064 " fill-opacity="0" fill="#ffffff" stroke-dasharray="0" stroke-linejoin="round" stroke-linecap="round" stroke-opacity="1" stroke="#ffa000" stroke-miterlimit="50" stroke-width="2" transform="matrix(1,0,0,1,-528,-1048)"></path><path id="SvgjsPath1054" d="M536 1067L536 1061 " fill-opacity="0" fill="#ffffff" stroke-dasharray="0" stroke-linejoin="round" stroke-linecap="round" stroke-opacity="1" stroke="#ffa000" stroke-miterlimit="50" stroke-width="2" transform="matrix(1,0,0,1,-528,-1048)"></path></svg>