<svg id="SvgjsSvg1226" xmlns="http://www.w3.org/2000/svg" version="1.1" xmlns:xlink="http://www.w3.org/1999/xlink" xmlns:svgjs="http://svgjs.com/svgjs" width="60" height="60.55595263952773" viewBox="0 0 60 60.55595263952773"><title>Stroke 1</title><desc>Created with Avocode.</desc><defs id="SvgjsDefs1227"></defs><path id="SvgjsPath1228" d="M273.5 1521.5L275 1533.32C275 1533.48 274.97 1533.6299999999999 274.9 1533.77C274.25 1535.04 270.39 1541.55 259 1541.55C247.61 1541.55 243.75 1535.04 243.1 1533.77C243.03 1533.6299999999999 243 1533.48 243 1533.32L244.5 1520 " fill-opacity="0" fill="#ffffff" stroke-dasharray="0" stroke-linejoin="miter" stroke-linecap="butt" stroke-opacity="1" stroke="#ffffff" stroke-miterlimit="50" stroke-width="2" transform="matrix(1,0,0,1,-229,-1482)"></path><path id="SvgjsPath1229" d="M266 1536.03C264.07 1536.62 261.75 1537 259 1537C246.37 1537 243 1529 243 1529 " fill-opacity="0" fill="#ffffff" stroke-dasharray="0" stroke-linejoin="miter" stroke-linecap="butt" stroke-opacity="1" stroke="#ffffff" stroke-miterlimit="50" stroke-width="2" transform="matrix(1,0,0,1,-229,-1482)"></path><path id="SvgjsPath1230" d="M243 1509.37C244.84 1498.5 251.84 1495.5 253.34 1495 " fill-opacity="0" fill="#ffffff" stroke-dasharray="0" stroke-linejoin="miter" stroke-linecap="butt" stroke-opacity="1" stroke="#ffffff" stroke-miterlimit="50" stroke-width="2" transform="matrix(1,0,0,1,-229,-1482)"></path><path id="SvgjsPath1231" d="M258 1494.03C264 1493.66 266.43 1496.3799999999999 266.43 1496.3799999999999 " fill-opacity="0" fill="#ffffff" stroke-dasharray="0" stroke-linejoin="miter" stroke-linecap="butt" stroke-opacity="1" stroke="#ffffff" stroke-miterlimit="50" stroke-width="2" transform="matrix(1,0,0,1,-229,-1482)"></path><path id="SvgjsPath1232" d="M275 1529C275 1529 273.77 1531.93 270 1534.24 " fill-opacity="0" fill="#ffffff" stroke-dasharray="0" stroke-linejoin="miter" stroke-linecap="butt" stroke-opacity="1" stroke="#ffffff" stroke-miterlimit="50" stroke-width="2" transform="matrix(1,0,0,1,-229,-1482)"></path><path id="SvgjsPath1233" d="M259.5 1528C270.27 1528 279 1519.27 279 1508.5C279 1497.73 270.27 1489 259.5 1489C248.73 1489 240 1497.73 240 1508.5C240 1519.27 248.73 1528 259.5 1528Z " fill-opacity="0" fill="#ffffff" stroke-dasharray="0" stroke-linejoin="miter" stroke-linecap="butt" stroke-opacity="1" stroke="#ffffff" stroke-miterlimit="50" stroke-width="2" transform="matrix(1,0,0,1,-229,-1482)"></path><path id="SvgjsPath1234" d="M242 1490C243.1 1490 244 1489.1 244 1488C244 1486.9 243.1 1486 242 1486C240.9 1486 240 1486.9 240 1488C240 1489.1 240.9 1490 242 1490Z " fill-opacity="0" fill="#ffffff" stroke-dasharray="0" stroke-linejoin="miter" stroke-linecap="butt" stroke-opacity="1" stroke="#ffffff" stroke-miterlimit="50" stroke-width="2" transform="matrix(1,0,0,1,-229,-1482)"></path><path id="SvgjsPath1235" d="M233.63 1501.26C234.53 1501.26 235.26 1500.53 235.26 1499.6299999999999C235.26 1498.7299999999998 234.53 1497.9999999999998 233.63 1497.9999999999998C232.73 1497.9999999999998 232 1498.7299999999998 232 1499.6299999999999C232 1500.53 232.73 1501.26 233.63 1501.26Z " fill-opacity="0" fill="#ffffff" stroke-dasharray="0" stroke-linejoin="miter" stroke-linecap="butt" stroke-opacity="1" stroke="#ffffff" stroke-miterlimit="50" stroke-width="2" transform="matrix(1,0,0,1,-229,-1482)"></path><path id="SvgjsPath1236" d="M234 1497L234 1495 " fill-opacity="0" fill="#ffffff" stroke-dasharray="0" stroke-linejoin="miter" stroke-linecap="square" stroke-opacity="1" stroke="#ffffff" stroke-miterlimit="50" stroke-width="2" transform="matrix(1,0,0,1,-229,-1482)"></path><path id="SvgjsPath1237" d="M234 1503L234 1501 " fill-opacity="0" fill="#ffffff" stroke-dasharray="0" stroke-linejoin="miter" stroke-linecap="square" stroke-opacity="1" stroke="#ffffff" stroke-miterlimit="50" stroke-width="2" transform="matrix(1,0,0,1,-229,-1482)"></path><path id="SvgjsPath1238" d="M232 1499L230 1499 " fill-opacity="0" fill="#ffffff" stroke-dasharray="0" stroke-linejoin="miter" stroke-linecap="square" stroke-opacity="1" stroke="#ffffff" stroke-miterlimit="50" stroke-width="2" transform="matrix(1,0,0,1,-229,-1482)"></path><path id="SvgjsPath1239" d="M238 1499L236 1499 " fill-opacity="0" fill="#ffffff" stroke-dasharray="0" stroke-linejoin="miter" stroke-linecap="square" stroke-opacity="1" stroke="#ffffff" stroke-miterlimit="50" stroke-width="2" transform="matrix(1,0,0,1,-229,-1482)"></path><path id="SvgjsPath1240" d="M284 1496L284 1494 " fill-opacity="0" fill="#ffffff" stroke-dasharray="0" stroke-linejoin="miter" stroke-linecap="square" stroke-opacity="1" stroke="#ffffff" stroke-miterlimit="50" stroke-width="2" transform="matrix(1,0,0,1,-229,-1482)"></path><path id="SvgjsPath1241" d="M284 1503L284 1501 " fill-opacity="0" fill="#ffffff" stroke-dasharray="0" stroke-linejoin="miter" stroke-linecap="square" stroke-opacity="1" stroke="#ffffff" stroke-miterlimit="50" stroke-width="2" transform="matrix(1,0,0,1,-229,-1482)"></path><path id="SvgjsPath1242" d="M288 1499L286 1499 " fill-opacity="0" fill="#ffffff" stroke-dasharray="0" stroke-linejoin="miter" stroke-linecap="square" stroke-opacity="1" stroke="#ffffff" stroke-miterlimit="50" stroke-width="2" transform="matrix(1,0,0,1,-229,-1482)"></path><path id="SvgjsPath1243" d="M282 1499L280 1499 " fill-opacity="0" fill="#ffffff" stroke-dasharray="0" stroke-linejoin="miter" stroke-linecap="square" stroke-opacity="1" stroke="#ffffff" stroke-miterlimit="50" stroke-width="2" transform="matrix(1,0,0,1,-229,-1482)"></path><path id="SvgjsPath1244" d="M242 1485L242 1483 " fill-opacity="0" fill="#ffffff" stroke-dasharray="0" stroke-linejoin="miter" stroke-linecap="square" stroke-opacity="1" stroke="#ffffff" stroke-miterlimit="50" stroke-width="2" transform="matrix(1,0,0,1,-229,-1482)"></path><path id="SvgjsPath1245" d="M242 1493L242 1491 " fill-opacity="0" fill="#ffffff" stroke-dasharray="0" stroke-linejoin="miter" stroke-linecap="square" stroke-opacity="1" stroke="#ffffff" stroke-miterlimit="50" stroke-width="2" transform="matrix(1,0,0,1,-229,-1482)"></path><path id="SvgjsPath1246" d="M239 1488L237 1488 " fill-opacity="0" fill="#ffffff" stroke-dasharray="0" stroke-linejoin="miter" stroke-linecap="square" stroke-opacity="1" stroke="#ffffff" stroke-miterlimit="50" stroke-width="2" transform="matrix(1,0,0,1,-229,-1482)"></path><path id="SvgjsPath1247" d="M246 1488L244 1488 " fill-opacity="0" fill="#ffffff" stroke-dasharray="0" stroke-linejoin="miter" stroke-linecap="square" stroke-opacity="1" stroke="#ffffff" stroke-miterlimit="50" stroke-width="2" transform="matrix(1,0,0,1,-229,-1482)"></path><path id="SvgjsPath1248" d="M284 1501C285.1 1501 286 1500.1 286 1499C286 1497.9 285.1 1497 284 1497C282.9 1497 282 1497.9 282 1499C282 1500.1 282.9 1501 284 1501Z " fill-opacity="0" fill="#ffffff" stroke-dasharray="0" stroke-linejoin="miter" stroke-linecap="butt" stroke-opacity="1" stroke="#ffffff" stroke-miterlimit="50" stroke-width="2" transform="matrix(1,0,0,1,-229,-1482)"></path></svg>