<svg id="SvgjsSvg1218" xmlns="http://www.w3.org/2000/svg" version="1.1" xmlns:xlink="http://www.w3.org/1999/xlink" xmlns:svgjs="http://svgjs.com/svgjs" width="59.11026802593739" height="51.860528436511004" viewBox="0 0 59.11026802593739 51.860528436511004"><title>Stroke 132</title><desc>Created with Avocode.</desc><defs id="SvgjsDefs1219"></defs><path id="SvgjsPath1220" d="M136.92 1508.02L110.38 1525.44C110.05 1525.66 109.61 1525.66 109.28 1525.43L83.44 1508.01C82.85 1507.61 82.85 1506.74 83.44 1506.35L109.28 1489.1699999999998C109.61 1488.9499999999998 110.04 1488.9399999999998 110.38 1489.1599999999999L136.91 1506.34C137.52 1506.74 137.52 1507.62 136.92 1508.02Z " fill-opacity="0" fill="#ffffff" stroke-dasharray="0" stroke-linejoin="miter" stroke-linecap="butt" stroke-opacity="1" stroke="#ffffff" stroke-miterlimit="50" stroke-width="2" transform="matrix(1,0,0,1,-79,-1487.7421917464483)"></path><path id="SvgjsPath1221" d="M126 1515L126 1530.77C126 1530.93 125.97 1531.08 125.9 1531.22C125.25 1532.49 121.39 1539 110 1539C98.61 1539 94.75 1532.49 94.1 1531.22C94.03 1531.08 94 1530.93 94 1530.77L94 1515 " fill-opacity="0" fill="#ffffff" stroke-dasharray="0" stroke-linejoin="miter" stroke-linecap="butt" stroke-opacity="1" stroke="#ffffff" stroke-miterlimit="50" stroke-width="2" transform="matrix(1,0,0,1,-79,-1487.7421917464483)"></path><path id="SvgjsPath1222" d="M117 1533.03C115.07 1533.62 112.75 1534 110 1534C97.37 1534 94 1526 94 1526 " fill-opacity="0" fill="#ffffff" stroke-dasharray="0" stroke-linejoin="miter" stroke-linecap="butt" stroke-opacity="1" stroke="#ffffff" stroke-miterlimit="50" stroke-width="2" transform="matrix(1,0,0,1,-79,-1487.7421917464483)"></path><path id="SvgjsPath1223" d="M126 1526C126 1526 124.77 1528.93 121 1531.24 " fill-opacity="0" fill="#ffffff" stroke-dasharray="0" stroke-linejoin="miter" stroke-linecap="butt" stroke-opacity="1" stroke="#ffffff" stroke-miterlimit="50" stroke-width="2" transform="matrix(1,0,0,1,-79,-1487.7421917464483)"></path><path id="SvgjsPath1224" d="M84 1509L84 1519 " fill-opacity="0" fill="#ffffff" stroke-dasharray="0" stroke-linejoin="miter" stroke-linecap="round" stroke-opacity="1" stroke="#ffffff" stroke-miterlimit="50" stroke-width="2" transform="matrix(1,0,0,1,-79,-1487.7421917464483)"></path><path id="SvgjsPath1225" d="M84.97 1521.7C84.67 1520.77 83.36 1520.77 83.06 1521.69C82.17 1524.49 80.96000000000001 1529.03 81 1533.01C81.06 1539.33 84 1538.01 84 1538.01C84 1538.01 87 1539.83 87 1533.01C87 1528.78 85.84 1524.41 84.97 1521.7Z " fill-opacity="0" fill="#ffffff" stroke-dasharray="0" stroke-linejoin="miter" stroke-linecap="round" stroke-opacity="1" stroke="#ffffff" stroke-miterlimit="50" stroke-width="2" transform="matrix(1,0,0,1,-79,-1487.7421917464483)"></path></svg>