<svg id="SvgjsSvg1075" xmlns="http://www.w3.org/2000/svg" version="1.1" xmlns:xlink="http://www.w3.org/1999/xlink" xmlns:svgjs="http://svgjs.com/svgjs" width="55" height="60.3225099481167" viewBox="0 0 55 60.3225099481167"><title>Stroke 95</title><desc>Created with Avocode.</desc><defs id="SvgjsDefs1076"></defs><path id="SvgjsPath1077" d="M436 1380.5C436 1386.85 430.85 1392 424.5 1392C418.15 1392 413 1386.85 413 1380.5C413 1374.15 418.15 1369 424.5 1369C430.85 1369 436 1374.15 436 1380.5Z " fill-opacity="0" fill="#ffffff" stroke-dasharray="0" stroke-linejoin="miter" stroke-linecap="butt" stroke-opacity="1" stroke="#ffa000" stroke-miterlimit="50" stroke-width="2" transform="matrix(1,0,0,1,-382,-1332.6774900518833)"></path><path id="SvgjsPath1078" d="M406 1380.5C406 1386.85 400.85 1392 394.5 1392C388.15 1392 383 1386.85 383 1380.5C383 1374.15 388.15 1369 394.5 1369C400.85 1369 406 1374.15 406 1380.5Z " fill-opacity="0" fill="#ffffff" stroke-dasharray="0" stroke-linejoin="miter" stroke-linecap="butt" stroke-opacity="1" stroke="#ffa000" stroke-miterlimit="50" stroke-width="2" transform="matrix(1,0,0,1,-382,-1332.6774900518833)"></path><path id="SvgjsPath1079" d="M402 1380.5C402 1384.64 398.64 1388 394.5 1388C390.36 1388 387 1384.64 387 1380.5C387 1376.36 390.36 1373 394.5 1373C398.64 1373 402 1376.36 402 1380.5Z " fill-opacity="0" fill="#ffffff" stroke-dasharray="0" stroke-linejoin="miter" stroke-linecap="butt" stroke-opacity="1" stroke="#ffa000" stroke-miterlimit="50" stroke-width="2" transform="matrix(1,0,0,1,-382,-1332.6774900518833)"></path><path id="SvgjsPath1080" d="M430.5 1376C431.44 1377.25 432 1378.81 432 1380.5C432 1384.64 428.64 1388 424.5 1388C420.36 1388 417 1384.64 417 1380.5C417 1376.36 420.36 1373 424.5 1373C425.57 1373 426.58 1373.22 427.5 1373.63 " fill-opacity="0" fill="#ffffff" stroke-dasharray="0" stroke-linejoin="miter" stroke-linecap="butt" stroke-opacity="1" stroke="#ffa000" stroke-miterlimit="50" stroke-width="2" transform="matrix(1,0,0,1,-382,-1332.6774900518833)"></path><path id="SvgjsPath1081" d="M399 1370L429 1334C429 1334 432.5 1339 429 1344C424.23 1350.82 404 1375 404 1375 " fill-opacity="0" fill="#ffffff" stroke-dasharray="0" stroke-linejoin="miter" stroke-linecap="butt" stroke-opacity="1" stroke="#ffa000" stroke-miterlimit="50" stroke-width="2" transform="matrix(1,0,0,1,-382,-1332.6774900518833)"></path><path id="SvgjsPath1082" d="M409 1370C411.71 1373.27 413.56 1375.48 413.56 1375.48 " fill-opacity="0" fill="#ffffff" stroke-dasharray="0" stroke-linejoin="miter" stroke-linecap="butt" stroke-opacity="1" stroke="#ffa000" stroke-miterlimit="50" stroke-width="2" transform="matrix(1,0,0,1,-382,-1332.6774900518833)"></path><path id="SvgjsPath1083" d="M408.56 1358L388.56 1334C388.56 1334 385.06 1339 388.56 1344C391.11 1347.65 398.07 1356.24 404 1363.46 " fill-opacity="0" fill="#ffffff" stroke-dasharray="0" stroke-linejoin="miter" stroke-linecap="butt" stroke-opacity="1" stroke="#ffa000" stroke-miterlimit="50" stroke-width="2" transform="matrix(1,0,0,1,-382,-1332.6774900518833)"></path><path id="SvgjsPath1084" d="M419 1370L414 1364 " fill-opacity="0" fill="#ffffff" stroke-dasharray="0" stroke-linejoin="miter" stroke-linecap="butt" stroke-opacity="1" stroke="#ffa000" stroke-miterlimit="50" stroke-width="2" transform="matrix(1,0,0,1,-382,-1332.6774900518833)"></path><path id="SvgjsPath1085" d="M409 1357.79C409 1357.79 412.22 1356.01 414 1357.79C415.78 1359.57 414 1362.79 414 1362.79 " fill-opacity="0" fill="#ffffff" stroke-dasharray="0" stroke-linejoin="miter" stroke-linecap="butt" stroke-opacity="1" stroke="#ffa000" stroke-miterlimit="50" stroke-width="2" transform="matrix(1,0,0,1,-382,-1332.6774900518833)"></path><path id="SvgjsPath1086" d="M410 1361C409.45 1361 409 1361.45 409 1362C409 1362.55 409.45 1363 410 1363C410.55 1363 411 1362.55 411 1362C411 1361.45 410.55 1361 410 1361 " fill="#ffffff" fill-opacity="1" transform="matrix(1,0,0,1,-382,-1332.6774900518833)"></path><path id="SvgjsPath1087" d="M410 1361C409.45 1361 409 1361.45 409 1362C409 1362.55 409.45 1363 410 1363C410.55 1363 411 1362.55 411 1362C411 1361.45 410.55 1361 410 1361 " fill-opacity="0" fill="#ffffff" stroke-dasharray="0" stroke-linejoin="round" stroke-linecap="butt" stroke-opacity="1" stroke="#ffa000" stroke-miterlimit="50" stroke-width="1" transform="matrix(1,0,0,1,-382,-1332.6774900518833)"></path></svg>