<svg id="SvgjsSvg1202" xmlns="http://www.w3.org/2000/svg" version="1.1" xmlns:xlink="http://www.w3.org/1999/xlink" xmlns:svgjs="http://svgjs.com/svgjs" width="41.16080981082695" height="61" viewBox="0 0 41.16080981082695 61"><title>Fill 147</title><desc>Created with Avocode.</desc><defs id="SvgjsDefs1203"></defs><path id="SvgjsPath1204" d="M240.5 1358C239.39 1358 238 1358.9 238 1360L238 1382C238 1386.42 242.08 1390 246.5 1390L262.5 1390C266.92 1390 270 1386.42 270 1382L270 1360C270 1358.9 269.36 1358 268.25 1358ZM268 1382C268 1385.31 265.81 1388 262.5 1388L246.5 1388C243.19 1388 240 1385.31 240 1382L240 1360L268 1360Z " fill="#ffffff" fill-opacity="1" transform="matrix(1,0,0,1,-237.83919018917305,-1329)"></path><path id="SvgjsPath1205" d="M270 1364C274.42 1364 278 1367.58 278 1372C278 1376.42 274.42 1380 270 1380 " fill-opacity="0" fill="#ffffff" stroke-dasharray="0" stroke-linejoin="miter" stroke-linecap="round" stroke-opacity="1" stroke="#ffffff" stroke-miterlimit="50" stroke-width="2" transform="matrix(1,0,0,1,-237.83919018917305,-1329)"></path><path id="SvgjsPath1206" d="M249 1359L249 1331C249 1330.45 249.45 1330 250 1330L260 1330C260.55 1330 261 1330.45 261 1331L261 1359 " fill-opacity="0" fill="#ffffff" stroke-dasharray="0" stroke-linejoin="miter" stroke-linecap="round" stroke-opacity="1" stroke="#ffffff" stroke-miterlimit="50" stroke-width="2" transform="matrix(1,0,0,1,-237.83919018917305,-1329)"></path><path id="SvgjsPath1207" d="M253 1335L260 1335 " fill-opacity="0" fill="#ffffff" stroke-dasharray="0" stroke-linejoin="miter" stroke-linecap="round" stroke-opacity="1" stroke="#ffffff" stroke-miterlimit="50" stroke-width="2" transform="matrix(1,0,0,1,-237.83919018917305,-1329)"></path><path id="SvgjsPath1208" d="M253 1351L260 1351 " fill-opacity="0" fill="#ffffff" stroke-dasharray="0" stroke-linejoin="miter" stroke-linecap="round" stroke-opacity="1" stroke="#ffffff" stroke-miterlimit="50" stroke-width="2" transform="matrix(1,0,0,1,-237.83919018917305,-1329)"></path><path id="SvgjsPath1209" d="M255 1340L260 1340 " fill-opacity="0" fill="#ffffff" stroke-dasharray="0" stroke-linejoin="miter" stroke-linecap="round" stroke-opacity="1" stroke="#ffffff" stroke-miterlimit="50" stroke-width="2" transform="matrix(1,0,0,1,-237.83919018917305,-1329)"></path><path id="SvgjsPath1210" d="M255 1344L260 1344 " fill-opacity="0" fill="#ffffff" stroke-dasharray="0" stroke-linejoin="miter" stroke-linecap="round" stroke-opacity="1" stroke="#ffffff" stroke-miterlimit="50" stroke-width="2" transform="matrix(1,0,0,1,-237.83919018917305,-1329)"></path><path id="SvgjsPath1211" d="M253 1355L258 1355 " fill-opacity="0" fill="#ffffff" stroke-dasharray="0" stroke-linejoin="miter" stroke-linecap="round" stroke-opacity="1" stroke="#ffffff" stroke-miterlimit="50" stroke-width="2" transform="matrix(1,0,0,1,-237.83919018917305,-1329)"></path><path id="SvgjsPath1212" d="M265 1358.96L267.09 1347L269.08 1347.24L268.25 1358.96 " fill-opacity="0" fill="#ffffff" stroke-dasharray="0" stroke-linejoin="miter" stroke-linecap="round" stroke-opacity="1" stroke="#ffffff" stroke-miterlimit="50" stroke-width="2" transform="matrix(1,0,0,1,-237.83919018917305,-1329)"></path><path id="SvgjsPath1213" d="M265.95 1335C265.95 1335 266.46999999999997 1337.95 266.15999999999997 1339.8C265.84999999999997 1341.6599999999999 264.41999999999996 1341.94 264.03 1344.1499999999999C263.64 1346.36 266.80999999999995 1347.5099999999998 266.80999999999995 1347.5099999999998L268.37999999999994 1347.6999999999998C268.37999999999994 1347.6999999999998 276.4099999999999 1345.5399999999997 271.85999999999996 1338.7399999999998C269.35999999999996 1335.0499999999997 265.94999999999993 1334.9999999999998 265.94999999999993 1334.9999999999998Z " fill-opacity="0" fill="#ffffff" stroke-dasharray="0" stroke-linejoin="miter" stroke-linecap="round" stroke-opacity="1" stroke="#ffffff" stroke-miterlimit="50" stroke-width="2" transform="matrix(1,0,0,1,-237.83919018917305,-1329)"></path><path id="SvgjsPath1214" d="M239 1364L260 1364 " fill-opacity="0" fill="#ffffff" stroke-dasharray="0" stroke-linejoin="miter" stroke-linecap="round" stroke-opacity="1" stroke="#ffffff" stroke-miterlimit="50" stroke-width="2" transform="matrix(1,0,0,1,-237.83919018917305,-1329)"></path><path id="SvgjsPath1215" d="M264 1364L269 1364 " fill-opacity="0" fill="#ffffff" stroke-dasharray="0" stroke-linejoin="miter" stroke-linecap="round" stroke-opacity="1" stroke="#ffffff" stroke-miterlimit="50" stroke-width="2" transform="matrix(1,0,0,1,-237.83919018917305,-1329)"></path><path id="SvgjsPath1216" d="M241.68 1359.06L239 1349.04L242.86 1348L245.81 1359.02 " fill-opacity="0" fill="#ffffff" stroke-dasharray="0" stroke-linejoin="miter" stroke-linecap="round" stroke-opacity="1" stroke="#ffffff" stroke-miterlimit="50" stroke-width="2" transform="matrix(1,0,0,1,-237.83919018917305,-1329)"></path><path id="SvgjsPath1217" d="M239.66 1349.18L239 1339L243.52 1348.14 " fill-opacity="0" fill="#ffffff" stroke-dasharray="0" stroke-linejoin="miter" stroke-linecap="round" stroke-opacity="1" stroke="#ffffff" stroke-miterlimit="50" stroke-width="2" transform="matrix(1,0,0,1,-237.83919018917305,-1329)"></path></svg>