<svg id="SvgjsSvg1174" xmlns="http://www.w3.org/2000/svg" version="1.1" xmlns:xlink="http://www.w3.org/1999/xlink" xmlns:svgjs="http://svgjs.com/svgjs" width="45" height="56.89456566422109" viewBox="0 0 45 56.89456566422109"><title>Fill 106</title><desc>Created with Avocode.</desc><defs id="SvgjsDefs1175"></defs><path id="SvgjsPath1176" d="M237 1218C236.45 1218 236 1218.45 236 1219L243 1240C243 1240.55 243.45 1241 244 1241L273 1241C273.55 1241 274 1240.55 274 1240L281 1219C281 1218.45 280.55 1218 280 1218ZM278.53 1220L272.21999999999997 1239L244.77999999999997 1239L238.43999999999997 1220Z " fill="#ffffff" fill-opacity="1" transform="matrix(1,0,0,1,-236,-1184.105434335779)"></path><path id="SvgjsPath1177" d="M238.31 1219C238.38 1218.74 237.57 1216.46 238.31 1215C239.46 1212.72 241.31 1210 241.31 1210 " fill-opacity="0" fill="#ffffff" stroke-dasharray="0" stroke-linejoin="miter" stroke-linecap="butt" stroke-opacity="1" stroke="#ffffff" stroke-miterlimit="50" stroke-width="2" transform="matrix(1,0,0,1,-236,-1184.105434335779)"></path><path id="SvgjsPath1178" d="M253.37 1219C253.37 1219 243.37 1215.33 240.37 1208C238.67000000000002 1203.85 243.37 1199 243.37 1199C243.37 1199 243.82 1204.57 250.37 1206C276.62 1211.75 277.37 1219 277.37 1219 " fill-opacity="0" fill="#ffffff" stroke-dasharray="0" stroke-linejoin="miter" stroke-linecap="butt" stroke-opacity="1" stroke="#ffffff" stroke-miterlimit="50" stroke-width="2" transform="matrix(1,0,0,1,-236,-1184.105434335779)"></path><path id="SvgjsPath1179" d="M244 1199C244 1199 244.25 1196.88 255 1199C261.87 1200.36 264 1194 264 1194C264 1194 271.63 1197.63 275 1205C278.37 1212.37 275 1216 275 1216 " fill-opacity="0" fill="#ffffff" stroke-dasharray="0" stroke-linejoin="miter" stroke-linecap="butt" stroke-opacity="1" stroke="#ffffff" stroke-miterlimit="50" stroke-width="2" transform="matrix(1,0,0,1,-236,-1184.105434335779)"></path><path id="SvgjsPath1180" d="M256 1198.74C254.78 1197.73 254 1196.21 254 1194.5C254 1191.46 256.46 1189 259.5 1189C262.54 1189 265 1191.46 265 1194.5 " fill-opacity="0" fill="#ffffff" stroke-dasharray="0" stroke-linejoin="miter" stroke-linecap="butt" stroke-opacity="1" stroke="#ffffff" stroke-miterlimit="50" stroke-width="2" transform="matrix(1,0,0,1,-236,-1184.105434335779)"></path><path id="SvgjsPath1181" d="M256 1193.2C256 1193 253.91 1188.23 250 1186.2C246.42 1184.3400000000001 241 1185.2 241 1185.2 " fill-opacity="0" fill="#ffffff" stroke-dasharray="0" stroke-linejoin="miter" stroke-linecap="butt" stroke-opacity="1" stroke="#ffffff" stroke-miterlimit="50" stroke-width="2" transform="matrix(1,0,0,1,-236,-1184.105434335779)"></path><path id="SvgjsPath1182" d="M266 1200L268 1202 " fill-opacity="0" fill="#ffffff" stroke-dasharray="0" stroke-linejoin="miter" stroke-linecap="butt" stroke-opacity="1" stroke="#ffffff" stroke-miterlimit="50" stroke-width="2" transform="matrix(1,0,0,1,-236,-1184.105434335779)"></path><path id="SvgjsPath1183" d="M269 1205C269 1205 269.98 1205.25 271 1207C272.02 1208.75 272 1210 272 1210 " fill-opacity="0" fill="#ffffff" stroke-dasharray="0" stroke-linejoin="miter" stroke-linecap="butt" stroke-opacity="1" stroke="#ffffff" stroke-miterlimit="50" stroke-width="2" transform="matrix(1,0,0,1,-236,-1184.105434335779)"></path><path id="SvgjsPath1184" d="M247 1219L250 1240 " fill-opacity="0" fill="#ffffff" stroke-dasharray="0" stroke-linejoin="miter" stroke-linecap="butt" stroke-opacity="1" stroke="#ffffff" stroke-miterlimit="50" stroke-width="2" transform="matrix(1,0,0,1,-236,-1184.105434335779)"></path><path id="SvgjsPath1185" d="M267.71 1235L267 1240 " fill-opacity="0" fill="#ffffff" stroke-dasharray="0" stroke-linejoin="miter" stroke-linecap="butt" stroke-opacity="1" stroke="#ffffff" stroke-miterlimit="50" stroke-width="2" transform="matrix(1,0,0,1,-236,-1184.105434335779)"></path><path id="SvgjsPath1186" d="M269.57 1219L268 1230 " fill-opacity="0" fill="#ffffff" stroke-dasharray="0" stroke-linejoin="miter" stroke-linecap="butt" stroke-opacity="1" stroke="#ffffff" stroke-miterlimit="50" stroke-width="2" transform="matrix(1,0,0,1,-236,-1184.105434335779)"></path><path id="SvgjsPath1187" d="M257 1219L257 1240 " fill-opacity="0" fill="#ffffff" stroke-dasharray="0" stroke-linejoin="miter" stroke-linecap="butt" stroke-opacity="1" stroke="#ffffff" stroke-miterlimit="50" stroke-width="2" transform="matrix(1,0,0,1,-236,-1184.105434335779)"></path><path id="SvgjsPath1188" d="M259 1192L259 1194 " fill-opacity="0" fill="#ffffff" stroke-dasharray="0" stroke-linejoin="miter" stroke-linecap="butt" stroke-opacity="1" stroke="#ffffff" stroke-miterlimit="50" stroke-width="2" transform="matrix(1,0,0,1,-236,-1184.105434335779)"></path></svg>