<svg id="SvgjsSvg1060" xmlns="http://www.w3.org/2000/svg" version="1.1" xmlns:xlink="http://www.w3.org/1999/xlink" xmlns:svgjs="http://svgjs.com/svgjs" width="45" height="56.89456566422132" viewBox="0 0 45 56.89456566422132"><title>Fill 106</title><desc>Created with Avocode.</desc><defs id="SvgjsDefs1061"></defs><path id="SvgjsPath1062" d="M537 1220C536.45 1220 536 1220.45 536 1221L543 1242C543 1242.55 543.45 1243 544 1243L573 1243C573.55 1243 574 1242.55 574 1242L581 1221C581 1220.45 580.55 1220 580 1220ZM578.53 1222L572.22 1241L544.78 1241L538.4399999999999 1222Z " fill="#ffa000" fill-opacity="1" transform="matrix(1,0,0,1,-536,-1186.1054343357787)"></path><path id="SvgjsPath1063" d="M538.31 1221C538.38 1220.74 537.5699999999999 1218.46 538.31 1217C539.4599999999999 1214.72 541.31 1212 541.31 1212 " fill-opacity="0" fill="#ffffff" stroke-dasharray="0" stroke-linejoin="miter" stroke-linecap="butt" stroke-opacity="1" stroke="#ffa000" stroke-miterlimit="50" stroke-width="2" transform="matrix(1,0,0,1,-536,-1186.1054343357787)"></path><path id="SvgjsPath1064" d="M553.37 1221C553.37 1221 543.37 1217.33 540.37 1210C538.67 1205.85 543.37 1201 543.37 1201C543.37 1201 543.82 1206.57 550.37 1208C576.62 1213.75 577.37 1221 577.37 1221 " fill-opacity="0" fill="#ffffff" stroke-dasharray="0" stroke-linejoin="miter" stroke-linecap="butt" stroke-opacity="1" stroke="#ffa000" stroke-miterlimit="50" stroke-width="2" transform="matrix(1,0,0,1,-536,-1186.1054343357787)"></path><path id="SvgjsPath1065" d="M544 1201C544 1201 544.25 1198.88 555 1201C561.87 1202.36 564 1196 564 1196C564 1196 571.63 1199.63 575 1207C578.37 1214.37 575 1218 575 1218 " fill-opacity="0" fill="#ffffff" stroke-dasharray="0" stroke-linejoin="miter" stroke-linecap="butt" stroke-opacity="1" stroke="#ffa000" stroke-miterlimit="50" stroke-width="2" transform="matrix(1,0,0,1,-536,-1186.1054343357787)"></path><path id="SvgjsPath1066" d="M556 1200.74C554.78 1199.73 554 1198.21 554 1196.5C554 1193.46 556.46 1191 559.5 1191C562.54 1191 565 1193.46 565 1196.5 " fill-opacity="0" fill="#ffffff" stroke-dasharray="0" stroke-linejoin="miter" stroke-linecap="butt" stroke-opacity="1" stroke="#ffa000" stroke-miterlimit="50" stroke-width="2" transform="matrix(1,0,0,1,-536,-1186.1054343357787)"></path><path id="SvgjsPath1067" d="M556 1195.2C556 1195 553.91 1190.23 550 1188.2C546.42 1186.3400000000001 541 1187.2 541 1187.2 " fill-opacity="0" fill="#ffffff" stroke-dasharray="0" stroke-linejoin="miter" stroke-linecap="butt" stroke-opacity="1" stroke="#ffa000" stroke-miterlimit="50" stroke-width="2" transform="matrix(1,0,0,1,-536,-1186.1054343357787)"></path><path id="SvgjsPath1068" d="M566 1202L568 1204 " fill-opacity="0" fill="#ffffff" stroke-dasharray="0" stroke-linejoin="miter" stroke-linecap="butt" stroke-opacity="1" stroke="#ffa000" stroke-miterlimit="50" stroke-width="2" transform="matrix(1,0,0,1,-536,-1186.1054343357787)"></path><path id="SvgjsPath1069" d="M569 1207C569 1207 569.98 1207.25 571 1209C572.02 1210.75 572 1212 572 1212 " fill-opacity="0" fill="#ffffff" stroke-dasharray="0" stroke-linejoin="miter" stroke-linecap="butt" stroke-opacity="1" stroke="#ffa000" stroke-miterlimit="50" stroke-width="2" transform="matrix(1,0,0,1,-536,-1186.1054343357787)"></path><path id="SvgjsPath1070" d="M547 1221L550 1242 " fill-opacity="0" fill="#ffffff" stroke-dasharray="0" stroke-linejoin="miter" stroke-linecap="butt" stroke-opacity="1" stroke="#ffa000" stroke-miterlimit="50" stroke-width="2" transform="matrix(1,0,0,1,-536,-1186.1054343357787)"></path><path id="SvgjsPath1071" d="M567.71 1237L567 1242 " fill-opacity="0" fill="#ffffff" stroke-dasharray="0" stroke-linejoin="miter" stroke-linecap="butt" stroke-opacity="1" stroke="#ffa000" stroke-miterlimit="50" stroke-width="2" transform="matrix(1,0,0,1,-536,-1186.1054343357787)"></path><path id="SvgjsPath1072" d="M569.57 1221L568 1232 " fill-opacity="0" fill="#ffffff" stroke-dasharray="0" stroke-linejoin="miter" stroke-linecap="butt" stroke-opacity="1" stroke="#ffa000" stroke-miterlimit="50" stroke-width="2" transform="matrix(1,0,0,1,-536,-1186.1054343357787)"></path><path id="SvgjsPath1073" d="M557 1221L557 1242 " fill-opacity="0" fill="#ffffff" stroke-dasharray="0" stroke-linejoin="miter" stroke-linecap="butt" stroke-opacity="1" stroke="#ffa000" stroke-miterlimit="50" stroke-width="2" transform="matrix(1,0,0,1,-536,-1186.1054343357787)"></path><path id="SvgjsPath1074" d="M559 1194L559 1196 " fill-opacity="0" fill="#ffffff" stroke-dasharray="0" stroke-linejoin="miter" stroke-linecap="butt" stroke-opacity="1" stroke="#ffa000" stroke-miterlimit="50" stroke-width="2" transform="matrix(1,0,0,1,-536,-1186.1054343357787)"></path></svg>