<svg id="SvgjsSvg1034" xmlns="http://www.w3.org/2000/svg" version="1.1" xmlns:xlink="http://www.w3.org/1999/xlink" xmlns:svgjs="http://svgjs.com/svgjs" width="40" height="62" viewBox="0 0 40 62"><title>Stroke 12</title><desc>Created with Avocode.</desc><defs id="SvgjsDefs1035"></defs><path id="SvgjsPath1036" d="M396 1045L396 1038C396 1035.8 397.8 1034 400 1034L414 1034C416.2 1034 418 1035.8 418 1038L418 1045 " fill-opacity="0" fill="#ffffff" stroke-dasharray="0" stroke-linejoin="round" stroke-linecap="round" stroke-opacity="1" stroke="#ffa000" stroke-miterlimit="50" stroke-width="2" transform="matrix(1,0,0,1,-389,-1033)"></path><path id="SvgjsPath1037" d="M418 1083L418 1090C418 1092.2 416.2 1094 414 1094L400 1094C397.8 1094 396 1092.2 396 1090L396 1083 " fill-opacity="0" fill="#ffffff" stroke-dasharray="0" stroke-linejoin="round" stroke-linecap="round" stroke-opacity="1" stroke="#ffa000" stroke-miterlimit="50" stroke-width="2" transform="matrix(1,0,0,1,-389,-1033)"></path><path id="SvgjsPath1038" d="M393 1044C390.79 1044 389 1045.79 389 1048L389 1080C389 1082.21 390.79 1084 393 1084L421 1084C423.21 1084 425 1082.21 425 1080L425 1048C425 1045.79 423.21 1044 421 1044ZM423 1048L423 1080C423 1081.1 422.1 1082 421 1082L393 1082C391.9 1082 391 1081.1 391 1080L391 1048C391 1046.9 391.9 1046 393 1046L421 1046C422.1 1046 423 1046.9 423 1048Z " fill="#ffa000" fill-opacity="1" transform="matrix(1,0,0,1,-389,-1033)"></path><path id="SvgjsPath1039" d="M425 1053C426.65 1053 428 1054.35 428 1056L428 1059C428 1060.65 426.65 1062 425 1062 " fill-opacity="0" fill="#ffffff" stroke-dasharray="0" stroke-linejoin="round" stroke-linecap="round" stroke-opacity="1" stroke="#ffa000" stroke-miterlimit="50" stroke-width="2" transform="matrix(1,0,0,1,-389,-1033)"></path><path id="SvgjsPath1040" d="M399 1042L408 1042 " fill-opacity="0" fill="#ffffff" stroke-dasharray="0" stroke-linejoin="round" stroke-linecap="round" stroke-opacity="1" stroke="#ffa000" stroke-miterlimit="50" stroke-width="2" transform="matrix(1,0,0,1,-389,-1033)"></path><path id="SvgjsPath1041" d="M412 1042L415 1042 " fill-opacity="0" fill="#ffffff" stroke-dasharray="0" stroke-linejoin="round" stroke-linecap="round" stroke-opacity="1" stroke="#ffa000" stroke-miterlimit="50" stroke-width="2" transform="matrix(1,0,0,1,-389,-1033)"></path><path id="SvgjsPath1042" d="M399 1086L415 1086 " fill-opacity="0" fill="#ffffff" stroke-dasharray="0" stroke-linejoin="round" stroke-linecap="round" stroke-opacity="1" stroke="#ffa000" stroke-miterlimit="50" stroke-width="2" transform="matrix(1,0,0,1,-389,-1033)"></path><path id="SvgjsPath1043" d="M398.5 1049L394 1053.5 " fill-opacity="0" fill="#ffffff" stroke-dasharray="0" stroke-linejoin="round" stroke-linecap="round" stroke-opacity="1" stroke="#ffa000" stroke-miterlimit="50" stroke-width="2" transform="matrix(1,0,0,1,-389,-1033)"></path><path id="SvgjsPath1044" d="M406 1050L395 1061 " fill-opacity="0" fill="#ffffff" stroke-dasharray="0" stroke-linejoin="round" stroke-linecap="round" stroke-opacity="1" stroke="#ffa000" stroke-miterlimit="50" stroke-width="2" transform="matrix(1,0,0,1,-389,-1033)"></path><path id="SvgjsPath1045" d="M397.25 1066L393 1070.25 " fill-opacity="0" fill="#ffffff" stroke-dasharray="0" stroke-linejoin="round" stroke-linecap="round" stroke-opacity="1" stroke="#ffa000" stroke-miterlimit="50" stroke-width="2" transform="matrix(1,0,0,1,-389,-1033)"></path><path id="SvgjsPath1046" d="M414.75 1049L402 1061.75 " fill-opacity="0" fill="#ffffff" stroke-dasharray="0" stroke-linejoin="round" stroke-linecap="round" stroke-opacity="1" stroke="#ffa000" stroke-miterlimit="50" stroke-width="2" transform="matrix(1,0,0,1,-389,-1033)"></path></svg>