<svg id="SvgjsSvg1021" xmlns="http://www.w3.org/2000/svg" version="1.1" xmlns:xlink="http://www.w3.org/1999/xlink" xmlns:svgjs="http://svgjs.com/svgjs" width="42" height="48.5" viewBox="0 0 42 48.5"><title>Stroke 1</title><desc>Created with Avocode.</desc><defs id="SvgjsDefs1022"></defs><path id="SvgjsPath1023" d="M71 338L71 302L95 296L95 332 " fill-opacity="0" fill="#ffffff" stroke-dasharray="0" stroke-linejoin="round" stroke-linecap="butt" stroke-opacity="1" stroke="#ffa000" stroke-miterlimit="50" stroke-width="2" transform="matrix(1,0,0,1,-54,-295.5)"></path><path id="SvgjsPath1024" d="M71 308L95 302 " fill-opacity="0" fill="#ffffff" stroke-dasharray="0" stroke-linejoin="round" stroke-linecap="butt" stroke-opacity="1" stroke="#ffa000" stroke-miterlimit="50" stroke-width="2" transform="matrix(1,0,0,1,-54,-295.5)"></path><path id="SvgjsPath1025" d="M54 338.5C54 341.54 58.03 344 63 344C67.97 344 72 341.54 72 338.5C72 335.46 67.97 333 63 333C58.03 333 54 335.46 54 338.5ZM70 338.5C70 340.15 67.01 342 63 342C58.99 342 56 340.15 56 338.5C56 336.85 58.99 335 63 335C67.01 335 70 336.85 70 338.5Z " fill="#ffa000" fill-opacity="1" transform="matrix(1,0,0,1,-54,-295.5)"></path><path id="SvgjsPath1026" d="M78 332.5C78 335.54 82.03 338 87 338C91.97 338 96 335.54 96 332.5C96 329.46 91.97 327 87 327C82.03 327 78 329.46 78 332.5ZM94 332.5C94 334.15 91.01 336 87 336C82.99 336 80 334.15 80 332.5C80 330.85 82.99 329 87 329C91.01 329 94 330.85 94 332.5Z " fill="#ffa000" fill-opacity="1" transform="matrix(1,0,0,1,-54,-295.5)"></path><path id="SvgjsPath1027" d="M71 312L91 307 " fill-opacity="0" fill="#ffffff" stroke-dasharray="0" stroke-linejoin="round" stroke-linecap="butt" stroke-opacity="1" stroke="#ffa000" stroke-miterlimit="50" stroke-width="2" transform="matrix(1,0,0,1,-54,-295.5)"></path></svg>