<svg id="SvgjsSvg1148" xmlns="http://www.w3.org/2000/svg" version="1.1" xmlns:xlink="http://www.w3.org/1999/xlink" xmlns:svgjs="http://svgjs.com/svgjs" width="40" height="62" viewBox="0 0 40 62"><title>Stroke 12</title><desc>Created with Avocode.</desc><defs id="SvgjsDefs1149"></defs><path id="SvgjsPath1150" d="M96 1043L96 1036C96 1033.8 97.8 1032 100 1032L114 1032C116.2 1032 118 1033.8 118 1036L118 1043 " fill-opacity="0" fill="#ffffff" stroke-dasharray="0" stroke-linejoin="round" stroke-linecap="round" stroke-opacity="1" stroke="#ffffff" stroke-miterlimit="50" stroke-width="2" transform="matrix(1,0,0,1,-89,-1031)"></path><path id="SvgjsPath1151" d="M118 1081L118 1088C118 1090.2 116.2 1092 114 1092L100 1092C97.8 1092 96 1090.2 96 1088L96 1081 " fill-opacity="0" fill="#ffffff" stroke-dasharray="0" stroke-linejoin="round" stroke-linecap="round" stroke-opacity="1" stroke="#ffffff" stroke-miterlimit="50" stroke-width="2" transform="matrix(1,0,0,1,-89,-1031)"></path><path id="SvgjsPath1152" d="M93 1042C90.79 1042 89 1043.79 89 1046L89 1078C89 1080.21 90.79 1082 93 1082L121 1082C123.21 1082 125 1080.21 125 1078L125 1046C125 1043.79 123.21 1042 121 1042ZM123 1046L123 1078C123 1079.1 122.1 1080 121 1080L93 1080C91.9 1080 91 1079.1 91 1078L91 1046C91 1044.9 91.9 1044 93 1044L121 1044C122.1 1044 123 1044.9 123 1046Z " fill="#ffffff" fill-opacity="1" transform="matrix(1,0,0,1,-89,-1031)"></path><path id="SvgjsPath1153" d="M125 1051C126.65 1051 128 1052.35 128 1054L128 1057C128 1058.65 126.65 1060 125 1060 " fill-opacity="0" fill="#ffffff" stroke-dasharray="0" stroke-linejoin="round" stroke-linecap="round" stroke-opacity="1" stroke="#ffffff" stroke-miterlimit="50" stroke-width="2" transform="matrix(1,0,0,1,-89,-1031)"></path><path id="SvgjsPath1154" d="M99 1040L108 1040 " fill-opacity="0" fill="#ffffff" stroke-dasharray="0" stroke-linejoin="round" stroke-linecap="round" stroke-opacity="1" stroke="#ffffff" stroke-miterlimit="50" stroke-width="2" transform="matrix(1,0,0,1,-89,-1031)"></path><path id="SvgjsPath1155" d="M112 1040L115 1040 " fill-opacity="0" fill="#ffffff" stroke-dasharray="0" stroke-linejoin="round" stroke-linecap="round" stroke-opacity="1" stroke="#ffffff" stroke-miterlimit="50" stroke-width="2" transform="matrix(1,0,0,1,-89,-1031)"></path><path id="SvgjsPath1156" d="M99 1084L115 1084 " fill-opacity="0" fill="#ffffff" stroke-dasharray="0" stroke-linejoin="round" stroke-linecap="round" stroke-opacity="1" stroke="#ffffff" stroke-miterlimit="50" stroke-width="2" transform="matrix(1,0,0,1,-89,-1031)"></path><path id="SvgjsPath1157" d="M98.5 1047L94 1051.5 " fill-opacity="0" fill="#ffffff" stroke-dasharray="0" stroke-linejoin="round" stroke-linecap="round" stroke-opacity="1" stroke="#ffffff" stroke-miterlimit="50" stroke-width="2" transform="matrix(1,0,0,1,-89,-1031)"></path><path id="SvgjsPath1158" d="M106 1048L95 1059 " fill-opacity="0" fill="#ffffff" stroke-dasharray="0" stroke-linejoin="round" stroke-linecap="round" stroke-opacity="1" stroke="#ffffff" stroke-miterlimit="50" stroke-width="2" transform="matrix(1,0,0,1,-89,-1031)"></path><path id="SvgjsPath1159" d="M97.25 1064L93 1068.25 " fill-opacity="0" fill="#ffffff" stroke-dasharray="0" stroke-linejoin="round" stroke-linecap="round" stroke-opacity="1" stroke="#ffffff" stroke-miterlimit="50" stroke-width="2" transform="matrix(1,0,0,1,-89,-1031)"></path><path id="SvgjsPath1160" d="M114.75 1047L102 1059.75 " fill-opacity="0" fill="#ffffff" stroke-dasharray="0" stroke-linejoin="round" stroke-linecap="round" stroke-opacity="1" stroke="#ffffff" stroke-miterlimit="50" stroke-width="2" transform="matrix(1,0,0,1,-89,-1031)"></path></svg>