<svg id="SvgjsSvg1169" xmlns="http://www.w3.org/2000/svg" version="1.1" xmlns:xlink="http://www.w3.org/1999/xlink" xmlns:svgjs="http://svgjs.com/svgjs" width="49" height="49" viewBox="0 0 49 49"><title>Fill 12</title><desc>Created with Avocode.</desc><defs id="SvgjsDefs1170"></defs><path id="SvgjsPath1171" d="M85 1208.5C85 1222.03 95.97 1233 109.5 1233C123.03 1233 134 1222.03 134 1208.5C134 1194.97 123.03 1184 109.5 1184C95.97 1184 85 1194.97 85 1208.5ZM132 1208.5C132 1220.91 121.91 1231 109.5 1231C97.09 1231 87 1220.91 87 1208.5C87 1196.09 97.09 1186 109.5 1186C121.91 1186 132 1196.09 132 1208.5Z " fill="#ffffff" fill-opacity="1" transform="matrix(1,0,0,1,-85,-1184)"></path><path id="SvgjsPath1172" d="M117.34 1190.92C123.65 1194.01 128 1200.5 128 1208C128 1218.49 119.49 1227 109 1227C98.51 1227 90 1218.49 90 1208C90 1197.51 98.51 1189 109 1189C109.94 1189 110.87 1189.07 111.78 1189.2 " fill-opacity="0" fill="#ffffff" stroke-dasharray="0" stroke-linejoin="round" stroke-linecap="butt" stroke-opacity="1" stroke="#ffffff" stroke-miterlimit="50" stroke-width="2" transform="matrix(1,0,0,1,-85,-1184)"></path><path id="SvgjsPath1173" d="M103 1197L103 1219L118.53 1207.35Z " fill-opacity="0" fill="#ffffff" stroke-dasharray="0" stroke-linejoin="round" stroke-linecap="butt" stroke-opacity="1" stroke="#ffffff" stroke-miterlimit="50" stroke-width="2" transform="matrix(1,0,0,1,-85,-1184)"></path></svg>