<svg id="SvgjsSvg1088" xmlns="http://www.w3.org/2000/svg" version="1.1" xmlns:xlink="http://www.w3.org/1999/xlink" xmlns:svgjs="http://svgjs.com/svgjs" width="41.160809810827004" height="61" viewBox="0 0 41.160809810827004 61"><title>Fill 147</title><desc>Created with Avocode.</desc><defs id="SvgjsDefs1089"></defs><path id="SvgjsPath1090" d="M540.5 1360C539.39 1360 538 1360.9 538 1362L538 1384C538 1388.42 542.08 1392 546.5 1392L562.5 1392C566.92 1392 570 1388.42 570 1384L570 1362C570 1360.9 569.36 1360 568.25 1360ZM568 1384C568 1387.31 565.81 1390 562.5 1390L546.5 1390C543.19 1390 540 1387.31 540 1384L540 1362L568 1362Z " fill="#ffa000" fill-opacity="1" transform="matrix(1,0,0,1,-537.839190189173,-1331)"></path><path id="SvgjsPath1091" d="M570 1366C574.42 1366 578 1369.58 578 1374C578 1378.42 574.42 1382 570 1382 " fill-opacity="0" fill="#ffffff" stroke-dasharray="0" stroke-linejoin="miter" stroke-linecap="round" stroke-opacity="1" stroke="#ffa000" stroke-miterlimit="50" stroke-width="2" transform="matrix(1,0,0,1,-537.839190189173,-1331)"></path><path id="SvgjsPath1092" d="M549 1361L549 1333C549 1332.45 549.45 1332 550 1332L560 1332C560.55 1332 561 1332.45 561 1333L561 1361 " fill-opacity="0" fill="#ffffff" stroke-dasharray="0" stroke-linejoin="miter" stroke-linecap="round" stroke-opacity="1" stroke="#ffa000" stroke-miterlimit="50" stroke-width="2" transform="matrix(1,0,0,1,-537.839190189173,-1331)"></path><path id="SvgjsPath1093" d="M553 1337L560 1337 " fill-opacity="0" fill="#ffffff" stroke-dasharray="0" stroke-linejoin="miter" stroke-linecap="round" stroke-opacity="1" stroke="#ffa000" stroke-miterlimit="50" stroke-width="2" transform="matrix(1,0,0,1,-537.839190189173,-1331)"></path><path id="SvgjsPath1094" d="M553 1353L560 1353 " fill-opacity="0" fill="#ffffff" stroke-dasharray="0" stroke-linejoin="miter" stroke-linecap="round" stroke-opacity="1" stroke="#ffa000" stroke-miterlimit="50" stroke-width="2" transform="matrix(1,0,0,1,-537.839190189173,-1331)"></path><path id="SvgjsPath1095" d="M555 1342L560 1342 " fill-opacity="0" fill="#ffffff" stroke-dasharray="0" stroke-linejoin="miter" stroke-linecap="round" stroke-opacity="1" stroke="#ffa000" stroke-miterlimit="50" stroke-width="2" transform="matrix(1,0,0,1,-537.839190189173,-1331)"></path><path id="SvgjsPath1096" d="M555 1346L560 1346 " fill-opacity="0" fill="#ffffff" stroke-dasharray="0" stroke-linejoin="miter" stroke-linecap="round" stroke-opacity="1" stroke="#ffa000" stroke-miterlimit="50" stroke-width="2" transform="matrix(1,0,0,1,-537.839190189173,-1331)"></path><path id="SvgjsPath1097" d="M553 1357L558 1357 " fill-opacity="0" fill="#ffffff" stroke-dasharray="0" stroke-linejoin="miter" stroke-linecap="round" stroke-opacity="1" stroke="#ffa000" stroke-miterlimit="50" stroke-width="2" transform="matrix(1,0,0,1,-537.839190189173,-1331)"></path><path id="SvgjsPath1098" d="M565 1360.96L567.09 1349L569.08 1349.24L568.25 1360.96 " fill-opacity="0" fill="#ffffff" stroke-dasharray="0" stroke-linejoin="miter" stroke-linecap="round" stroke-opacity="1" stroke="#ffa000" stroke-miterlimit="50" stroke-width="2" transform="matrix(1,0,0,1,-537.839190189173,-1331)"></path><path id="SvgjsPath1099" d="M565.95 1337C565.95 1337 566.47 1339.95 566.1600000000001 1341.8C565.8500000000001 1343.6599999999999 564.4200000000001 1343.94 564.0300000000001 1346.1499999999999C563.6400000000001 1348.36 566.8100000000001 1349.5099999999998 566.8100000000001 1349.5099999999998L568.3800000000001 1349.6999999999998C568.3800000000001 1349.6999999999998 576.4100000000001 1347.5399999999997 571.8600000000001 1340.7399999999998C569.3600000000001 1337.0499999999997 565.9500000000002 1336.9999999999998 565.9500000000002 1336.9999999999998Z " fill-opacity="0" fill="#ffffff" stroke-dasharray="0" stroke-linejoin="miter" stroke-linecap="round" stroke-opacity="1" stroke="#ffa000" stroke-miterlimit="50" stroke-width="2" transform="matrix(1,0,0,1,-537.839190189173,-1331)"></path><path id="SvgjsPath1100" d="M539 1366L560 1366 " fill-opacity="0" fill="#ffffff" stroke-dasharray="0" stroke-linejoin="miter" stroke-linecap="round" stroke-opacity="1" stroke="#ffa000" stroke-miterlimit="50" stroke-width="2" transform="matrix(1,0,0,1,-537.839190189173,-1331)"></path><path id="SvgjsPath1101" d="M564 1366L569 1366 " fill-opacity="0" fill="#ffffff" stroke-dasharray="0" stroke-linejoin="miter" stroke-linecap="round" stroke-opacity="1" stroke="#ffa000" stroke-miterlimit="50" stroke-width="2" transform="matrix(1,0,0,1,-537.839190189173,-1331)"></path><path id="SvgjsPath1102" d="M541.68 1361.06L539 1351.04L542.86 1350L545.8100000000001 1361.02 " fill-opacity="0" fill="#ffffff" stroke-dasharray="0" stroke-linejoin="miter" stroke-linecap="round" stroke-opacity="1" stroke="#ffa000" stroke-miterlimit="50" stroke-width="2" transform="matrix(1,0,0,1,-537.839190189173,-1331)"></path><path id="SvgjsPath1103" d="M539.66 1351.18L539 1341L543.52 1350.14 " fill-opacity="0" fill="#ffffff" stroke-dasharray="0" stroke-linejoin="miter" stroke-linecap="round" stroke-opacity="1" stroke="#ffa000" stroke-miterlimit="50" stroke-width="2" transform="matrix(1,0,0,1,-537.839190189173,-1331)"></path></svg>