<svg id="SvgjsSvg1189" xmlns="http://www.w3.org/2000/svg" version="1.1" xmlns:xlink="http://www.w3.org/1999/xlink" xmlns:svgjs="http://svgjs.com/svgjs" width="55" height="60.3225099481167" viewBox="0 0 55 60.3225099481167"><title>Stroke 95</title><desc>Created with Avocode.</desc><defs id="SvgjsDefs1190"></defs><path id="SvgjsPath1191" d="M136 1378.5C136 1384.85 130.85 1390 124.5 1390C118.15 1390 113 1384.85 113 1378.5C113 1372.15 118.15 1367 124.5 1367C130.85 1367 136 1372.15 136 1378.5Z " fill-opacity="0" fill="#ffffff" stroke-dasharray="0" stroke-linejoin="miter" stroke-linecap="butt" stroke-opacity="1" stroke="#ffffff" stroke-miterlimit="50" stroke-width="2" transform="matrix(1,0,0,1,-82,-1330.6774900518833)"></path><path id="SvgjsPath1192" d="M106 1378.5C106 1384.85 100.85 1390 94.5 1390C88.15 1390 83 1384.85 83 1378.5C83 1372.15 88.15 1367 94.5 1367C100.85 1367 106 1372.15 106 1378.5Z " fill-opacity="0" fill="#ffffff" stroke-dasharray="0" stroke-linejoin="miter" stroke-linecap="butt" stroke-opacity="1" stroke="#ffffff" stroke-miterlimit="50" stroke-width="2" transform="matrix(1,0,0,1,-82,-1330.6774900518833)"></path><path id="SvgjsPath1193" d="M102 1378.5C102 1382.64 98.64 1386 94.5 1386C90.36 1386 87 1382.64 87 1378.5C87 1374.36 90.36 1371 94.5 1371C98.64 1371 102 1374.36 102 1378.5Z " fill-opacity="0" fill="#ffffff" stroke-dasharray="0" stroke-linejoin="miter" stroke-linecap="butt" stroke-opacity="1" stroke="#ffffff" stroke-miterlimit="50" stroke-width="2" transform="matrix(1,0,0,1,-82,-1330.6774900518833)"></path><path id="SvgjsPath1194" d="M130.5 1374C131.44 1375.25 132 1376.81 132 1378.5C132 1382.64 128.64 1386 124.5 1386C120.36 1386 117 1382.64 117 1378.5C117 1374.36 120.36 1371 124.5 1371C125.57 1371 126.58 1371.22 127.5 1371.63 " fill-opacity="0" fill="#ffffff" stroke-dasharray="0" stroke-linejoin="miter" stroke-linecap="butt" stroke-opacity="1" stroke="#ffffff" stroke-miterlimit="50" stroke-width="2" transform="matrix(1,0,0,1,-82,-1330.6774900518833)"></path><path id="SvgjsPath1195" d="M99 1368L129 1332C129 1332 132.5 1337 129 1342C124.23 1348.82 104 1373 104 1373 " fill-opacity="0" fill="#ffffff" stroke-dasharray="0" stroke-linejoin="miter" stroke-linecap="butt" stroke-opacity="1" stroke="#ffffff" stroke-miterlimit="50" stroke-width="2" transform="matrix(1,0,0,1,-82,-1330.6774900518833)"></path><path id="SvgjsPath1196" d="M109 1368C111.71 1371.27 113.56 1373.48 113.56 1373.48 " fill-opacity="0" fill="#ffffff" stroke-dasharray="0" stroke-linejoin="miter" stroke-linecap="butt" stroke-opacity="1" stroke="#ffffff" stroke-miterlimit="50" stroke-width="2" transform="matrix(1,0,0,1,-82,-1330.6774900518833)"></path><path id="SvgjsPath1197" d="M108.56 1356L88.56 1332C88.56 1332 85.06 1337 88.56 1342C91.11 1345.65 98.07000000000001 1354.24 104 1361.46 " fill-opacity="0" fill="#ffffff" stroke-dasharray="0" stroke-linejoin="miter" stroke-linecap="butt" stroke-opacity="1" stroke="#ffffff" stroke-miterlimit="50" stroke-width="2" transform="matrix(1,0,0,1,-82,-1330.6774900518833)"></path><path id="SvgjsPath1198" d="M119 1368L114 1362 " fill-opacity="0" fill="#ffffff" stroke-dasharray="0" stroke-linejoin="miter" stroke-linecap="butt" stroke-opacity="1" stroke="#ffffff" stroke-miterlimit="50" stroke-width="2" transform="matrix(1,0,0,1,-82,-1330.6774900518833)"></path><path id="SvgjsPath1199" d="M109 1355.79C109 1355.79 112.22 1354.01 114 1355.79C115.78 1357.57 114 1360.79 114 1360.79 " fill-opacity="0" fill="#ffffff" stroke-dasharray="0" stroke-linejoin="miter" stroke-linecap="butt" stroke-opacity="1" stroke="#ffffff" stroke-miterlimit="50" stroke-width="2" transform="matrix(1,0,0,1,-82,-1330.6774900518833)"></path><path id="SvgjsPath1200" d="M110 1359C109.45 1359 109 1359.45 109 1360C109 1360.55 109.45 1361 110 1361C110.55 1361 111 1360.55 111 1360C111 1359.45 110.55 1359 110 1359 " fill="#ffffff" fill-opacity="1" transform="matrix(1,0,0,1,-82,-1330.6774900518833)"></path><path id="SvgjsPath1201" d="M110 1359C109.45 1359 109 1359.45 109 1360C109 1360.55 109.45 1361 110 1361C110.55 1361 111 1360.55 111 1360C111 1359.45 110.55 1359 110 1359 " fill-opacity="0" fill="#ffffff" stroke-dasharray="0" stroke-linejoin="round" stroke-linecap="butt" stroke-opacity="1" stroke="#ffffff" stroke-miterlimit="50" stroke-width="1" transform="matrix(1,0,0,1,-82,-1330.6774900518833)"></path></svg>