<svg id="SvgjsSvg1112" xmlns="http://www.w3.org/2000/svg" version="1.1" xmlns:xlink="http://www.w3.org/1999/xlink" xmlns:svgjs="http://svgjs.com/svgjs" width="60" height="60.55595263952773" viewBox="0 0 60 60.55595263952773"><title>Stroke 1</title><desc>Created with Avocode.</desc><defs id="SvgjsDefs1113"></defs><path id="SvgjsPath1114" d="M573.5 1523.5L575 1535.32C575 1535.48 574.97 1535.6299999999999 574.9 1535.77C574.25 1537.04 570.39 1543.55 559 1543.55C547.61 1543.55 543.75 1537.04 543.1 1535.77C543.03 1535.6299999999999 543 1535.48 543 1535.32L544.5 1522 " fill-opacity="0" fill="#ffffff" stroke-dasharray="0" stroke-linejoin="miter" stroke-linecap="butt" stroke-opacity="1" stroke="#ffa000" stroke-miterlimit="50" stroke-width="2" transform="matrix(1,0,0,1,-529,-1484)"></path><path id="SvgjsPath1115" d="M566 1538.03C564.07 1538.62 561.75 1539 559 1539C546.37 1539 543 1531 543 1531 " fill-opacity="0" fill="#ffffff" stroke-dasharray="0" stroke-linejoin="miter" stroke-linecap="butt" stroke-opacity="1" stroke="#ffa000" stroke-miterlimit="50" stroke-width="2" transform="matrix(1,0,0,1,-529,-1484)"></path><path id="SvgjsPath1116" d="M543 1511.37C544.84 1500.5 551.84 1497.5 553.34 1497 " fill-opacity="0" fill="#ffffff" stroke-dasharray="0" stroke-linejoin="miter" stroke-linecap="butt" stroke-opacity="1" stroke="#ffa000" stroke-miterlimit="50" stroke-width="2" transform="matrix(1,0,0,1,-529,-1484)"></path><path id="SvgjsPath1117" d="M558 1496.03C564 1495.66 566.43 1498.3799999999999 566.43 1498.3799999999999 " fill-opacity="0" fill="#ffffff" stroke-dasharray="0" stroke-linejoin="miter" stroke-linecap="butt" stroke-opacity="1" stroke="#ffa000" stroke-miterlimit="50" stroke-width="2" transform="matrix(1,0,0,1,-529,-1484)"></path><path id="SvgjsPath1118" d="M575 1531C575 1531 573.77 1533.93 570 1536.24 " fill-opacity="0" fill="#ffffff" stroke-dasharray="0" stroke-linejoin="miter" stroke-linecap="butt" stroke-opacity="1" stroke="#ffa000" stroke-miterlimit="50" stroke-width="2" transform="matrix(1,0,0,1,-529,-1484)"></path><path id="SvgjsPath1119" d="M559.5 1530C570.27 1530 579 1521.27 579 1510.5C579 1499.73 570.27 1491 559.5 1491C548.73 1491 540 1499.73 540 1510.5C540 1521.27 548.73 1530 559.5 1530Z " fill-opacity="0" fill="#ffffff" stroke-dasharray="0" stroke-linejoin="miter" stroke-linecap="butt" stroke-opacity="1" stroke="#ffa000" stroke-miterlimit="50" stroke-width="2" transform="matrix(1,0,0,1,-529,-1484)"></path><path id="SvgjsPath1120" d="M542 1492C543.1 1492 544 1491.1 544 1490C544 1488.9 543.1 1488 542 1488C540.9 1488 540 1488.9 540 1490C540 1491.1 540.9 1492 542 1492Z " fill-opacity="0" fill="#ffffff" stroke-dasharray="0" stroke-linejoin="miter" stroke-linecap="butt" stroke-opacity="1" stroke="#ffa000" stroke-miterlimit="50" stroke-width="2" transform="matrix(1,0,0,1,-529,-1484)"></path><path id="SvgjsPath1121" d="M533.63 1503.26C534.53 1503.26 535.26 1502.53 535.26 1501.6299999999999C535.26 1500.7299999999998 534.53 1499.9999999999998 533.63 1499.9999999999998C532.73 1499.9999999999998 532 1500.7299999999998 532 1501.6299999999999C532 1502.53 532.73 1503.26 533.63 1503.26Z " fill-opacity="0" fill="#ffffff" stroke-dasharray="0" stroke-linejoin="miter" stroke-linecap="butt" stroke-opacity="1" stroke="#ffa000" stroke-miterlimit="50" stroke-width="2" transform="matrix(1,0,0,1,-529,-1484)"></path><path id="SvgjsPath1122" d="M534 1499L534 1497 " fill-opacity="0" fill="#ffffff" stroke-dasharray="0" stroke-linejoin="miter" stroke-linecap="square" stroke-opacity="1" stroke="#ffa000" stroke-miterlimit="50" stroke-width="2" transform="matrix(1,0,0,1,-529,-1484)"></path><path id="SvgjsPath1123" d="M534 1505L534 1503 " fill-opacity="0" fill="#ffffff" stroke-dasharray="0" stroke-linejoin="miter" stroke-linecap="square" stroke-opacity="1" stroke="#ffa000" stroke-miterlimit="50" stroke-width="2" transform="matrix(1,0,0,1,-529,-1484)"></path><path id="SvgjsPath1124" d="M532 1501L530 1501 " fill-opacity="0" fill="#ffffff" stroke-dasharray="0" stroke-linejoin="miter" stroke-linecap="square" stroke-opacity="1" stroke="#ffa000" stroke-miterlimit="50" stroke-width="2" transform="matrix(1,0,0,1,-529,-1484)"></path><path id="SvgjsPath1125" d="M538 1501L536 1501 " fill-opacity="0" fill="#ffffff" stroke-dasharray="0" stroke-linejoin="miter" stroke-linecap="square" stroke-opacity="1" stroke="#ffa000" stroke-miterlimit="50" stroke-width="2" transform="matrix(1,0,0,1,-529,-1484)"></path><path id="SvgjsPath1126" d="M584 1498L584 1496 " fill-opacity="0" fill="#ffffff" stroke-dasharray="0" stroke-linejoin="miter" stroke-linecap="square" stroke-opacity="1" stroke="#ffa000" stroke-miterlimit="50" stroke-width="2" transform="matrix(1,0,0,1,-529,-1484)"></path><path id="SvgjsPath1127" d="M584 1505L584 1503 " fill-opacity="0" fill="#ffffff" stroke-dasharray="0" stroke-linejoin="miter" stroke-linecap="square" stroke-opacity="1" stroke="#ffa000" stroke-miterlimit="50" stroke-width="2" transform="matrix(1,0,0,1,-529,-1484)"></path><path id="SvgjsPath1128" d="M588 1501L586 1501 " fill-opacity="0" fill="#ffffff" stroke-dasharray="0" stroke-linejoin="miter" stroke-linecap="square" stroke-opacity="1" stroke="#ffa000" stroke-miterlimit="50" stroke-width="2" transform="matrix(1,0,0,1,-529,-1484)"></path><path id="SvgjsPath1129" d="M582 1501L580 1501 " fill-opacity="0" fill="#ffffff" stroke-dasharray="0" stroke-linejoin="miter" stroke-linecap="square" stroke-opacity="1" stroke="#ffa000" stroke-miterlimit="50" stroke-width="2" transform="matrix(1,0,0,1,-529,-1484)"></path><path id="SvgjsPath1130" d="M542 1487L542 1485 " fill-opacity="0" fill="#ffffff" stroke-dasharray="0" stroke-linejoin="miter" stroke-linecap="square" stroke-opacity="1" stroke="#ffa000" stroke-miterlimit="50" stroke-width="2" transform="matrix(1,0,0,1,-529,-1484)"></path><path id="SvgjsPath1131" d="M542 1495L542 1493 " fill-opacity="0" fill="#ffffff" stroke-dasharray="0" stroke-linejoin="miter" stroke-linecap="square" stroke-opacity="1" stroke="#ffa000" stroke-miterlimit="50" stroke-width="2" transform="matrix(1,0,0,1,-529,-1484)"></path><path id="SvgjsPath1132" d="M539 1490L537 1490 " fill-opacity="0" fill="#ffffff" stroke-dasharray="0" stroke-linejoin="miter" stroke-linecap="square" stroke-opacity="1" stroke="#ffa000" stroke-miterlimit="50" stroke-width="2" transform="matrix(1,0,0,1,-529,-1484)"></path><path id="SvgjsPath1133" d="M546 1490L544 1490 " fill-opacity="0" fill="#ffffff" stroke-dasharray="0" stroke-linejoin="miter" stroke-linecap="square" stroke-opacity="1" stroke="#ffa000" stroke-miterlimit="50" stroke-width="2" transform="matrix(1,0,0,1,-529,-1484)"></path><path id="SvgjsPath1134" d="M584 1503C585.1 1503 586 1502.1 586 1501C586 1499.9 585.1 1499 584 1499C582.9 1499 582 1499.9 582 1501C582 1502.1 582.9 1503 584 1503Z " fill-opacity="0" fill="#ffffff" stroke-dasharray="0" stroke-linejoin="miter" stroke-linecap="butt" stroke-opacity="1" stroke="#ffa000" stroke-miterlimit="50" stroke-width="2" transform="matrix(1,0,0,1,-529,-1484)"></path></svg>