<svg id="SvgjsSvg1161" xmlns="http://www.w3.org/2000/svg" version="1.1" xmlns:xlink="http://www.w3.org/1999/xlink" xmlns:svgjs="http://svgjs.com/svgjs" width="60" height="32" viewBox="0 0 60 32"><title>Fill 6</title><desc>Created with Avocode.</desc><defs id="SvgjsDefs1162"></defs><path id="SvgjsPath1163" d="M240 1046C233.4 1046 228 1051.4 228 1058L228 1066C228 1072.6 233.4 1078 240 1078L276 1078C282.6 1078 288 1072.6 288 1066L288 1058C288 1051.4 282.6 1046 276 1046ZM286 1058L286 1066C286 1071.51 281.51 1076 276 1076L240 1076C234.49 1076 230 1071.51 230 1066L230 1058C230 1052.49 234.49 1048 240 1048L276 1048C281.51 1048 286 1052.49 286 1058Z " fill="#ffffff" fill-opacity="1" transform="matrix(1,0,0,1,-228,-1046)"></path><path id="SvgjsPath1164" d="M243 1049C242.45 1049 242 1049.45 242 1050L242 1074C242 1074.55 242.45 1075 243 1075L273 1075C273.55 1075 274 1074.55 274 1074L274 1050C274 1049.45 273.55 1049 273 1049ZM272 1073L244 1073L244 1051L272 1051Z " fill="#ffffff" fill-opacity="1" transform="matrix(1,0,0,1,-228,-1046)"></path><path id="SvgjsPath1165" d="M267 1053L269.08 1053C269.59 1053 270 1053.86 270 1054.39L270 1069.6200000000001C270 1070.14 269.59 1071.0000000000002 269.08 1071.0000000000002L246.92 1071.0000000000002C246.41 1071.0000000000002 246 1070.1400000000003 246 1069.6200000000001L246 1054.39C246 1053.8600000000001 246.41 1053 246.92 1053L262 1053 " fill-opacity="0" fill="#ffffff" stroke-dasharray="0" stroke-linejoin="round" stroke-linecap="round" stroke-opacity="1" stroke="#ffffff" stroke-miterlimit="50" stroke-width="2" transform="matrix(1,0,0,1,-228,-1046)"></path><path id="SvgjsPath1166" d="M276 1062C276 1064.21 277.79 1066 280 1066C282.21 1066 284 1064.21 284 1062C284 1059.79 282.21 1058 280 1058C277.79 1058 276 1059.79 276 1062ZM282 1062C282 1063.1 281.1 1064 280 1064C278.9 1064 278 1063.1 278 1062C278 1060.9 278.9 1060 280 1060C281.1 1060 282 1060.9 282 1062Z " fill="#ffffff" fill-opacity="1" transform="matrix(1,0,0,1,-228,-1046)"></path><path id="SvgjsPath1167" d="M233 1062L239 1062 " fill-opacity="0" fill="#ffffff" stroke-dasharray="0" stroke-linejoin="round" stroke-linecap="round" stroke-opacity="1" stroke="#ffffff" stroke-miterlimit="50" stroke-width="2" transform="matrix(1,0,0,1,-228,-1046)"></path><path id="SvgjsPath1168" d="M236 1065L236 1059 " fill-opacity="0" fill="#ffffff" stroke-dasharray="0" stroke-linejoin="round" stroke-linecap="round" stroke-opacity="1" stroke="#ffffff" stroke-miterlimit="50" stroke-width="2" transform="matrix(1,0,0,1,-228,-1046)"></path></svg>