<svg id="SvgjsSvg1135" xmlns="http://www.w3.org/2000/svg" version="1.1" xmlns:xlink="http://www.w3.org/1999/xlink" xmlns:svgjs="http://svgjs.com/svgjs" width="42" height="48.5" viewBox="0 0 42 48.5"><title>Stroke 1</title><desc>Created with Avocode.</desc><defs id="SvgjsDefs1136"></defs><path id="SvgjsPath1137" d="M106 938L106 902L130 896L130 932 " fill-opacity="0" fill="#ffffff" stroke-dasharray="0" stroke-linejoin="round" stroke-linecap="butt" stroke-opacity="1" stroke="#ffffff" stroke-miterlimit="50" stroke-width="2" transform="matrix(1,0,0,1,-89,-895.5)"></path><path id="SvgjsPath1138" d="M106 908L130 902 " fill-opacity="0" fill="#ffffff" stroke-dasharray="0" stroke-linejoin="round" stroke-linecap="butt" stroke-opacity="1" stroke="#ffffff" stroke-miterlimit="50" stroke-width="2" transform="matrix(1,0,0,1,-89,-895.5)"></path><path id="SvgjsPath1139" d="M89 938.5C89 941.54 93.03 944 98 944C102.97 944 107 941.54 107 938.5C107 935.46 102.97 933 98 933C93.03 933 89 935.46 89 938.5ZM105 938.5C105 940.15 102.01 942 98 942C93.99 942 91 940.15 91 938.5C91 936.85 93.99 935 98 935C102.01 935 105 936.85 105 938.5Z " fill="#ffffff" fill-opacity="1" transform="matrix(1,0,0,1,-89,-895.5)"></path><path id="SvgjsPath1140" d="M113 932.5C113 935.54 117.03 938 122 938C126.97 938 131 935.54 131 932.5C131 929.46 126.97 927 122 927C117.03 927 113 929.46 113 932.5ZM129 932.5C129 934.15 126.01 936 122 936C117.99 936 115 934.15 115 932.5C115 930.85 117.99 929 122 929C126.01 929 129 930.85 129 932.5Z " fill="#ffffff" fill-opacity="1" transform="matrix(1,0,0,1,-89,-895.5)"></path><path id="SvgjsPath1141" d="M106 912L126 907 " fill-opacity="0" fill="#ffffff" stroke-dasharray="0" stroke-linejoin="round" stroke-linecap="butt" stroke-opacity="1" stroke="#ffffff" stroke-miterlimit="50" stroke-width="2" transform="matrix(1,0,0,1,-89,-895.5)"></path></svg>