<svg id="SvgjsSvg1028" xmlns="http://www.w3.org/2000/svg" version="1.1" xmlns:xlink="http://www.w3.org/1999/xlink" xmlns:svgjs="http://svgjs.com/svgjs" width="55" height="61.94917201356668" viewBox="0 0 55 61.94917201356668"><title>Stroke 23</title><desc>Created with Avocode.</desc><defs id="SvgjsDefs1029"></defs><path id="SvgjsPath1030" d="M235.26 335.33C240.20999999999998 335.08 244.63 331.09 244.63 326.60999999999996C244.63 324.16999999999996 243.73 321.94999999999993 242.26 320.23999999999995C246.85999999999999 319.93999999999994 250.5 316.09999999999997 250.5 311.37999999999994C250.5 307.49999999999994 248.03 304.2099999999999 244.59 302.99999999999994C244.20000000000002 297.04999999999995 239.26 290.99999999999994 233.26 290.99999999999994C229.67999999999998 290.99999999999994 223.78 292.67999999999995 221.70999999999998 295.28999999999996C220.29 294.71 218.73 294.61999999999995 217.11999999999998 294.39C204.26 292.5 202.84999999999997 300.66999999999996 202.26 306.89C199.73 308.24 198 310.91999999999996 198 314C198 316.75 199.37 319.18 201.47 320.63C200.85999999999999 321.96 200.52 323.44 200.52 325C200.52 330.84 207.97 334.15 213.77 334.15C215.37 334.15 216.9 333.78999999999996 218.26000000000002 333.14 " fill-opacity="0" fill="#ffffff" stroke-dasharray="0" stroke-linejoin="round" stroke-linecap="round" stroke-opacity="1" stroke="#ffa000" stroke-miterlimit="50" stroke-width="2" transform="matrix(1,0,0,1,-197,-290)"></path><path id="SvgjsPath1031" d="M237.54 350L217.95 350C219.95 347.92 222.7 345.11 222.94 342.18L223.54 335C223.87 331.1 220.75 327.39 217.66 324.98L211 319.77000000000004L217.58 322.07000000000005C219.12 322.61000000000007 220.78 322.40000000000003 222.14000000000001 321.51000000000005C223.50000000000003 320.61000000000007 224.34 319.16 224.45000000000002 317.53000000000003L224.75000000000003 313.04C224.91000000000003 310.6 224.32000000000002 308.20000000000005 223.09000000000003 306.14000000000004C225.14000000000004 306.89000000000004 227.48000000000002 306.46000000000004 229.14000000000004 305.00000000000006C228.59000000000003 307.13000000000005 228.46000000000004 309.37000000000006 228.73000000000005 311.6700000000001L229.00000000000006 313.9600000000001C229.10000000000005 314.8200000000001 229.66000000000005 315.5400000000001 230.47000000000006 315.8500000000001C231.27000000000007 316.1500000000001 232.17000000000004 315.99000000000007 232.82000000000005 315.4100000000001L235.88000000000005 312.68000000000006L233.61000000000004 316.19000000000005C231.65000000000003 319.21000000000004 228.86000000000004 322.78000000000003 229.36000000000004 326.3500000000001L231.54000000000005 342.00000000000006C231.97000000000006 345.07000000000005 235.39000000000004 347.9100000000001 237.54000000000005 350.00000000000006Z " fill-opacity="0" fill="#ffffff" stroke-dasharray="0" stroke-linejoin="miter" stroke-linecap="butt" stroke-opacity="1" stroke="#ffa000" stroke-miterlimit="50" stroke-width="2" transform="matrix(1,0,0,1,-197,-290)"></path><path id="SvgjsPath1032" d="M209 308C209 303.58 212.58 300 217 300 " fill-opacity="0" fill="#ffffff" stroke-dasharray="0" stroke-linejoin="round" stroke-linecap="round" stroke-opacity="1" stroke="#ffa000" stroke-miterlimit="50" stroke-width="2" transform="matrix(1,0,0,1,-197,-290)"></path><path id="SvgjsPath1033" d="M239 323C239.63 323.9 240 324.96 240 326.1C240 328.81 237.89 331.11 235 331.85 " fill-opacity="0" fill="#ffffff" stroke-dasharray="0" stroke-linejoin="round" stroke-linecap="round" stroke-opacity="1" stroke="#ffa000" stroke-miterlimit="50" stroke-width="2" transform="matrix(1,0,0,1,-197,-290)"></path></svg>