<svg id="SvgjsSvg1142" xmlns="http://www.w3.org/2000/svg" version="1.1" xmlns:xlink="http://www.w3.org/1999/xlink" xmlns:svgjs="http://svgjs.com/svgjs" width="55" height="61.95871141884231" viewBox="0 0 55 61.95871141884231"><title>Stroke 23</title><desc>Created with Avocode.</desc><defs id="SvgjsDefs1143"></defs><path id="SvgjsPath1144" d="M270.26 935.33C275.21 935.08 279.63 931.09 279.63 926.61C279.63 924.17 278.73 921.95 277.26 920.24C281.86 919.94 285.5 916.1 285.5 911.38C285.5 907.5 283.03 904.21 279.59 903C279.2 897.05 274.26 891 268.26 891C264.68 891 258.78 892.68 256.71 895.29C255.29 894.7099999999999 253.73 894.62 252.11999999999998 894.39C239.26 892.5 237.84999999999997 900.67 237.26 906.89C234.73 908.24 233 910.92 233 914C233 916.75 234.37 919.18 236.47 920.63C235.85999999999999 921.96 235.52 923.4399999999999 235.52 925C235.52 930.84 242.97 934.15 248.77 934.15C250.37 934.15 251.9 933.79 253.26000000000002 933.14 " fill-opacity="0" fill="#ffffff" stroke-dasharray="0" stroke-linejoin="round" stroke-linecap="round" stroke-opacity="1" stroke="#ffffff" stroke-miterlimit="50" stroke-width="2" transform="matrix(1,0,0,1,-232,-890)"></path><path id="SvgjsPath1145" d="M272.54 950L252.95000000000002 950C254.95000000000002 947.92 257.70000000000005 945.11 257.94 942.18L258.54 935C258.87 931.1 255.75000000000003 927.39 252.66000000000003 924.98L246.00000000000003 919.77L252.58000000000004 922.0699999999999C254.12000000000003 922.6099999999999 255.78000000000003 922.4 257.14000000000004 921.51C258.50000000000006 920.61 259.34000000000003 919.16 259.45000000000005 917.53L259.75000000000006 913.04C259.9100000000001 910.5999999999999 259.32000000000005 908.1999999999999 258.09000000000003 906.14C260.14000000000004 906.89 262.48 906.47 264.14000000000004 905C263.59000000000003 907.13 263.46000000000004 909.37 263.73 911.67L264 913.9599999999999C264.1 914.8199999999999 264.66 915.54 265.47 915.8499999999999C266.27000000000004 916.1499999999999 267.17 915.9899999999999 267.82000000000005 915.4099999999999L270.88000000000005 912.6799999999998L268.61000000000007 916.1899999999998C266.6500000000001 919.2099999999998 263.86000000000007 922.7799999999999 264.36000000000007 926.3499999999998L266.5400000000001 941.9999999999998C266.9700000000001 945.0699999999998 270.3900000000001 947.9099999999997 272.5400000000001 949.9999999999998Z " fill-opacity="0" fill="#ffffff" stroke-dasharray="0" stroke-linejoin="miter" stroke-linecap="butt" stroke-opacity="1" stroke="#ffffff" stroke-miterlimit="50" stroke-width="2" transform="matrix(1,0,0,1,-232,-890)"></path><path id="SvgjsPath1146" d="M244 908C244 903.58 247.58 900 252 900 " fill-opacity="0" fill="#ffffff" stroke-dasharray="0" stroke-linejoin="round" stroke-linecap="round" stroke-opacity="1" stroke="#ffa000" stroke-miterlimit="50" stroke-width="2" transform="matrix(1,0,0,1,-232,-890)"></path><path id="SvgjsPath1147" d="M274 923C274.63 923.9 275 924.96 275 926.1C275 928.8100000000001 272.89 931.11 270 931.85 " fill-opacity="0" fill="#ffffff" stroke-dasharray="0" stroke-linejoin="round" stroke-linecap="round" stroke-opacity="1" stroke="#ffa000" stroke-miterlimit="50" stroke-width="2" transform="matrix(1,0,0,1,-232,-890)"></path></svg>