<svg id="SvgjsSvg1000" xmlns="http://www.w3.org/2000/svg" version="1.1" xmlns:xlink="http://www.w3.org/1999/xlink" xmlns:svgjs="http://svgjs.com/svgjs" width="102" height="43" viewBox="0 0 102 43"><title>Fill-1</title><desc>Created with Avocode.</desc><defs id="SvgjsDefs1001"></defs><path id="SvgjsPath1007" d="M185.1 63.77C185.73999999999998 63.92 186.12 64.02000000000001 186.12 64.58C186.12 64.86 185.94 65.32 185.23000000000002 65.32C184.72000000000003 65.32 178.04000000000002 64.55 175.96 59.64999999999999C170.91 58.83999999999999 169 54.60999999999999 169 50.489999999999995C169 44.199999999999996 172.72 40.99999999999999 177.15 40.99999999999999C181.96 40.99999999999999 185.23000000000002 44.809999999999995 185.23000000000002 50.28999999999999C185.23000000000002 53.309999999999995 184.13000000000002 57.69999999999999 179.58 59.39999999999999C180.42000000000002 62.26999999999999 183.57000000000002 63.35999999999999 185.10000000000002 63.76999999999999ZM216.08 41.41C216.37 41.41 216.59 41.41 216.59 41.739999999999995C216.59 41.839999999999996 216.57 41.949999999999996 216.52 42.199999999999996L211.83 58.81999999999999C211.70000000000002 59.22999999999999 211.62 59.31999999999999 211.27 59.31999999999999L210.01000000000002 59.31999999999999C209.76000000000002 59.29999999999999 209.68 59.22999999999999 209.56000000000003 58.839999999999996L205.91000000000003 48.01L202.50000000000003 58.82C202.37000000000003 59.2 202.32000000000002 59.28 202.07000000000002 59.3C201.99 59.32 201.3 59.32 200.93000000000004 59.32C200.47000000000003 59.32 200.33000000000004 59.25 200.21000000000004 58.84L195.44000000000003 42.2C195.36 41.92 195.36 41.89 195.36 41.790000000000006C195.36 41.49000000000001 195.60000000000002 41.410000000000004 195.85000000000002 41.410000000000004L198.24 41.410000000000004C198.67000000000002 41.410000000000004 198.78 41.43000000000001 198.91 41.970000000000006L201.84 53.540000000000006L205.41 41.92000000000001C205.53 41.56000000000001 205.57999999999998 41.41000000000001 205.85999999999999 41.41000000000001L206.83999999999997 41.41000000000001C207.00999999999996 41.47000000000001 207.02999999999997 41.51000000000001 207.18999999999997 41.99000000000001L210.80999999999997 53.540000000000006L213.75999999999996 41.92000000000001C213.85999999999996 41.51000000000001 213.99999999999997 41.41000000000001 214.34999999999997 41.41000000000001ZM177.1 57.63C178.35 57.63 179.73 56.96 180.64 55.370000000000005C181.51 53.82000000000001 181.66 51.68000000000001 181.64 50.190000000000005C181.64 48.970000000000006 181.48 46.720000000000006 180.42 45.06C179.26999999999998 43.29 177.70999999999998 43.14 177.13 43.14C175.9 43.14 174.57999999999998 43.8 173.71 45.14C172.82000000000002 46.57 172.59 48.59 172.59 50.29C172.59 51.86 172.8 53.97 173.71 55.519999999999996C174.99 57.629999999999995 176.77 57.629999999999995 177.1 57.629999999999995ZM191.55 41.41C191.93 41.41 192.08 41.489999999999995 192.08 41.949999999999996L192.08 58.75999999999999C192.08 59.24999999999999 191.86 59.31999999999999 191.53 59.31999999999999L189.15 59.31999999999999C188.8 59.29999999999999 188.6 59.22999999999999 188.6 58.75999999999999L188.6 41.94999999999999C188.62 41.58999999999999 188.67 41.40999999999999 189.13 41.40999999999999ZM220.43 41.41C219.97 41.41 219.92000000000002 41.589999999999996 219.9 41.949999999999996L219.9 58.75999999999999C219.9 59.22999999999999 220.1 59.29999999999999 220.46 59.31999999999999L222.83 59.31999999999999C223.16000000000003 59.31999999999999 223.39000000000001 59.24999999999999 223.39000000000001 58.75999999999999L223.39000000000001 41.94999999999999C223.39000000000001 41.48999999999999 223.23000000000002 41.40999999999999 222.86 41.40999999999999Z " fill="#ffffff" fill-opacity="1" transform="matrix(1,0,0,1,-122,-31)"></path><path id="SvgjsPath1008" d="M158.1 67.02C157.32 66.56 156.44 66.24 155.68 65.99C153.92000000000002 65.42 152.22 65.28999999999999 150.24 64.94999999999999C148.62 64.67999999999999 147.35000000000002 64.01999999999998 145.98000000000002 63.08999999999999C145.27 62.60999999999999 144.69000000000003 61.93999999999999 144.20000000000002 61.23999999999999C144.11 61.09999999999999 143.66000000000003 60.54999999999999 143.70000000000002 60.359999999999985C143.70000000000002 60.359999999999985 143.39000000000001 61.61999999999998 144.01000000000002 63.389999999999986C138.25000000000003 63.139999999999986 133.19000000000003 59.94999999999999 130.87 56.08999999999999C126.61 48.97999999999999 128.11 40.36999999999999 133.8 36.56999999999999C139.48000000000002 32.75999999999999 148.15 35.449999999999996 152.78 42.309999999999995C155.7 46.62 156.44 51.63999999999999 155.19 55.72C155.19 55.75 155.17 55.78 155.16 55.81C152.7 54.02 150.45 54.93 150.45 54.93C152.92 54.68 154.86999999999998 56.64 154.86999999999998 56.64C155.15999999999997 56.89 155.42999999999998 57.17 155.67999999999998 57.49C155.73999999999998 57.56 155.79999999999998 57.64 155.84999999999997 57.72C156.49999999999997 58.6 156.89999999999998 59.57 157.07999999999996 60.55C161.97999999999996 54.36 162.78999999999996 45.78 158.44999999999996 39.11C152.91999999999996 30.619999999999997 141.12999999999997 28.45 132.12999999999997 34.26C123.11999999999996 40.08 120.29999999999997 51.67 125.82999999999997 60.17C130.37999999999997 67.15 141.02999999999997 69.29 147.13999999999996 67.36C149.44999999999996 66.64 157.35999999999996 65.95 162.86999999999995 72.42C162.86999999999995 72.42 163.33999999999995 72.97 163.59999999999994 73.58C163.59999999999994 73.58 163.67999999999995 73.8 163.87999999999994 73.69C163.93999999999994 73.67 164.08999999999995 73.49 163.56999999999994 72.45C162.39999999999995 70.08 160.33999999999995 68.35000000000001 158.09999999999994 67.02000000000001ZM152.21 60.97C152.20000000000002 60.97 152.19 60.96 152.18 60.96C152.17000000000002 60.95 152.16 60.95 152.15 60.95C152.14000000000001 60.95 152.13 60.95 152.12 60.940000000000005C152.1 60.940000000000005 152.08 60.93000000000001 152.06 60.92C151.81 60.88 151.55 60.92 151.34 61.050000000000004C150.86 61.38 150.79 62.11000000000001 151.18 62.690000000000005C151.37 62.95 151.61 63.14000000000001 151.87 63.24C151.88 63.24 151.88 63.24 151.89000000000001 63.24C151.9 63.25 151.91000000000003 63.25 151.92000000000002 63.25C151.93 63.26 151.95000000000002 63.26 151.96 63.26C151.97 63.26 151.97 63.269999999999996 151.98000000000002 63.269999999999996C152.00000000000003 63.269999999999996 152.02 63.279999999999994 152.04000000000002 63.279999999999994C152.29000000000002 63.32999999999999 152.55 63.3 152.76000000000002 63.16C153.24 62.83 153.31000000000003 62.099999999999994 152.92000000000002 61.519999999999996C152.74 61.26 152.50000000000003 61.06999999999999 152.23000000000002 60.98C152.23000000000002 60.97 152.22000000000003 60.97 152.21 60.97ZM155.43 59.64C155.84 59.79 156.08 60.45 156.15 60.77C156.31 61.49 156.06 61.790000000000006 155.84 61.660000000000004C155.62 61.550000000000004 155.31 60.99 155.09 60.27C154.99 59.96 155.02 59.49 155.43 59.64Z " fill="#ffa000" fill-opacity="1" transform="matrix(1,0,0,1,-122,-31)"></path></svg>