<svg id="SvgjsSvg1025" xmlns="http://www.w3.org/2000/svg" version="1.1" xmlns:xlink="http://www.w3.org/1999/xlink" xmlns:svgjs="http://svgjs.com/svgjs" width="15" height="15" viewBox="0 0 15 15"><title>Shape</title><desc>Created with Avocode.</desc><defs id="SvgjsDefs1026"></defs><path id="SvgjsPath1027" d="M1054 10203.5C1054 10207.64 1057.36 10211 1061.5 10211C1065.64 10211 1069 10207.64 1069 10203.5C1069 10199.36 1065.64 10196 1061.5 10196C1057.36 10196 1054 10199.36 1054 10203.5ZM1055.5 10203.5C1055.5 10200.19 1058.19 10197.5 1061.5 10197.5C1064.81 10197.5 1067.5 10200.19 1067.5 10203.5C1067.5 10206.81 1064.81 10209.5 1061.5 10209.5C1058.19 10209.5 1055.5 10206.81 1055.5 10203.5Z " fill="#ffa000" fill-opacity="1" transform="matrix(1,0,0,1,-1054,-10196)"></path><path id="SvgjsPath1028" d="M1062.5 10203.4C1062.5 10203.9 1062.16 10204.3 1061.75 10204.3V10204.3C1061.34 10204.3 1061 10203.9 1061 10203.4V10198.9C1061 10198.4 1061.34 10198 1061.75 10198V10198C1062.16 10198 1062.5 10198.4 1062.5 10198.9Z " fill="#ffa000" fill-opacity="1" transform="matrix(1,0,0,1,-1054,-10196)"></path><path id="SvgjsPath1029" d="M1061.45 10203.5C1061.03 10203.24 1060.88 10202.72 1061.1100000000001 10202.35V10202.35C1061.3400000000001 10201.98 1061.8700000000001 10201.890000000001 1062.2900000000002 10202.15L1066.1100000000001 10204.529999999999C1066.5300000000002 10204.789999999999 1066.69 10205.31 1066.46 10205.679999999998V10205.679999999998C1066.22 10206.059999999998 1065.69 10206.149999999998 1065.27 10205.88Z " fill="#ffa000" fill-opacity="1" transform="matrix(1,0,0,1,-1054,-10196)"></path></svg>