<svg id="SvgjsSvg1009" xmlns="http://www.w3.org/2000/svg" version="1.1" xmlns:xlink="http://www.w3.org/1999/xlink" xmlns:svgjs="http://svgjs.com/svgjs" width="29.899999999999864" height="28.26824628002396" viewBox="0 0 29.899999999999864 28.26824628002396"><title>Fill 1</title><desc>Created with Avocode.</desc><defs id="SvgjsDefs1010"></defs><path id="SvgjsPath1011" d="M1006.17 8817.1C1006.17 8817.1 1010.37 8814.26 1010.43 8814.28C1011.64 8814.69 1012.9599999999999 8814.900000000001 1014.27 8814.900000000001C1018.22 8814.900000000001 1021.5799999999999 8813.020000000002 1022.89 8810.390000000001C1014.74 8812.04 1008.9 8806.45 1007.91 8803.000000000002C1006.11 8804.260000000002 1005 8806.050000000001 1005 8808.030000000002C1005.06 8809.600000000002 1005.83 8811.150000000003 1007.18 8812.360000000002C1007.2399999999999 8812.420000000002 1006.17 8817.100000000002 1006.17 8817.100000000002Z " fill="#b1c9e7" fill-opacity="1" transform="matrix(1,0,0,1,-1005,-8789.731753719976)"></path><path id="SvgjsPath1012" d="M1021.52 8791C1015.16 8791 1010 8794.89 1010 8799.66C1010 8800.21 1010.07 8800.73 1010.2 8801.25C1010.26 8801.57 1010.3900000000001 8801.86 1010.49 8802.19C1011.96 8805.69 1016.33 8808.29 1021.52 8808.29C1022.14 8808.29 1022.8 8808.25 1023.42 8808.160000000002C1023.78 8808.12 1024.1 8808.060000000001 1024.46 8807.990000000002C1025.0900000000001 8807.87 1025.71 8807.710000000001 1026.32 8807.510000000002C1026.3999999999999 8807.480000000001 1026.55 8807.430000000002 1026.55 8807.430000000002L1031.23 8809.650000000001L1030.14 8805.410000000002C1030.14 8805.410000000002 1030.3500000000001 8805.230000000001 1030.45 8805.140000000001C1032.0900000000001 8803.590000000002 1033.05 8801.650000000001 1033.05 8799.660000000002C1033.05 8794.890000000001 1027.86 8791.000000000002 1021.52 8791.000000000002Z " fill-opacity="0" fill="#ffffff" stroke-dasharray="0" stroke-linejoin="miter" stroke-linecap="butt" stroke-opacity="1" stroke="#b1c9e7" stroke-miterlimit="50" stroke-width="1.8" transform="matrix(1,0,0,1,-1005,-8789.731753719976)"></path></svg>