<svg id="SvgjsSvg1000" xmlns="http://www.w3.org/2000/svg" version="1.1" xmlns:xlink="http://www.w3.org/1999/xlink" xmlns:svgjs="http://svgjs.com/svgjs" width="29.900000000000034" height="28.268246280025778" viewBox="0 0 29.900000000000034 28.268246280025778"><title>Fill 1</title><desc>Created with Avocode.</desc><defs id="SvgjsDefs1001"></defs><path id="SvgjsPath1007" d="M326.17 8817.1C326.17 8817.1 330.37 8814.26 330.43 8814.28C331.64 8814.69 332.96 8814.900000000001 334.27 8814.900000000001C338.21999999999997 8814.900000000001 341.58 8813.020000000002 342.89 8810.390000000001C334.74 8812.04 328.9 8806.45 327.90999999999997 8803.000000000002C326.10999999999996 8804.260000000002 324.99999999999994 8806.050000000001 324.99999999999994 8808.030000000002C325.05999999999995 8809.600000000002 325.8299999999999 8811.150000000003 327.17999999999995 8812.360000000002C327.23999999999995 8812.420000000002 326.16999999999996 8817.100000000002 326.16999999999996 8817.100000000002Z " fill="#ffffff" fill-opacity="1" transform="matrix(1,0,0,1,-325,-8789.731753719974)"></path><path id="SvgjsPath1008" d="M341.52 8791C335.15999999999997 8791 330 8794.89 330 8799.66C330 8800.21 330.07 8800.73 330.2 8801.25C330.26 8801.57 330.39 8801.86 330.49 8802.19C331.96000000000004 8805.69 336.33 8808.29 341.52 8808.29C342.14 8808.29 342.79999999999995 8808.25 343.41999999999996 8808.160000000002C343.78 8808.12 344.09999999999997 8808.060000000001 344.46 8807.990000000002C345.09 8807.87 345.71 8807.710000000001 346.32 8807.510000000002C346.4 8807.480000000001 346.55 8807.430000000002 346.55 8807.430000000002L351.23 8809.650000000001L350.14000000000004 8805.410000000002C350.14000000000004 8805.410000000002 350.35 8805.230000000001 350.45000000000005 8805.140000000001C352.09000000000003 8803.590000000002 353.05000000000007 8801.650000000001 353.05000000000007 8799.660000000002C353.05000000000007 8794.890000000001 347.86000000000007 8791.000000000002 341.5200000000001 8791.000000000002Z " fill-opacity="0" fill="#ffffff" stroke-dasharray="0" stroke-linejoin="miter" stroke-linecap="butt" stroke-opacity="1" stroke="#ffffff" stroke-miterlimit="50" stroke-width="1.8" transform="matrix(1,0,0,1,-325,-8789.731753719974)"></path></svg>