<svg id="SvgjsSvg1040" xmlns="http://www.w3.org/2000/svg" version="1.1" xmlns:xlink="http://www.w3.org/1999/xlink" xmlns:svgjs="http://svgjs.com/svgjs" width="280" height="8" viewBox="0 0 280 8"><title>Rectangle 44</title><desc>Created with Avocode.</desc><defs id="SvgjsDefs1041"></defs><path id="SvgjsPath1042" d="M1005 5456C1005 5453.79086 1006.79086 5452 1009 5452L1281 5452C1283.20914 5452 1285 5453.79086 1285 5456L1285 5456C1285 5458.20914 1283.20914 5460 1281 5460L1009 5460C1006.79086 5460 1005 5458.20914 1005 5456Z " fill="#e6e6e6" fill-opacity="1" transform="matrix(1,0,0,1,-1005,-5452)"></path><path id="SvgjsPath1043" d="M1005 5456C1005 5453.79086 1006.79086 5452 1009 5452L1230 5452C1232.20914 5452 1234 5453.79086 1234 5456L1234 5456C1234 5458.20914 1232.20914 5460 1230 5460L1009 5460C1006.79086 5460 1005 5458.20914 1005 5456Z " fill="#ffa000" fill-opacity="1" transform="matrix(1,0,0,1,-1005,-5452)"></path></svg>