<?xml version="1.0" encoding="UTF-8"?>
<svg width="23px" height="24px" viewBox="0 0 23 24" version="1.1" xmlns="http://www.w3.org/2000/svg" xmlns:xlink="http://www.w3.org/1999/xlink">
    <!-- Generator: sketchtool 41.2 (35397) - http://www.bohemiancoding.com/sketch -->
    <title>0E3337CF-274F-433D-9A98-01892382A158</title>
    <desc>Created with sketchtool.</desc>
    <defs></defs>
    <g id="Page-1" stroke="none" stroke-width="1" fill="none" fill-rule="evenodd">
        <g id="6.4.2-Карточка-проекта_список-инвесторов" transform="translate(-1354.000000, -537.000000)" fill="#FFA204">
            <g id="Group-9" transform="translate(0.000000, 504.000000)">
                <g id="Page-1" transform="translate(1341.000000, 21.000000)">
                    <path d="M31.7234,28.8075 L33.6489,34.6292 C33.7066,34.8037 33.677,34.9952 33.5694,35.1441 C33.4618,35.293 33.2893,35.3812 33.1056,35.3812 L14.9657,35.3812 C14.783,35.3812 14.6114,35.2933 14.5047,35.145 C14.3979,34.9967 14.369,34.8061 14.427,34.6329 C15.0037,32.9095 16.3763,28.8075 16.3763,28.8075 L14.0743,28.8075 C13.5115,28.8075 13.0511,28.3471 13.0511,27.7844 L13.0511,19.9574 C13.0511,19.3947 13.5115,18.9343 14.0743,18.9342 L17.7576,18.9342 L17.7576,13.2724 C17.7576,12.9666 18.0055,12.7186 18.3113,12.7186 L27.2873,12.7186 C27.426,12.7186 27.5584,12.7766 27.6525,12.8786 C28.1531,13.4211 29.7803,15.1844 30.2275,15.669 C30.3012,15.7489 30.3422,15.8536 30.3422,15.9623 L30.3422,18.9342 L34.0255,18.9342 C34.5882,18.9342 35.0486,19.3946 35.0486,19.9574 L35.0486,27.7844 C35.0486,28.3471 34.5882,28.8075 34.0255,28.8075 L31.7234,28.8075 Z M31.7234,34.0204 C31.3762,34.0204 31.8006,34.0013 31.8239,33.969 C31.8471,33.9366 31.8534,33.8951 31.8408,33.8573 C31.4812,32.7849 30.1474,28.2061 29.7775,27.1029 C29.7428,26.9994 29.6458,26.9296 29.5366,26.9296 L18.591,26.9296 C18.4795,26.9296 18.3805,27.001 18.3453,27.1068 C17.974,28.2243 16.5466,32.8292 16.2011,33.8686 C16.1894,33.9038 16.1954,33.9425 16.2171,33.9725 C16.2388,34.0026 16.2736,34.0204 16.3107,34.0204 L31.7234,34.0204 L31.7234,34.0204 Z M33.6489,21.0032 C33.6489,20.6361 33.3513,20.3386 32.9843,20.3386 L15.1479,20.3386 C14.9552,20.3386 14.7705,20.4151 14.6343,20.5513 C14.4981,20.6875 14.4216,20.8722 14.4216,21.0649 L14.4216,26.7443 C14.4216,27.1152 14.7222,27.4159 15.0931,27.4159 L16.8401,27.4159 C16.8401,27.4159 17.0813,26.6968 17.3195,25.955 C17.3953,25.7188 17.615,25.5586 17.863,25.5586 L30.2268,25.5586 C30.468,25.5586 30.6815,25.7143 30.7555,25.9438 C30.8742,26.3126 31.2856,27.427 31.2856,27.427 L32.9662,27.427 C33.3432,27.427 33.6489,27.1214 33.6489,26.7443 L33.6489,21.0032 L33.6489,21.0032 Z M16.2171,21.285 C16.6409,21.285 16.9849,21.6291 16.9849,22.0529 C16.9849,22.4767 16.6409,22.8207 16.2171,22.8207 C15.7933,22.8207 15.4492,22.4767 15.4492,22.0529 C15.4492,21.6291 15.7933,21.285 16.2171,21.285 L16.2171,21.285 Z M18.591,21.285 C18.9444,21.285 19.2314,21.572 19.2314,21.9255 C19.2314,22.2789 18.9444,22.5659 18.591,22.5659 C18.2375,22.5659 17.9505,22.2789 17.9505,21.9255 C17.9505,21.572 18.2375,21.285 18.591,21.285 L18.591,21.285 Z M19.8768,14.0809 L19.4441,14.0809 C19.2778,14.0809 19.1429,14.2157 19.1429,14.382 L19.1429,18.678 C19.1429,18.8195 19.2576,18.9342 19.3991,18.9342 L28.7255,18.9342 C28.7905,18.9342 28.8529,18.9084 28.8988,18.8624 C28.9448,18.8164 28.9707,18.7541 28.9707,18.689 L28.9707,16.3988 C28.9707,16.3988 28.5595,16.3909 28.1044,16.3821 C27.4412,16.3693 26.9101,15.8279 26.9101,15.1645 L26.9101,14.0809 L19.8768,14.0809 Z" id="Fill-1"></path>
                </g>
            </g>
        </g>
    </g>
</svg>