<svg id="SvgjsSvg1000" xmlns="http://www.w3.org/2000/svg" version="1.1" xmlns:xlink="http://www.w3.org/1999/xlink" xmlns:svgjs="http://svgjs.com/svgjs" width="22" height="23" viewBox="0 0 22 23"><title>Page 1 Copy 2</title><desc>Created with Avocode.</desc><defs id="SvgjsDefs1001"></defs><path id="SvgjsPath1007" d="M1072 133.85C1072 129.26999999999998 1074.6 125.32 1078.58 123.71C1077.09 122.5 1076.1399999999999 120.66999999999999 1076.1399999999999 118.61999999999999C1076.1399999999999 114.96999999999998 1079.1599999999999 111.99999999999999 1082.86 111.99999999999999C1086.57 111.99999999999999 1089.58 114.96999999999998 1089.58 118.61999999999999C1089.58 120.66 1088.6299999999999 122.49999999999999 1087.1499999999999 123.71C1091.2299999999998 125.35 1093.9999999999998 129.38 1093.9999999999998 133.85C1093.9999999999998 134.13 1093.7899999999997 134.35999999999999 1093.5199999999998 134.39H1072.4999999999998C1072.2199999999998 134.36999999999998 1071.9999999999998 134.14 1071.9999999999998 133.85ZM1092.89 133.43C1092.72 129.31 1089.95 125.68 1086.0200000000002 124.46000000000001C1085.0800000000002 124.96000000000001 1084.0100000000002 125.24000000000001 1082.8600000000001 125.24000000000001C1081.72 125.24000000000001 1080.64 124.96000000000001 1079.7 124.46000000000001C1075.8700000000001 125.65 1073.27 129.21 1073.1000000000001 133.43ZM1077.24 118.62C1077.24 121.67 1079.76 124.16000000000001 1082.86 124.16000000000001C1085.9599999999998 124.16000000000001 1088.4799999999998 121.67000000000002 1088.4799999999998 118.62C1088.4799999999998 115.57000000000001 1085.9599999999998 113.08 1082.86 113.08C1079.76 113.08 1077.24 115.57 1077.24 118.62Z " fill="#ffa000" fill-opacity="1" transform="matrix(1,0,0,1,-1072,-112)"></path></svg>