<svg id="SvgjsSvg1023" xmlns="http://www.w3.org/2000/svg" version="1.1" xmlns:xlink="http://www.w3.org/1999/xlink" xmlns:svgjs="http://svgjs.com/svgjs" width="29.899999999999864" height="28.268246280023742" viewBox="0 0 29.899999999999864 28.268246280023742"><title>Fill 1</title><desc>Created with Avocode.</desc><defs id="SvgjsDefs1024"></defs><path id="SvgjsPath1025" d="M983.17 45.1C983.17 45.1 987.37 42.260000000000005 987.43 42.28C988.64 42.69 989.9599999999999 42.9 991.27 42.9C995.22 42.9 998.5799999999999 41.019999999999996 999.89 38.39C991.74 40.04 985.9 34.45 984.91 31C983.11 32.26 982 34.05 982 36.03C982.06 37.6 982.83 39.15 984.18 40.36C984.2399999999999 40.42 983.17 45.1 983.17 45.1Z " fill="#ffffff" fill-opacity="1" transform="matrix(1,0,0,1,-982,-17.731753719976258)"></path><path id="SvgjsPath1026" d="M998.52 19C992.16 19 987 22.89 987 27.66C987 28.21 987.07 28.73 987.2 29.25C987.26 29.57 987.3900000000001 29.86 987.49 30.19C988.96 33.69 993.33 36.29 998.52 36.29C999.14 36.29 999.8 36.25 1000.42 36.16C1000.78 36.12 1001.0999999999999 36.059999999999995 1001.4599999999999 35.989999999999995C1002.0899999999999 35.87 1002.7099999999999 35.709999999999994 1003.3199999999999 35.51C1003.4 35.48 1003.55 35.43 1003.55 35.43L1008.2299999999999 37.65L1007.1399999999999 33.41C1007.1399999999999 33.41 1007.3499999999999 33.23 1007.4499999999998 33.13999999999999C1009.0899999999998 31.589999999999993 1010.0499999999998 29.64999999999999 1010.0499999999998 27.659999999999993C1010.0499999999998 22.889999999999993 1004.8599999999998 18.999999999999993 998.5199999999999 18.999999999999993Z " fill-opacity="0" fill="#ffffff" stroke-dasharray="0" stroke-linejoin="miter" stroke-linecap="butt" stroke-opacity="1" stroke="#ffffff" stroke-miterlimit="50" stroke-width="1.8" transform="matrix(1,0,0,1,-982,-17.731753719976258)"></path></svg>