<svg id="SvgjsSvg1011" xmlns="http://www.w3.org/2000/svg" version="1.1" xmlns:xlink="http://www.w3.org/1999/xlink" xmlns:svgjs="http://svgjs.com/svgjs" width="280" height="8" viewBox="0 0 280 8"><title>Rectangle 44</title><desc>Created with Avocode.</desc><defs id="SvgjsDefs1012"></defs><path id="SvgjsPath1013" d="M587 33C587 30.79086 588.79086 29 591 29L863 29C865.20914 29 867 30.79086 867 33L867 33C867 35.20914 865.20914 37 863 37L591 37C588.79086 37 587 35.20914 587 33Z " fill="#ebebeb" fill-opacity="1" transform="matrix(1,0,0,1,-587,-29)"></path><path id="SvgjsPath1014" d="M587 33C587 30.79086 588.79086 29 591 29L733 29C735.20914 29 737 30.79086 737 33L737 33C737 35.20914 735.20914 37 733 37L591 37C588.79086 37 587 35.20914 587 33Z " fill="#ffa000" fill-opacity="1" transform="matrix(1,0,0,1,-587,-29)"></path></svg>