<svg id="SvgjsSvg1027" xmlns="http://www.w3.org/2000/svg" version="1.1" xmlns:xlink="http://www.w3.org/1999/xlink" xmlns:svgjs="http://svgjs.com/svgjs" width="280" height="8" viewBox="0 0 280 8"><title>Rectangle 44</title><desc>Created with Avocode.</desc><defs id="SvgjsDefs1028"></defs><path id="SvgjsPath1029" d="M528 93C528 90.79086 529.79086 89 532 89L804 89C806.20914 89 808 90.79086 808 93L808 93C808 95.20914 806.20914 97 804 97L532 97C529.79086 97 528 95.20914 528 93Z " fill="#ebebeb" fill-opacity="1" transform="matrix(1,0,0,1,-528,-89)"></path><path id="SvgjsPath1030" d="M528 93C528 90.79086 529.79086 89 532 89L753 89C755.20914 89 757 90.79086 757 93L757 93C757 95.20914 755.20914 97 753 97L532 97C529.79086 97 528 95.20914 528 93Z " fill="#ffa000" fill-opacity="1" transform="matrix(1,0,0,1,-528,-89)"></path></svg>