<svg id="SvgjsSvg1029" xmlns="http://www.w3.org/2000/svg" version="1.1" xmlns:xlink="http://www.w3.org/1999/xlink" xmlns:svgjs="http://svgjs.com/svgjs" width="280" height="8" viewBox="0 0 280 8"><title>Rectangle 44</title><desc>Created with Avocode.</desc><defs id="SvgjsDefs1030"></defs><path id="SvgjsPath1031" d="M685 1971C685 1968.79086 686.79086 1967 689 1967H941C943.20914 1967 945 1968.79086 945 1971V1971C945 1973.20914 943.20914 1975 941 1975H689C686.79086 1975 685 1973.20914 685 1971Z " fill="#e6e6e6" fill-opacity="1" transform="matrix(1,0,0,1,-665,-1967)"></path><path id="SvgjsPath1032" d="M665 1971C665 1968.79086 666.79086 1967 669 1967H749C751.20914 1967 753 1968.79086 753 1971V1971C753 1973.20914 751.20914 1975 749 1975H669C666.79086 1975 665 1973.20914 665 1971Z " fill="#ffa000" fill-opacity="1" transform="matrix(1,0,0,1,-665,-1967)"></path></svg>