<svg id="SvgjsSvg1017" xmlns="http://www.w3.org/2000/svg" version="1.1" xmlns:xlink="http://www.w3.org/1999/xlink" xmlns:svgjs="http://svgjs.com/svgjs" width="280" height="8" viewBox="0 0 280 8"><title>Rectangle 44</title><desc>Created with Avocode.</desc><defs id="SvgjsDefs1018"></defs><path id="SvgjsPath1019" d="M685 921C685 918.79086 686.79086 917 689 917H941C943.20914 917 945 918.79086 945 921V921C945 923.20914 943.20914 925 941 925H689C686.79086 925 685 923.20914 685 921Z " fill="#e6e6e6" fill-opacity="1" transform="matrix(1,0,0,1,-665,-917)"></path><path id="SvgjsPath1020" d="M665 921C665 918.79086 666.79086 917 669 917H921C923.20914 917 925 918.79086 925 921V921C925 923.20914 923.20914 925 921 925H669C666.79086 925 665 923.20914 665 921Z " fill="#ffa000" fill-opacity="1" transform="matrix(1,0,0,1,-665,-917)"></path></svg>