<svg id="SvgjsSvg1008" xmlns="http://www.w3.org/2000/svg" version="1.1" xmlns:xlink="http://www.w3.org/1999/xlink" xmlns:svgjs="http://svgjs.com/svgjs" width="17" height="17" viewBox="0 0 17 17"><title>search_ic</title><desc>Created with Avocode.</desc><defs id="SvgjsDefs1009"></defs><path id="SvgjsPath1010" d="M342 51.5C342 47.35786 345.35786 44 349.5 44C353.64214 44 357 47.35786 357 51.5C357 53.16546 356.45714 54.70413 355.53872 55.94872L358.2 58.61L359 59.4L357.4 61L356.60999999999996 60.2L353.94872 57.538720000000005C352.70412999999996 58.45714 351.16546 59.00000000000001 349.5 59.00000000000001C345.35786 59.00000000000001 342 55.642140000000005 342 51.50000000000001ZM349 56C351.76142 56 354 53.76142 354 51C354 48.23858 351.76142 46 349 46C346.23858 46 344 48.23858 344 51C344 53.76142 346.23858 56 349 56Z " fill="#ffffff" fill-opacity="1" transform="matrix(1,0,0,1,-342,-44)"></path></svg>