<svg id="SvgjsSvg1013" xmlns="http://www.w3.org/2000/svg" version="1.1" xmlns:xlink="http://www.w3.org/1999/xlink" xmlns:svgjs="http://svgjs.com/svgjs" width="280" height="8" viewBox="0 0 280 8"><title>Rectangle 44</title><desc>Created with Avocode.</desc><defs id="SvgjsDefs1014"></defs><path id="SvgjsPath1015" d="M685 571C685 568.79086 686.79086 567 689 567H941C943.20914 567 945 568.79086 945 571V571C945 573.20914 943.20914 575 941 575H689C686.79086 575 685 573.20914 685 571Z " fill="#e6e6e6" fill-opacity="1" transform="matrix(1,0,0,1,-665,-567)"></path><path id="SvgjsPath1016" d="M665 571C665 568.79086 666.79086 567 669 567H861C863.20914 567 865 568.79086 865 571V571C865 573.20914 863.20914 575 861 575H669C666.79086 575 665 573.20914 665 571Z " fill="#ffa000" fill-opacity="1" transform="matrix(1,0,0,1,-665,-567)"></path></svg>