<?xml version="1.0" encoding="UTF-8"?>
<svg width="20px" height="20px" viewBox="0 0 20 20" version="1.1" xmlns="http://www.w3.org/2000/svg" xmlns:xlink="http://www.w3.org/1999/xlink">
    <!-- Generator: sketchtool 41.2 (35397) - http://www.bohemiancoding.com/sketch -->
    <title>8D27A461-F722-4D48-94AB-A1B7011A7F2C</title>
    <desc>Created with sketchtool.</desc>
    <defs></defs>
    <g id="Page-1" stroke="none" stroke-width="1" fill="none" fill-rule="evenodd">
        <g id="6.4.2-Карточка-проекта_список-инвесторов" transform="translate(-1334.000000, -670.000000)" fill="#0023A0">
            <g id="Group-8" transform="translate(1135.000000, 634.000000)">
                <path d="M212.6399,50.8527795 C211.2008,52.0183795 209.3673,52.7170795 207.3717,52.7170795 C202.7512,52.7170795 199,48.9716795 199,44.3585795 C199,39.7453795 202.7512,36.0000795 207.3717,36.0000795 C211.9922,36.0000795 215.7434,39.7453795 215.7434,44.3585795 C215.7434,46.3538795 215.0416,48.1868795 213.8711,49.6246795 L218.7472,54.5195795 C219.0812,54.8549795 219.0847,55.3956795 218.7549,55.7351795 C218.7546,55.7354795 218.7543,55.7357795 218.754,55.7360795 C218.5914,55.9034795 218.3683,55.9985795 218.1348,55.9999795 C217.9012,56.0015795 217.6769,55.9092795 217.5122,55.7438795 L212.6399,50.8527795 Z M207.3717,37.5607795 C211.1294,37.5607795 214.1802,40.6067795 214.1802,44.3585795 C214.1802,48.1103795 211.1294,51.1563795 207.3717,51.1563795 C203.614,51.1563795 200.5631,48.1103795 200.5631,44.3585795 C200.5631,40.6067795 203.614,37.5607795 207.3717,37.5607795 L207.3717,37.5607795 Z" id="Page-1"></path>
            </g>
        </g>
    </g>
</svg>