<svg id="SvgjsSvg1021" xmlns="http://www.w3.org/2000/svg" version="1.1" xmlns:xlink="http://www.w3.org/1999/xlink" xmlns:svgjs="http://svgjs.com/svgjs" width="280" height="8" viewBox="0 0 280 8"><title>Rectangle 44</title><desc>Created with Avocode.</desc><defs id="SvgjsDefs1022"></defs><path id="SvgjsPath1023" d="M685 1272C685 1269.79086 686.79086 1268 689 1268H941C943.20914 1268 945 1269.79086 945 1272V1272C945 1274.20914 943.20914 1276 941 1276H689C686.79086 1276 685 1274.20914 685 1272Z " fill="#e6e6e6" fill-opacity="1" transform="matrix(1,0,0,1,-665,-1268)"></path><path id="SvgjsPath1024" d="M665 1272C665 1269.79086 666.79086 1268 669 1268H901C903.20914 1268 905 1269.79086 905 1272V1272C905 1274.20914 903.20914 1276 901 1276H669C666.79086 1276 665 1274.20914 665 1272Z " fill="#ffa000" fill-opacity="1" transform="matrix(1,0,0,1,-665,-1268)"></path></svg>