<svg id="SvgjsSvg1025" xmlns="http://www.w3.org/2000/svg" version="1.1" xmlns:xlink="http://www.w3.org/1999/xlink" xmlns:svgjs="http://svgjs.com/svgjs" width="280" height="8" viewBox="0 0 280 8"><title>Rectangle 44</title><desc>Created with Avocode.</desc><defs id="SvgjsDefs1026"></defs><path id="SvgjsPath1027" d="M685 1622C685 1619.79086 686.79086 1618 689 1618H941C943.20914 1618 945 1619.79086 945 1622V1622C945 1624.20914 943.20914 1626 941 1626H689C686.79086 1626 685 1624.20914 685 1622Z " fill="#e6e6e6" fill-opacity="1" transform="matrix(1,0,0,1,-665,-1618)"></path><path id="SvgjsPath1028" d="M665 1622C665 1619.79086 666.79086 1618 669 1618H802C804.20914 1618 806 1619.79086 806 1622V1622C806 1624.20914 804.20914 1626 802 1626H669C666.79086 1626 665 1624.20914 665 1622Z " fill="#ffa000" fill-opacity="1" transform="matrix(1,0,0,1,-665,-1618)"></path></svg>