<svg id="SvgjsSvg1249" xmlns="http://www.w3.org/2000/svg" version="1.1" xmlns:xlink="http://www.w3.org/1999/xlink" xmlns:svgjs="http://svgjs.com/svgjs" width="14" height="14" viewBox="0 0 14 14"><title>search_ic</title><desc>Created with Avocode.</desc><defs id="SvgjsDefs1250"></defs><path id="SvgjsPath1251" d="M1374 214C1374 210.68629 1376.68629 208 1380 208C1383.31371 208 1386 210.68629 1386 214C1386 215.32261 1385.57205 216.54528 1384.84707 217.53707L1388 220.69L1386.69 222L1383.53707 218.84707C1382.54528 219.57205 1381.3226100000002 220 1380 220C1376.68629 220 1374 217.31371 1374 214ZM1380 218C1382.20914 218 1384 216.20914 1384 214C1384 211.79086 1382.20914 210 1380 210C1377.79086 210 1376 211.79086 1376 214C1376 216.20914 1377.79086 218 1380 218Z " fill="#0023a0" fill-opacity="1" transform="matrix(1,0,0,1,-1374,-208)"></path></svg>