<svg id="SvgjsSvg1019" xmlns="http://www.w3.org/2000/svg" version="1.1" xmlns:xlink="http://www.w3.org/1999/xlink" xmlns:svgjs="http://svgjs.com/svgjs" width="280" height="8" viewBox="0 0 280 8"><title>Rectangle 44</title><desc>Created with Avocode.</desc><defs id="SvgjsDefs1020"></defs><path id="SvgjsPath1021" d="M50 2301C50 2298.79086 51.79086 2297 54 2297L326 2297C328.20914 2297 330 2298.79086 330 2301L330 2301C330 2303.20914 328.20914 2305 326 2305L54 2305C51.79086 2305 50 2303.20914 50 2301Z " fill="#e6e6e6" fill-opacity="1" transform="matrix(1,0,0,1,-50,-2297)"></path><path id="SvgjsPath1022" d="M50 2301C50 2298.79086 51.79086 2297 54 2297L296 2297C298.20914 2297 300 2298.79086 300 2301L300 2301C300 2303.20914 298.20914 2305 296 2305L54 2305C51.79086 2305 50 2303.20914 50 2301Z " fill="#ffa000" fill-opacity="1" transform="matrix(1,0,0,1,-50,-2297)"></path></svg>