<svg id="SvgjsSvg1011" xmlns="http://www.w3.org/2000/svg" version="1.1" xmlns:xlink="http://www.w3.org/1999/xlink" xmlns:svgjs="http://svgjs.com/svgjs" width="280" height="8" viewBox="0 0 280 8"><title>Rectangle 44</title><desc>Created with Avocode.</desc><defs id="SvgjsDefs1012"></defs><path id="SvgjsPath1013" d="M770 1851C770 1848.79086 771.79086 1847 774 1847L1046 1847C1048.20914 1847 1050 1848.79086 1050 1851L1050 1851C1050 1853.20914 1048.20914 1855 1046 1855L774 1855C771.79086 1855 770 1853.20914 770 1851Z " fill="#e6e6e6" fill-opacity="1" transform="matrix(1,0,0,1,-770,-1847)"></path><path id="SvgjsPath1014" d="M770 1851C770 1848.79086 771.79086 1847 774 1847L1000 1847C1002.20914 1847 1004 1848.79086 1004 1851L1004 1851C1004 1853.20914 1002.20914 1855 1000 1855L774 1855C771.79086 1855 770 1853.20914 770 1851Z " fill="#ffa000" fill-opacity="1" transform="matrix(1,0,0,1,-770,-1847)"></path></svg>