<svg id="SvgjsSvg1015" xmlns="http://www.w3.org/2000/svg" version="1.1" xmlns:xlink="http://www.w3.org/1999/xlink" xmlns:svgjs="http://svgjs.com/svgjs" width="280" height="8" viewBox="0 0 280 8"><title>Rectangle 44</title><desc>Created with Avocode.</desc><defs id="SvgjsDefs1016"></defs><path id="SvgjsPath1017" d="M50 1851C50 1848.79086 51.79086 1847 54 1847L326 1847C328.20914 1847 330 1848.79086 330 1851L330 1851C330 1853.20914 328.20914 1855 326 1855L54 1855C51.79086 1855 50 1853.20914 50 1851Z " fill="#e6e6e6" fill-opacity="1" transform="matrix(1,0,0,1,-50,-1847)"></path><path id="SvgjsPath1018" d="M50 1851C50 1848.79086 51.79086 1847 54 1847L170 1847C172.20914 1847 174 1848.79086 174 1851L174 1851C174 1853.20914 172.20914 1855 170 1855L54 1855C51.79086 1855 50 1853.20914 50 1851Z " fill="#ffa000" fill-opacity="1" transform="matrix(1,0,0,1,-50,-1847)"></path></svg>