<svg id="SvgjsSvg1023" xmlns="http://www.w3.org/2000/svg" version="1.1" xmlns:xlink="http://www.w3.org/1999/xlink" xmlns:svgjs="http://svgjs.com/svgjs" width="280" height="8" viewBox="0 0 280 8"><title>Rectangle 44</title><desc>Created with Avocode.</desc><defs id="SvgjsDefs1024"></defs><path id="SvgjsPath1025" d="M770 2301C770 2298.79086 771.79086 2297 774 2297L1046 2297C1048.20914 2297 1050 2298.79086 1050 2301L1050 2301C1050 2303.20914 1048.20914 2305 1046 2305L774 2305C771.79086 2305 770 2303.20914 770 2301Z " fill="#e6e6e6" fill-opacity="1" transform="matrix(1,0,0,1,-770,-2297)"></path><path id="SvgjsPath1026" d="M770 2301C770 2298.79086 771.79086 2297 774 2297L812 2297C814.20914 2297 816 2298.79086 816 2301L816 2301C816 2303.20914 814.20914 2305 812 2305L774 2305C771.79086 2305 770 2303.20914 770 2301Z " fill="#ffa000" fill-opacity="1" transform="matrix(1,0,0,1,-770,-2297)"></path></svg>