<svg id="SvgjsSvg1018" xmlns="http://www.w3.org/2000/svg" version="1.1" xmlns:xlink="http://www.w3.org/1999/xlink" xmlns:svgjs="http://svgjs.com/svgjs" width="26" height="26.000407994656115" viewBox="0 0 26 26.000407994656115"><title>Stop Watch</title><desc>Created with Avocode.</desc><defs id="SvgjsDefs1019"></defs><path id="SvgjsPath1020" d="M905.74 23.14C904.22 22.03 902.4300000000001 21.28 900.49 21L896.97 21.02C891.33 21.91 887 26.83 887 32.75C887 39.29 892.3 44.62 898.81 44.62C905.3199999999999 44.62 910.6199999999999 39.29 910.6199999999999 32.75C910.6199999999999 30.02 909.6899999999999 27.5 908.1399999999999 25.490000000000002Z " fill-opacity="0" fill="#ffffff" stroke-dasharray="0" stroke-linejoin="miter" stroke-linecap="butt" stroke-opacity="1" stroke="#ffffff" stroke-miterlimit="50" stroke-width="2" transform="matrix(1,0,0,1,-886,-19.999796002671943)"></path><path id="SvgjsPath1021" d="M898 29L898 35 " fill-opacity="0" fill="#ffffff" stroke-dasharray="0" stroke-linejoin="miter" stroke-linecap="square" stroke-opacity="1" stroke="#ffffff" stroke-miterlimit="50" stroke-width="2" transform="matrix(1,0,0,1,-886,-19.999796002671943)"></path><path id="SvgjsPath1022" d="M899 35L903 35 " fill-opacity="0" fill="#ffffff" stroke-dasharray="0" stroke-linejoin="miter" stroke-linecap="square" stroke-opacity="1" stroke="#ffffff" stroke-miterlimit="50" stroke-width="2" transform="matrix(1,0,0,1,-886,-19.999796002671943)"></path></svg>