<?xml version="1.0" encoding="UTF-8"?>
<svg width="16px" height="12px" viewBox="0 0 16 12" version="1.1" xmlns="http://www.w3.org/2000/svg" xmlns:xlink="http://www.w3.org/1999/xlink">
    <!-- Generator: sketchtool 41.2 (35397) - http://www.bohemiancoding.com/sketch -->
    <title>66AAD432-32A8-43E0-973A-E3D29F5A18AB</title>
    <desc>Created with sketchtool.</desc>
    <defs></defs>
    <g id="Page-1" stroke="none" stroke-width="1" fill="none" fill-rule="evenodd">
        <g id="6.4.1.2-Карточка_новости_комментарии" transform="translate(-308.000000, -1593.000000)" fill="#0023A0">
            <g id="Group-21-Copy" transform="translate(296.000000, 1579.000000)">
                <g id="Group-20">
                    <path d="M26.3264187,17.6288164 C26.2601624,18.8608697 25.892895,20.0775494 25.3302121,21.186198 C23.6685407,24.3958303 20.4740436,26.1740783 16.8017089,25.9865202 C15.0759123,25.8983781 13.3964753,25.3223509 12,24.3489631 C12.2397571,24.3808184 12.4995817,24.4136986 12.7403905,24.4259975 C14.1852435,24.4997909 15.5951348,24.1011558 16.7651836,23.298069 C15.4217193,23.2098438 14.2650011,22.2683113 13.9108937,20.9951785 C14.1094643,21.0445404 14.3090867,21.0743459 14.5097607,21.0845949 C14.7907043,21.0989437 15.0737514,21.0741796 15.3589017,21.0103027 C13.8896893,20.6411135 12.8543419,19.3135775 12.9733533,17.8488972 L12.9754566,17.8097844 C13.4043192,18.0670091 13.8785751,18.2285017 14.3992759,18.2747057 C13.5277934,17.6418928 13.0575736,16.6569816 13.1133131,15.6204923 C13.1427604,15.072913 13.3126794,14.5325082 13.6188636,14.0775032 C15.1402061,16.0966045 17.4651257,17.3919526 20.006324,17.6590107 C19.958742,17.4212591 19.9512949,17.1855574 19.9639151,16.9508806 C20.0564637,15.2299172 21.5559191,13.9141812 23.3218505,14.004373 C24.1847488,14.0484441 25.0086494,14.4435054 25.5770174,15.1000575 C26.3068057,15.0000593 27.0027693,14.780673 27.6437892,14.4604299 C27.3651196,15.1521615 26.8297805,15.7523436 26.1475742,16.0900933 C26.7928861,16.0642211 27.4043734,15.9189607 28,15.6944498 C27.5449305,16.2987316 26.9736634,16.8186384 26.3284368,17.2171071 C26.3411424,17.3550268 26.3337806,17.4919216 26.3264187,17.6288164 L26.3264187,17.6288164 Z" id="icon"></path>
                </g>
            </g>
        </g>
    </g>
</svg>