<svg id="SvgjsSvg1009" xmlns="http://www.w3.org/2000/svg" version="1.1" xmlns:xlink="http://www.w3.org/1999/xlink" xmlns:svgjs="http://svgjs.com/svgjs" width="41" height="41" viewBox="0 0 41 41"><title>base</title><desc>Created with Avocode.</desc><defs id="SvgjsDefs1010"></defs><path id="SvgjsPath1011" d="M1043 7251C1043 7239.95431 1051.95431 7231 1063 7231C1074.04569 7231 1083 7239.95431 1083 7251C1083 7262.04569 1074.04569 7271 1063 7271C1051.95431 7271 1043 7262.04569 1043 7251Z " fill-opacity="0" fill="#ffffff" stroke-dasharray="0" stroke-linejoin="miter" stroke-linecap="butt" stroke-opacity="1" stroke="#FFA000" stroke-miterlimit="50" stroke-width="1" transform="matrix(1,0,0,1,-1042.5,-7230.5)"></path><path id="SvgjsPath1012" d="M1069.33 7248.63C1069.26 7249.86 1068.8899999999999 7251.08 1068.33 7252.1900000000005C1066.6699999999998 7255.400000000001 1063.47 7257.17 1059.8 7256.990000000001C1058.08 7256.900000000001 1056.3999999999999 7256.320000000001 1055 7255.35C1055.24 7255.38 1055.5 7255.410000000001 1055.74 7255.43C1057.19 7255.5 1058.6 7255.1 1059.77 7254.3C1058.42 7254.21 1057.27 7253.27 1056.91 7252C1057.1100000000001 7252.04 1057.3100000000002 7252.07 1057.51 7252.08C1057.79 7252.1 1058.07 7252.07 1058.36 7252.01C1056.8899999999999 7251.64 1055.85 7250.31 1055.9699999999998 7248.85L1055.9799999999998 7248.81C1056.3999999999999 7249.070000000001 1056.8799999999999 7249.2300000000005 1057.3999999999999 7249.27C1056.53 7248.64 1056.06 7247.660000000001 1056.11 7246.620000000001C1056.1399999999999 7246.070000000001 1056.31 7245.530000000001 1056.62 7245.080000000001C1058.1399999999999 7247.100000000001 1060.4699999999998 7248.390000000001 1063.01 7248.660000000001C1062.96 7248.420000000001 1062.95 7248.1900000000005 1062.96 7247.950000000001C1063.06 7246.2300000000005 1064.56 7244.910000000001 1066.32 7245.000000000001C1067.1799999999998 7245.050000000001 1068.01 7245.4400000000005 1068.58 7246.100000000001C1069.31 7246.000000000001 1070 7245.780000000002 1070.6399999999999 7245.460000000001C1070.37 7246.150000000001 1069.83 7246.750000000001 1069.1499999999999 7247.090000000001C1069.79 7247.060000000001 1070.3999999999999 7246.920000000001 1070.9999999999998 7246.690000000001C1070.5399999999997 7247.300000000001 1069.9699999999998 7247.8200000000015 1069.3299999999997 7248.220000000001C1069.3399999999997 7248.3600000000015 1069.3299999999997 7248.490000000002 1069.3299999999997 7248.630000000001Z " fill="#FFA000" fill-opacity="1" transform="matrix(1,0,0,1,-1042.5,-7230.5)"></path></svg>